<?xml version="1.0" encoding="UTF-8"?>
<svg width="16px" height="16px" viewBox="0 0 16 16" version="1.1" xmlns="http://www.w3.org/2000/svg" xmlns:xlink="http://www.w3.org/1999/xlink">
    <g id="Demo" stroke="none" stroke-width="1" fill="none" fill-rule="evenodd">
        <g id="1.1.1.Side.Nav.New" transform="translate(-1100.000000, -81.000000)" fill="#FFFFFF" fill-rule="nonzero">
            <g id="Group-3" transform="translate(1084.000000, 73.000000)">
                <path d="M20,8 L28,8 C30.209139,8 32,9.790861 32,12 L32,20 C32,22.209139 30.209139,24 28,24 L20,24 C17.790861,24 16,22.209139 16,20 L16,12 C16,9.790861 17.790861,8 20,8 Z M20,9 C18.3431458,9 17,10.3431458 17,12 L17,20 C17,21.6568542 18.3431458,23 20,23 L28,23 C29.6568542,23 31,21.6568542 31,20 L31,12 C31,10.3431458 29.6568542,9 28,9 L20,9 Z M27.3759623,16.4160251 L22.7773501,19.4817666 C22.5475858,19.6349428 22.2371511,19.5728559 22.0839749,19.3430916 C22.029219,19.2609578 22,19.1644539 22,19.0657415 L22,12.9342585 C22,12.6581162 22.2238576,12.4342585 22.5,12.4342585 C22.5987125,12.4342585 22.6952163,12.4634776 22.7773501,12.5182334 L27.3759623,15.5839749 C27.6057266,15.7371511 27.6678136,16.0475858 27.5146373,16.2773501 C27.4780199,16.3322762 27.4308884,16.3794077 27.3759623,16.4160251 Z" id="ic_open_live_agent"></path>
            </g>
        </g>
    </g>
</svg>