<?xml version="1.0" encoding="UTF-8"?>
<svg width="32px" height="32px" viewBox="0 0 32 32" version="1.1" xmlns="http://www.w3.org/2000/svg" xmlns:xlink="http://www.w3.org/1999/xlink">
    <g id="Demo" stroke="none" stroke-width="1" fill="none" fill-rule="evenodd">
        <g id="1.1.1.Side.Nav.New" transform="translate(-24.000000, -340.000000)" fill-rule="nonzero" stroke="#909EA9">
            <g id="Group">
                <path d="M37.6069277,370.685177 C37.6105866,370.676243 37.6119092,370.673284 37.6164415,370.663144 C37.6291817,370.63532 37.6291817,370.63532 37.6441185,370.604055 C37.6786667,370.532838 37.6786667,370.532838 37.7218417,370.445895 C37.7854569,370.318301 37.8512609,370.189416 37.8838663,370.129167 C38.3420458,369.282538 38.9344874,368.939719 40.0000239,368.939719 C41.0655605,368.939719 41.658002,369.282538 42.1161815,370.129167 C42.1485076,370.1889 42.2131313,370.315801 42.2780381,370.446243 C42.3210503,370.533007 42.3210503,370.533007 42.355354,370.603658 C42.3701186,370.634474 42.3701186,370.634474 42.3824005,370.661054 C42.3869883,370.671194 42.3880898,370.673628 42.3920101,370.682971 C42.7607773,371.414944 43.0798722,371.602511 43.7073575,371.452511 C45.3311573,371.064345 46.8809776,370.421338 48.3046006,369.546773 C48.9323211,369.16115 48.9826021,368.900857 48.6424395,367.684478 C48.3117735,366.502058 48.4159481,365.883615 49.1498098,365.149754 C49.8836716,364.415892 50.5021138,364.311717 51.684534,364.642383 C52.9009129,364.982546 53.1612059,364.932265 53.5468293,364.304544 C54.4213942,362.880921 55.0644008,361.331101 55.4525676,359.707301 C55.6038949,359.074261 55.4116777,358.755389 54.6687757,358.385597 L54.6686896,358.385555 C54.6685974,358.38551 54.6685974,358.38551 54.6684504,358.385439 C54.6680854,358.385262 54.6680854,358.385262 54.6675296,358.384993 C54.6661358,358.384317 54.6661358,358.384317 54.6640105,358.383287 C54.6586946,358.380708 54.6586946,358.380708 54.6507081,358.376832 C54.6309842,358.367252 54.6309842,358.367252 54.6026158,358.353446 C54.5349505,358.320467 54.5349505,358.320467 54.4489351,358.278295 C54.2975154,358.2039 54.1868788,358.148467 54.1291708,358.117263 C53.2825884,357.659503 52.9397753,357.06662 52.9397753,355.999968 C52.9397753,354.933316 53.2825884,354.340432 54.1291708,353.882672 C54.1879812,353.850872 54.301516,353.793807 54.4461189,353.722627 C54.5310411,353.680929 54.5310411,353.680929 54.5983111,353.648195 C54.5975047,353.637052 54.5971337,353.631925 54.6606374,353.622342 L54.6590505,353.619145 C55.4110009,353.245886 55.6041417,352.926707 55.4525676,352.292634 C55.0644008,350.668834 54.4213942,349.119014 53.5468293,347.695391 C53.1630819,347.070724 52.9278284,347.028887 51.7560691,347.398421 C50.5897154,347.766251 49.948859,347.649231 49.1498098,346.850182 C48.3507606,346.051133 48.2337411,345.410276 48.6015708,344.243923 C48.9711051,343.072163 48.9292673,342.83691 48.3046006,342.453162 C46.8809776,341.578597 45.3311573,340.935591 43.7073575,340.547424 C43.0748947,340.396235 42.7570305,340.587934 42.3874652,341.333537 L42.2868661,341.536497 C42.278547,341.553696 42.2682341,341.575026 42.2537427,341.604999 C42.2524334,341.607701 42.2524334,341.607701 42.2511233,341.610405 C42.1869348,341.742859 42.1480939,341.821373 42.1213377,341.871007 C41.6650576,342.717424 41.0706137,343.060216 40.0000239,343.060216 C38.9294341,343.060216 38.3349903,342.717424 37.8787102,341.871007 C37.8523127,341.822039 37.8085488,341.734859 37.7492453,341.614241 C37.747282,341.610247 37.747282,341.610247 37.7453199,341.606254 C37.6938025,341.501399 37.6430866,341.3969 37.6118045,341.33197 C37.2423182,340.58764 36.9246453,340.396356 36.2926904,340.547424 C34.6688906,340.935591 33.1190702,341.578597 31.6954473,342.453162 C31.0694332,342.837737 31.0235658,343.085038 31.378683,344.27806 C31.7283344,345.45272 31.6175922,346.082828 30.850238,346.850182 C30.0828839,347.617536 29.4527759,347.728278 28.2781165,347.378627 C27.0850945,347.02351 26.8377937,347.069377 26.4532186,347.695391 C25.5786537,349.119014 24.9356471,350.668834 24.5474803,352.292634 C24.3982764,352.916791 24.5831078,353.240052 25.305711,353.615028 C25.3115752,353.617186 25.3169804,353.619404 25.3255026,353.622899 C25.3644823,353.639668 25.3644823,353.639668 25.399237,353.656224 C25.4411497,353.676373 25.4959786,353.704056 25.5613265,353.737869 C25.6661765,353.792121 25.7989472,353.862744 25.8699997,353.901716 C26.7173888,354.366509 27.0602726,354.951988 27.0602726,355.999968 C27.0602726,357.047947 26.7173888,357.633426 25.8699997,358.098219 C25.8127838,358.129602 25.7038885,358.185274 25.5558404,358.25958 C25.4715788,358.301789 25.4715788,358.301789 25.4053711,358.334769 C25.3776231,358.34857 25.3776231,358.34857 25.3583391,358.358145 C25.3505321,358.362018 25.3505321,358.362018 25.3453371,358.364594 C25.3442817,358.365117 25.3437626,358.365375 25.3433286,358.36559 C24.58958,358.748827 24.3957042,359.072384 24.5474803,359.707301 C24.9356471,361.331101 25.5786537,362.880921 26.4532186,364.304544 C26.8372652,364.929698 27.0771206,364.973067 28.2569553,364.609103 C29.426605,364.24828 30.0633648,364.36288 30.850238,365.149754 C31.6371112,365.936627 31.7517116,366.573387 31.390889,367.743036 C31.0269245,368.922871 31.0702934,369.162726 31.6954473,369.546773 C33.1190702,370.421338 34.6688906,371.064345 36.2926904,371.452511 C36.9196011,371.602373 37.2387113,371.415296 37.6069277,370.685177 Z M25.3433286,358.36559 C25.3429087,358.365798 25.3425684,358.365967 25.3418989,358.366298 C25.3413561,358.366567 25.3413561,358.366567 25.3409998,358.366744 C25.3408564,358.366815 25.3408564,358.366815 25.3407549,358.366865 L25.345225,358.364622 C25.344671,358.364904 25.3441174,358.365185 25.3435641,358.365466 Z M40.0000239,363.496916 C35.8595735,363.496916 32.5030752,360.140418 32.5030752,355.999968 C32.5030752,351.859517 35.8595735,348.503019 40.0000239,348.503019 C44.1404744,348.503019 47.4969727,351.859517 47.4969727,355.999968 C47.4969727,360.140418 44.1404744,363.496916 40.0000239,363.496916 Z" id="ic_nav_settings"></path>
            </g>
        </g>
    </g>
</svg>