<?xml version="1.0" encoding="UTF-8"?>
<svg width="160px" height="167px" viewBox="0 0 160 167" version="1.1" xmlns="http://www.w3.org/2000/svg" xmlns:xlink="http://www.w3.org/1999/xlink">
    <g id="Jan-8-9" stroke="none" stroke-width="1" fill="none" fill-rule="evenodd">
        <g id="1.2.Extension.Settings.None.1" transform="translate(-560.000000, -302.000000)" fill="#1B191B" fill-rule="nonzero">
            <path d="M703.589988,302 C706.911115,302 708.544356,304.258253 708.283343,308.115011 C708.268967,308.327437 708.198331,308.532214 708.078685,308.708328 L693.808346,329.713116 C709.899026,344.346712 720,365.450783 720,388.914062 C720,433.096842 684.18278,468.914062 640,468.914062 C595.81722,468.914062 560,433.096842 560,388.914062 C560,344.731283 595.81722,308.914062 640,308.914062 C655.609133,308.914062 670.174155,313.384431 682.48462,321.114722 C684.385961,319.358443 686.15413,317.724283 687.788599,316.213355 C697.174431,307.536951 696.517447,308.140903 699.014735,305.825625 C700.262861,304.668466 701.199854,303.798081 701.825403,303.214761 C701.981285,303.069401 702.117736,302.941954 702.23468,302.832488 L702.254725,302.814901 C701.874619,303.176029 703.159629,302 703.589988,302 Z M691.537071,333.057208 L665.299376,371.677478 C669.88306,379.003603 682.629739,401.252654 685.086878,405.479756 C697.548683,426.918236 695.211629,435.654246 682.332779,440.946794 C681.896566,441.126055 678.721625,442.382338 678.41623,442.509271 C669.452982,446.234688 649.743005,436.396813 647.632305,427.983338 C638.554426,429.096112 630.740457,427.837884 624.225503,424.190058 L621.666148,462.687955 C627.537801,464.142334 633.678777,464.914062 640,464.914062 C681.973641,464.914062 716,430.887703 716,388.914062 C716,366.828376 706.579282,346.943016 691.537071,333.057208 Z M624.424209,330.541765 C617.489268,331.219895 613.399893,339.980419 612.657233,357.863413 L612.596616,359.323047 L611.272207,359.939609 L611.238746,359.9552 C601.613138,364.444024 591.700214,373.25514 580.470376,387.541202 C575.979206,393.254655 570.139926,401.145048 566.044732,406.500885 C572.373788,433.216723 592.806023,454.478397 619.045853,461.988698 L622.082831,420.239743 L625.398017,422.095968 C631.433058,425.475083 638.733165,426.656238 647.340297,425.601169 L649.444355,425.343252 L649.960169,427.399344 C650.757187,430.576344 654.803147,434.08186 659.708065,436.728435 C658.587288,435.258682 657.604476,433.512504 656.763528,431.491437 L656.618352,431.136291 L656.403682,430.590405 C655.052935,427.036549 655.968038,424.565785 659.152023,423.82595 C659.387242,423.771294 659.632869,423.803859 659.84421,423.915134 L659.946817,423.977291 L681.340224,438.759613 C681.373181,438.746283 681.399721,438.73548 681.420528,438.726929 C693.266008,433.859044 694.258579,426.221003 683.346279,407.263803 L683.012995,406.687478 L683.011958,406.685869 L683.00317,406.670363 C682.664329,406.080887 675.696834,394.007115 672.763198,388.96334 L672.503175,388.5164 C668.57525,381.766629 665.571356,376.684039 663.717362,373.679182 C663.557955,373.420823 661.142262,377.227378 661,377 C649.666667,375 643.666667,368.666667 643,358 L643.075965,357.923084 C643.316899,357.677395 644.068061,356.897702 644.408365,356.386209 C643.138111,356.102503 633.163324,355.882117 632.396598,355.884048 L629.36466,355.891684 L630.053273,352.93897 C633.093429,339.903036 632.359075,332.966131 628.233231,331.048128 C624.54275,335.061236 621.318804,346.861101 618.734121,366.246226 C618.661129,366.793666 618.158169,367.178282 617.610729,367.10529 C617.063289,367.032298 616.678673,366.529339 616.751665,365.981899 C619.243274,347.294829 622.30525,335.528299 626.082284,330.514177 C625.562907,330.475093 625.010198,330.484464 624.424209,330.541765 Z M675.97048,437.479195 C675.939072,437.60965 675.882308,437.73562 675.799823,437.849541 L675.721106,437.945925 L673.885338,439.982289 C674.167519,440.102972 674.448619,440.214025 674.728628,440.315455 C675.754529,440.138128 676.822665,439.878996 677.93348,439.538333 L678.308113,439.420869 L678.628253,439.31648 L675.97048,437.479195 Z M671.322235,434.268289 C671.297878,434.314652 671.269808,434.359654 671.238009,434.402875 L671.158555,434.498663 L668.893336,436.929201 C669.910514,437.731124 670.915456,438.41761 671.907761,438.988918 L674.135549,436.51813 C674.195723,436.452563 674.262288,436.396178 674.333447,436.34906 L671.322235,434.268289 Z M663.271538,434.635807 L661.832562,436.178763 C662.637139,437.122202 663.513122,437.914376 664.461964,438.555694 L665.807129,437.111956 C664.966055,436.356189 664.120918,435.530767 663.271538,434.635807 Z M666.631969,431.027211 L664.728944,433.072001 C665.580506,433.974848 666.424366,434.801443 667.260308,435.551922 L669.578969,433.063211 L666.631969,431.027211 Z M657.78614,427.973905 L657.789475,428.028294 C657.828396,428.481106 657.957848,429.009484 658.177823,429.623679 L658.264556,429.858044 L658.347782,430.070739 C658.989063,431.720839 659.718686,433.176233 660.538756,434.437512 L661.828693,433.053359 C660.492043,431.53016 659.144755,429.836861 657.78614,427.973905 Z M659.195181,425.88893 C659.119222,425.914453 659.046315,425.941658 658.976459,425.97061 L658.749234,425.652769 C660.285395,427.826548 661.79987,429.770034 663.291538,431.483946 L664.857969,429.801211 L659.195181,425.88893 Z M681.742777,417.2 C683.951916,417.2 685.742777,418.990861 685.742777,421.2 C685.742777,423.409139 683.951916,425.2 681.742777,425.2 C679.533638,425.2 677.742777,423.409139 677.742777,421.2 C677.742777,418.990861 679.533638,417.2 681.742777,417.2 Z M681.742777,419.6 C680.859122,419.6 680.142777,420.316344 680.142777,421.2 C680.142777,422.083656 680.859122,422.8 681.742777,422.8 C682.626433,422.8 683.342777,422.083656 683.342777,421.2 C683.342777,420.316344 682.626433,419.6 681.742777,419.6 Z M640,312.914062 C598.026359,312.914062 564,346.940422 564,388.914062 C564,393.706932 564.443663,398.396178 565.292161,402.942973 C569.068805,398.155063 573.4988,392.526576 578.583538,386.058016 C590.226938,371.245841 600.390015,362.366276 610.224401,357.78009 C610.236038,357.774663 610.247671,357.769243 610.2593,357.763829 C611.041049,338.939577 615.57357,328.995774 624.19064,328.153157 C629.094051,327.673679 632.174113,329.659165 633.502274,333.984964 C634.958883,331.910477 637.230355,330.621687 640.248587,330.161189 C649.322723,329.272396 652.181147,336.730215 649.307413,351.753909 C661.400953,340.58982 671.443023,331.316647 679.433514,323.934422 C667.938355,316.940886 654.439435,312.914062 640,312.914062 Z M647.742777,381.2 C652.161055,381.2 655.742777,384.781722 655.742777,389.2 C655.742777,393.618278 652.161055,397.2 647.742777,397.2 C643.324499,397.2 639.742777,393.618278 639.742777,389.2 C639.742777,384.781722 643.324499,381.2 647.742777,381.2 Z M647.742777,383.6 C644.649983,383.6 642.142777,386.107205 642.142777,389.2 C642.142777,392.292795 644.649983,394.8 647.742777,394.8 C650.835572,394.8 653.342777,392.292795 653.342777,389.2 C653.342777,386.107205 650.835572,383.6 647.742777,383.6 Z M647.742777,385.2 C649.951916,385.2 651.742777,386.990861 651.742777,389.2 C651.742777,391.409139 649.951916,393.2 647.742777,393.2 C645.533638,393.2 643.742777,391.409139 643.742777,389.2 C643.742777,386.990861 645.533638,385.2 647.742777,385.2 Z M646.315789,373.124211 C646.845983,373.124211 647.275789,373.554017 647.275789,374.084211 C647.275789,374.614404 646.845983,375.044211 646.315789,375.044211 C640.75573,375.044211 636.887266,377.623186 634.562536,382.892747 C634.348535,383.377833 633.781812,383.59759 633.296727,383.383589 C632.811641,383.169587 632.591883,382.602865 632.805885,382.117779 C635.434553,376.15927 639.987142,373.124211 646.315789,373.124211 Z M640.546364,332.541765 C637.168171,333.058948 635.152682,334.785018 634.361997,337.839374 C634.329017,337.966774 634.276769,338.084075 634.209183,338.188964 C634.454176,342.156766 633.839763,347.269969 632.390554,353.484055 C633.17078,353.482091 644.144303,353.83831 646.307452,354.40599 C649.89831,338.811248 647.801167,331.832357 640.546364,332.541765 Z M702.434,302.645 L702.34512,302.729019 L702.336,302.737 L702.362581,302.712999 L702.434,302.645 Z M670.434,440.59 L670.455843,440.603398 C669.455324,440.002485 668.449342,439.299207 667.437578,438.49377 L666.407348,439.599283 C667.599522,439.982922 668.782138,440.294228 669.926392,440.518887 C670.078285,440.535572 670.231667,440.549733 670.386262,440.561481 L670.434,440.59 Z" id="ic_unicorn_oops"></path>
        </g>
    </g>
</svg>