<?xml version="1.0" encoding="UTF-8"?>
<svg width="33px" height="40px" viewBox="0 0 33 40" version="1.1" xmlns="http://www.w3.org/2000/svg" xmlns:xlink="http://www.w3.org/1999/xlink">
    <g id="Demo" stroke="none" stroke-width="1" fill="none" fill-rule="evenodd">
        <g id="1.0.1.Side.Nav.New" transform="translate(-20.000000, -19.000000)">
            <g id="Group">
                <g id="logo_v.1.2" transform="translate(20.000000, 19.000000)">
                    <path d="M18.5798744,4.97379915e-13 L20.243655,4.97379915e-13 L17.3529412,2.89071386 L17.3529412,1.2269332 L18.5798744,4.96935826e-13 Z M21.5210508,4.97379915e-13 L23.1848315,4.97379915e-13 L17.3529412,5.83189033 L17.3529412,4.16810967 L21.5210508,4.97379915e-13 Z M24.4117647,0.0504626104 L24.4117647,1.71424327 L17.3529412,8.7730668 L17.3529412,7.10928614 L24.4117647,0.0504626104 Z M24.4117647,2.99163908 L24.4117647,4.65541974 L17.3529412,11.7142433 L17.3529412,10.0504626 L24.4117647,2.99163908 Z M24.4117647,5.93281555 L24.4117647,7.59659621 L17.3529412,14.6554197 L17.3529412,12.9916391 L24.4117647,5.93281555 Z M24.4117647,8.87399202 L24.4117647,10.5377727 L17.3529412,17.5965962 L17.3529412,15.9328156 L24.4117647,8.87399202 Z M24.4117647,11.8151685 L24.4117647,13.4789492 L17.3529412,20.5377727 L17.3529412,18.873992 L24.4117647,11.8151685 Z M24.4117647,14.756345 L24.4117647,16.4201256 L17.3529412,23.4789492 L17.3529412,21.8151685 L24.4117647,14.756345 Z M24.4117647,17.6975214 L24.4117647,19.3613021 L17.3529412,26.4201256 L17.3529412,24.756345 L24.4117647,17.6975214 Z M24.4117647,20.6386979 L24.4117647,22.3024786 L17.9159452,28.7982981 L17.3529412,28.2352941 L17.3529412,27.6975214 L24.4117647,20.6386979 Z M24.4117647,23.5798744 L24.4117647,25.243655 L19.3865334,30.2688863 L18.5546431,29.436996 L24.4117647,23.5798744 Z M24.4117647,26.5210508 L24.4117647,28.1848315 L20.8571216,31.7394746 L20.0252313,30.9075842 L24.4117647,26.5210508 Z" id="Combined-Shape" fill="#0F2434"></path>
                    <path d="M32.6470588,28.2352941 C32.6470588,34.7327618 27.3798206,40 20.8823529,40 C14.3848853,40 9.11764706,34.7327618 9.11764706,28.2352941 L13.8235294,28.2352941 C13.8235294,32.1337747 16.9838724,35.2941176 20.8823529,35.2941176 C24.7808335,35.2941176 27.9411765,32.1337747 27.9411765,28.2352941 L27.9411765,9.41176471 L16.1764706,9.41176471 L16.1764706,4.70588235 L32.6470588,4.70588235 L32.6470588,9.41176471 L32.6470588,28.2352941 Z" id="Combined-Shape-Copy-14" fill="#007FFF"></path>
                    <path d="M14,20.4705882 L14,18.9411765 L12.8235294,18.9411765 L12.8235294,5.70588235 L9.64307604,5.70588235 L1,18.2522831 L1,20.4705882 L10.1176471,20.4705882 L10.1176471,24.8823529 L12.8235294,24.8823529 L12.8235294,20.4705882 L14,20.4705882 Z M10.1176471,18.9411765 L1.99186391,18.9411765 L10.1176471,6.30106936 L10.1176471,18.9411765 Z" id="4-copy-13" stroke="#0F2434" stroke-width="2" fill="#0F2434" fill-rule="nonzero"></path>
                </g>
            </g>
        </g>
    </g>
</svg>