<?xml version="1.0" encoding="UTF-8"?>
<svg width="48px" height="48px" viewBox="0 0 32 32" version="1.1" xmlns="http://www.w3.org/2000/svg" xmlns:xlink="http://www.w3.org/1999/xlink">
    <g stroke="none" stroke-width="1" fill="none" fill-rule="evenodd">
        <path d="M27.9312723,11.4900079 L27.9542472,11.5123162 L31.6875806,15.2456495 C32.096566,15.6546349 32.1040021,16.3131111 31.7098889,16.731169 L31.6875806,16.754144 L27.9542472,20.4874773 L27.9312723,20.5097856 C27.5132144,20.9038988 26.8547382,20.8964627 26.4457528,20.4874773 C26.0367673,20.0784918 26.0293312,19.4200156 26.4234445,19.0019578 L26.4457528,18.9789828 L29.4247467,15.9998967 L26.4457528,13.0208106 C26.0291935,12.6042514 26.0291935,11.9288754 26.4457528,11.5123162 C26.8547382,11.1033307 27.5132144,11.0958946 27.9312723,11.4900079 Z" id="Path" fill="#0070FF" fill-rule="nonzero"/>
        <path d="M4.06872775,11.4900079 C4.48678558,11.0958946 5.14526179,11.1033307 5.55424723,11.5123162 C5.96323267,11.9213016 5.97066877,12.5797778 5.57655553,12.9978356 L5.55424723,13.0208106 L2.57525333,15.9998967 L5.55424723,18.9789828 C5.97080648,19.3955421 5.97080648,20.070918 5.55424723,20.4874773 C5.14526179,20.8964627 4.48678558,20.9038988 4.06872775,20.5097856 L4.04575277,20.4874773 L0.312419433,16.754144 C-0.104139811,16.3375847 -0.104139811,15.6622087 0.312419433,15.2456495 L4.04575277,11.5123162 L4.06872775,11.4900079 Z" id="Path" fill="#0070FF" fill-rule="nonzero"/>
        <path d="M11.5124194,18.9789828 C11.9214049,18.5699974 12.5798811,18.5625613 12.9979389,18.9566745 L13.0209139,18.9789828 L20.4875806,26.4456495 C20.896566,26.8546349 20.9040021,27.5131111 20.5098889,27.931169 L20.4875806,27.954144 L16.7542472,31.6874773 C16.5573283,31.8843962 16.3025713,31.9882262 16.0446596,31.9989672 L16.0148896,31.9997934 L15.9851104,31.9997934 C15.7287631,31.996237 15.4734533,31.9008329 15.2727744,31.7135809 L15.2457528,31.6874773 L11.5124194,27.954144 L11.4901111,27.931169 C11.0959979,27.5131111 11.103434,26.8546349 11.5124194,26.4456495 C11.9214049,26.036664 12.5798811,26.0292279 12.9979389,26.4233412 L13.0209139,26.4456495 L16,29.42464 L18.2247467,27.1998933 L11.5124194,20.4874773 L11.4901111,20.4645023 C11.0959979,20.0464445 11.103434,19.3879683 11.5124194,18.9789828 Z M11.5124194,11.5123162 C11.9214049,11.1033307 12.5798811,11.0958946 12.9979389,11.4900079 L13.0209139,11.5123162 L20.4875806,18.9789828 L20.5098889,19.0019578 C20.9040021,19.4200156 20.896566,20.0784918 20.4875806,20.4874773 C20.0785951,20.8964627 19.4201189,20.9038988 19.0020611,20.5097856 L18.9790861,20.4874773 L11.5124194,13.0208106 L11.4901111,12.9978356 C11.0959979,12.5797778 11.103434,11.9213016 11.5124194,11.5123162 Z M16.0148896,0 C16.2712369,0.00355639513 16.5265467,0.0989605602 16.7272256,0.286212495 L16.7542472,0.312316154 L20.4875806,4.04564949 L20.5098889,4.06862447 C20.9040021,4.4866823 20.896566,5.14515851 20.4875806,5.55414395 C20.0785951,5.96312939 19.4201189,5.97056549 19.0020611,5.57645225 L18.9790861,5.55414395 L16,2.57514667 L13.7752533,4.79989333 L20.4875806,11.5123162 L20.5098889,11.5352911 C20.9040021,11.953349 20.896566,12.6118252 20.4875806,13.0208106 C20.0785951,13.4297961 19.4201189,13.4372322 19.0020611,13.0431189 L18.9790861,13.0208106 L11.5124194,5.55414395 L11.4901111,5.53116897 C11.1032963,5.12085295 11.1032963,4.47894049 11.4901111,4.06862447 L11.5124194,4.04564949 L15.2457528,0.312316154 C15.4502455,0.107823434 15.7171109,0.00371804946 15.9851104,0 L16.0148896,0 Z" id="Shape" fill="#1B191B" fill-rule="nonzero"/>
    </g>
</svg>
