<svg width="37px" height="30px" viewBox="0 0 37 30" version="1.1">
    <g id="R1:-Admin" stroke="none" stroke-width="1" fill="none" fill-rule="evenodd">
        <g id="4.1.1.Admin.Settings" transform="translate(-14.000000, -9.000000)">
            <g id="left_nav_default">
                <g id="ic_nav_logo_short" transform="translate(14.000000, 9.000000)">
                    <path d="M0,0 L37,0 L37,1 L0,1 L0,0 Z M0,29 L37,29 L37,30 L0,30 L0,29 Z M4.65405492e-13,27 L4.65405492e-13,3 L5.31696428,3 C7.82590539,3 9.59597697,3.51338772 10.6272321,4.54017857 C11.6584873,5.56696942 12.1741071,7.33927312 12.1741071,9.85714284 L12.1741071,19.2857143 C12.1741071,21.919656 11.6495588,23.863833 10.6004464,25.1183035 C9.55133402,26.3727741 7.78126244,27 5.29017856,27 L4.65405492e-13,27 Z M3.42857142,24.4285714 L5.31696428,24.4285714 C5.87946709,24.4285714 6.36160512,24.3772326 6.76339284,24.2745535 C7.16518057,24.1718744 7.49107017,23.9843763 7.74107141,23.7120535 C7.99107266,23.4397307 8.18749927,23.1808048 8.33035713,22.9352678 C8.47321498,22.6897309 8.57366041,22.3080383 8.63169641,21.7901785 C8.68973242,21.2723188 8.72321423,20.8459838 8.73214284,20.5111607 C8.74107146,20.1763376 8.7455357,19.6562535 8.7455357,18.9508928 L8.7455357,10.7142857 C8.7455357,10.2767835 8.74330358,9.92857271 8.73883927,9.66964285 C8.73437496,9.41071298 8.72098224,9.10491247 8.6986607,8.75223213 C8.67633916,8.3995518 8.64285735,8.12053673 8.59821427,7.91517856 C8.55357119,7.70982039 8.49107182,7.47991198 8.41071427,7.22544642 C8.33035673,6.97098086 8.2299113,6.77232214 8.10937499,6.62946428 C7.98883867,6.48660642 7.84151871,6.33705435 7.6674107,6.18080357 C7.49330269,6.02455278 7.29241184,5.90848252 7.06473213,5.83258928 C6.83705242,5.75669604 6.57143008,5.69419667 6.26785713,5.64508928 C5.96428419,5.59598189 5.62500186,5.57142857 5.24999999,5.57142857 L3.42857142,5.57142857 L3.42857142,24.4285714 Z M30,27 L30,24.4285714 C30.7410751,24.4285714 31.3191944,24.3883932 31.734375,24.3080357 C32.1495556,24.2276781 32.4910701,24.0558049 32.7589286,23.7924107 C33.026787,23.5290165 33.2053567,23.1852699 33.2946429,22.7611607 C33.383929,22.3370514 33.4285714,21.7500037 33.4285714,21 L33.4285714,3 L36.8571428,3 L36.8571428,21 C36.8571428,22.0892911 36.785715,22.9888357 36.6428571,23.6986607 C36.4999993,24.4084857 36.2388412,25.0223188 35.859375,25.5401785 C35.4799088,26.0580383 34.9531284,26.4308024 34.2790178,26.6584821 C33.6049073,26.8861618 32.7500052,27 31.7142857,27 L30,27 Z" id="Combined-Shape" fill="#1B191B"></path>
                    <path d="M19.1043865,17.4453082 L21.7162687,17.4453082 L21.7162687,10.2493059 L19.1043865,17.4453082 Z M15,21.1765686 L15,17.4186563 L20.8634092,3 L26.3137146,3 L26.3137146,17.4453082 L28.5524708,17.4453082 L28.5524708,21.1765686 L26.3137146,21.1765686 L26.3137146,27 L21.7162687,27 L21.7162687,21.1765686 L15,21.1765686 Z" id="Drill4J-Copy" fill="#007FFF"></path>
                </g>
            </g>
        </g>
    </g>
</svg>