<?xml version="1.0" encoding="UTF-8"?>
<svg width="92px" height="89px" viewBox="0 0 92 89" version="1.1" xmlns="http://www.w3.org/2000/svg" xmlns:xlink="http://www.w3.org/1999/xlink">
    <g id="1.1.-Agent:-Key-pages" stroke="none" stroke-width="1" fill="none" fill-rule="evenodd">
        <g id="1.1.SG.Dashboard.Basic.1" transform="translate(-24.000000, -51.000000)">
            <g id="unicorn_service_group_default" transform="translate(24.000000, 51.000000)">
                <polygon id="Path" fill="#FFFFFF" points="63.3498038 5.79456039 54.6110541 10.8401689 45.8902117 5.80576073 37.1515801 10.8508649 28.4209199 5.81136089 19.4789916 10.9739856 19.4797191 21.0654261 10.7394958 26.1112364 10.7402454 36.2246386 1.98071652 41.2818871 1.98071652 51.6071365 10.7301327 56.6581543 10.729796 66.7053871 19.4505541 71.7399413 19.4498923 81.8314376 28.3918206 86.9940623 37.1321948 81.9484413 45.8708122 86.9940623 54.5726687 81.9706543 63.3208205 87.0218621 72.2627488 81.8592374 72.2635561 71.7451386 81.0215281 66.6885866 81.0220823 56.5969261 89.7610239 51.5513359 89.7610239 41.2260864 81.0322213 36.1853649 81.0312279 26.0944359 72.2926948 21.0486689 72.2917321 10.9571851"></polygon>
                <path d="M28.3918206,66.9209137 L19.9498923,71.7948633 L19.9498923,81.5427624 L28.3918206,86.416712 L36.8337489,81.5427624 L36.8337489,71.7948633 L28.3918206,66.9209137 Z M28.3918206,68.0756142 L35.8337489,72.3722135 L35.8337489,80.9654122 L28.3918206,85.2620115 L20.9498923,80.9654122 L20.9498923,72.3722135 L28.3918206,68.0756142 Z M19.6717243,51.7948633 L11.229796,56.6688128 L11.229796,66.416712 L19.6717243,71.2906616 L28.1136526,66.416712 L28.1136526,56.6688128 L19.6717243,51.7948633 Z M45.8708122,66.9209137 L37.4288839,71.7948633 L37.4288839,81.5427624 L45.8708122,86.416712 L54.3127405,81.5427624 L54.3127405,71.7948633 L45.8708122,66.9209137 Z M45.8708122,68.0756142 L53.3127405,72.3722135 L53.3127405,80.9654122 L45.8708122,85.2620115 L38.4288839,80.9654122 L38.4288839,72.3722135 L45.8708122,68.0756142 Z M19.6717243,52.9495638 L27.1136526,57.2461631 L27.1136526,65.8393617 L19.6717243,70.135961 L12.229796,65.8393617 L12.229796,57.2461631 L19.6717243,52.9495638 Z M10.9226448,36.6966126 L2.48071652,41.5705622 L2.48071652,51.3184614 L10.9226448,56.192411 L19.3645731,51.3184614 L19.3645731,41.5705622 L10.9226448,36.6966126 Z M63.3208205,66.9487135 L54.8788922,71.8226631 L54.8788922,81.5705622 L63.3208205,86.4445118 L71.7627488,81.5705622 L71.7627488,71.8226631 L63.3208205,66.9487135 Z M37.1345496,51.7780628 L28.6926213,56.6520123 L28.6926213,66.3999115 L37.1345496,71.2738611 L45.5764779,66.3999115 L45.5764779,56.6520123 L37.1345496,51.7780628 Z M63.3208205,68.103414 L70.7627488,72.4000133 L70.7627488,80.993212 L63.3208205,85.2898113 L55.8788922,80.993212 L55.8788922,72.4000133 L63.3208205,68.103414 Z M10.9226448,37.8513132 L18.3645731,42.1479125 L18.3645731,50.7411111 L10.9226448,55.0377104 L3.48071652,50.7411111 L3.48071652,42.1479125 L10.9226448,37.8513132 Z M37.1345496,52.9327633 L44.5764779,57.2293626 L44.5764779,65.8225612 L37.1345496,70.1191605 L29.6926213,65.8225612 L29.6926213,57.2293626 L37.1345496,52.9327633 Z M28.3950538,36.640812 L19.9531255,41.5147616 L19.9531255,51.2626607 L28.3950538,56.1366103 L36.8369821,51.2626607 L36.8369821,41.5147616 L28.3950538,36.640812 Z M54.6135412,51.7780628 L46.1716129,56.6520123 L46.1716129,66.3999115 L54.6135412,71.2738611 L63.0554695,66.3999115 L63.0554695,56.6520123 L54.6135412,51.7780628 Z M28.3950538,37.7955125 L35.8369821,42.0921119 L35.8369821,50.6853105 L28.3950538,54.9819098 L20.9531255,50.6853105 L20.9531255,42.0921119 L28.3950538,37.7955125 Z M54.6135412,52.9327633 L62.0554695,57.2293626 L62.0554695,65.8225612 L54.6135412,70.1191605 L47.1716129,65.8225612 L47.1716129,57.2293626 L54.6135412,52.9327633 Z M72.0795998,51.7780628 L63.6376715,56.6520123 L63.6376715,66.3999115 L72.0795998,71.2738611 L80.5215281,66.3999115 L80.5215281,56.6520123 L72.0795998,51.7780628 Z M19.6814241,21.5259619 L11.2394958,26.3999115 L11.2394958,36.1478107 L19.6814241,41.0217602 L28.1233524,36.1478107 L28.1233524,26.3999115 L19.6814241,21.5259619 Z M45.8740454,36.640812 L37.4321171,41.5147616 L37.4321171,51.2626607 L45.8740454,56.1366103 L54.3159737,51.2626607 L54.3159737,41.5147616 L45.8740454,36.640812 Z M72.0795998,52.9327633 L79.5215281,57.2293626 L79.5215281,65.8225612 L72.0795998,70.1191605 L64.6376715,65.8225612 L64.6376715,57.2293626 L72.0795998,52.9327633 Z M19.6814241,22.6806625 L27.1233524,26.9772618 L27.1233524,35.5704604 L19.6814241,39.8670597 L12.2394958,35.5704604 L12.2394958,26.9772618 L19.6814241,22.6806625 Z M45.8740454,37.7955125 L53.3159737,42.0921119 L53.3159737,50.6853105 L45.8740454,54.9819098 L38.4321171,50.6853105 L38.4321171,42.0921119 L45.8740454,37.7955125 Z M37.1345496,21.5035612 L28.6926213,26.3775108 L28.6926213,36.12541 L37.1345496,40.9993596 L45.5764779,36.12541 L45.5764779,26.3775108 L37.1345496,21.5035612 Z M63.353037,36.640812 L54.9111087,41.5147616 L54.9111087,51.2626607 L63.353037,56.1366103 L71.7949653,51.2626607 L71.7949653,41.5147616 L63.353037,36.640812 Z M37.1345496,22.6582618 L44.5764779,26.9548611 L44.5764779,35.5480597 L37.1345496,39.844659 L29.6926213,35.5480597 L29.6926213,26.9548611 L37.1345496,22.6582618 Z M63.353037,37.7955125 L70.7949653,42.0921119 L70.7949653,50.6853105 L63.353037,54.9819098 L55.9111087,50.6853105 L55.9111087,42.0921119 L63.353037,37.7955125 Z M80.8190956,36.640812 L72.3771673,41.5147616 L72.3771673,51.2626607 L80.8190956,56.1366103 L89.2610239,51.2626607 L89.2610239,41.5147616 L80.8190956,36.640812 Z M28.4209199,6.38871116 L19.9789916,11.2626607 L19.9789916,21.0105599 L28.4209199,25.8845095 L36.8628482,21.0105599 L36.8628482,11.2626607 L28.4209199,6.38871116 Z M54.6135412,21.5035612 L46.1716129,26.3775108 L46.1716129,36.12541 L54.6135412,40.9993596 L63.0554695,36.12541 L63.0554695,26.3775108 L54.6135412,21.5035612 Z M80.8190956,37.7955125 L88.2610239,42.0921119 L88.2610239,50.6853105 L80.8190956,54.9819098 L73.3771673,50.6853105 L73.3771673,42.0921119 L80.8190956,37.7955125 Z M28.4209199,7.5434117 L35.8628482,11.840011 L35.8628482,20.4332096 L28.4209199,24.7298089 L20.9789916,20.4332096 L20.9789916,11.840011 L28.4209199,7.5434117 Z M54.6135412,22.6582618 L62.0554695,26.9548611 L62.0554695,35.5480597 L54.6135412,39.844659 L47.1716129,35.5480597 L47.1716129,26.9548611 L54.6135412,22.6582618 Z M72.0892996,21.5091614 L63.6473713,26.383111 L63.6473713,36.1310102 L72.0892996,41.0049597 L80.5312279,36.1310102 L80.5312279,26.383111 L72.0892996,21.5091614 Z M45.8902117,6.383111 L37.4482834,11.2570606 L37.4482834,21.0049597 L45.8902117,25.8789093 L54.33214,21.0049597 L54.33214,11.2570606 L45.8902117,6.383111 Z M45.8902117,7.53781153 L53.33214,11.8344108 L53.33214,20.4276095 L45.8902117,24.7242088 L38.4482834,20.4276095 L38.4482834,11.8344108 L45.8902117,7.53781153 Z M72.0892996,22.663862 L79.5312279,26.9604613 L79.5312279,35.5536599 L72.0892996,39.8502592 L64.6473713,35.5536599 L64.6473713,26.9604613 L72.0892996,22.663862 Z M63.3498038,6.37191066 L54.9078755,11.2458602 L54.9078755,20.9937594 L63.3498038,25.867709 L71.7917321,20.9937594 L71.7917321,11.2458602 L63.3498038,6.37191066 Z M63.3498038,7.5266112 L70.7917321,11.8232105 L70.7917321,20.4164091 L63.3498038,24.7130084 L55.9078755,20.4164091 L55.9078755,11.8232105 L63.3498038,7.5266112 Z" id="Shape" fill="#8F9DA8" fill-rule="nonzero"></path>
                <path d="M18.4692918,9.2251343 L18.3307872,9.31283669 C17.7941594,9.68425102 17.4693547,10.29749 17.4692918,10.9569943 L17.4680698,19.8941181 L9.72971092,24.3624342 L9.59121761,24.4501386 C9.0546339,24.821558 8.72986096,25.4347691 8.72979603,26.094239 L8.72854325,35.0308141 L0.999829614,39.494134 C0.38112348,39.8514253 0,40.5116256 0,41.2260864 L0,51.5513359 L0.00785831171,51.7286916 C0.0651812535,52.3737943 0.432753197,52.9558762 0.99997622,53.283373 L8.73792287,57.7510601 L8.7394958,66.6886965 L8.74736304,66.8660425 C8.8047155,67.5111092 9.172282,68.0931477 9.73947585,68.4206259 L17.4964491,72.8992726 L17.4982751,81.859397 C17.4983321,82.5738711 17.8795223,83.2340511 18.4982751,83.5912882 L27.4402034,88.7539129 L27.5854279,88.8300195 C28.1754769,89.1090761 28.8690602,89.0836926 29.4402717,88.7538734 L37.1875958,84.2793391 L44.890303,88.7261658 L45.0355228,88.8022606 C45.6255507,89.0812726 46.3190882,89.0558761 46.8902679,88.7260807 L54.6280698,84.2571261 L62.3692979,88.7261677 C62.9880858,89.08338 63.750435,89.0833592 64.3692033,88.7261131 L73.3111316,83.5634884 L73.4496577,83.4757711 C73.9863652,83.1042914 74.3111749,82.4909169 74.3111316,81.8313064 L74.3102291,72.8936261 L82.0311716,68.4374704 L82.1697006,68.3497577 C82.7064204,67.9782952 83.03125,67.3649309 83.0312279,66.7053201 L83.0306506,57.8118391 L90.7802391,53.3392268 C91.3990797,52.9819715 91.7803074,52.3216959 91.7803074,51.6071365 L91.7803074,41.2818871 L91.7724488,41.104528 C91.7151236,40.459413 91.3475378,39.8773225 90.7802973,39.5498305 L83.0199312,35.0692726 L83.0215281,26.1113846 L83.0136811,25.9340076 C82.9563927,25.2888263 82.5887796,24.706665 82.0214746,24.3791547 L74.2804575,19.9100601 L74.2820323,10.9741298 C74.2820838,10.2595471 73.9008791,9.59922615 73.2820323,9.2419348 L64.340104,4.07931009 L64.1948996,4.003213 C63.6049333,3.72418752 62.9114526,3.74951673 62.3402744,4.07921173 L54.6097031,8.54131412 L46.8707903,4.07369729 L46.7255796,3.99759951 C46.1355879,3.71857324 45.4420803,3.74392559 44.8708975,4.07366069 L37.1502291,8.53061811 L29.4112631,4.06253439 C28.7924545,3.70524459 28.0300376,3.70523513 27.4112201,4.06250958 L18.4692918,9.2251343 Z M28.4112201,5.79456039 L37.1499698,10.8401689 L45.8708122,5.80576073 L54.6094438,10.8508649 L63.340104,5.81136089 L72.2820323,10.9739856 L72.2813048,21.0654261 L81.0215281,26.1112364 L81.0207785,36.2246386 L89.7803074,41.2818871 L89.7803074,51.6071365 L81.0308912,56.6581543 L81.0312279,66.7053871 L72.3104698,71.7399413 L72.3111316,81.8314376 L63.3692033,86.9940623 L54.6288291,81.9484413 L45.8902117,86.9940623 L37.1883552,81.9706543 L28.4402034,87.0218621 L19.4982751,81.8592374 L19.4974678,71.7451386 L10.7394958,66.6885866 L10.7389416,56.5969261 L2,51.5513359 L2,41.2260864 L10.7288026,36.1853649 L10.729796,26.0944359 L19.4683291,21.0486689 L19.4692918,10.9571851 L28.4112201,5.79456039 Z" id="Shape" fill="#1B191B" fill-rule="nonzero"></path>
                <g id="horse" transform="translate(5.834135, 0.000000)">
                    <path d="M62.9602558,8.93709327 L66.4575966,10.9571851 L66.4578008,16.0540093 L53.6960643,34.8387391 C55.9879066,38.5018014 62.361246,49.626327 63.5898154,51.7398779 C69.820718,62.4591181 68.652191,66.8271231 62.212766,69.4733968 C61.9946595,69.5630273 60.4071891,70.1911692 60.2544914,70.2546353 C55.7728674,72.1173438 45.9178788,67.1984066 44.8625292,62.9916692 C40.3235893,63.5480558 36.4166051,62.9189419 33.159128,61.0950288 L32.2728008,82.5110093 L31.2980593,81.9484413 L22.5576851,86.9940623 L13.6157568,81.8314376 L13.6164187,71.7399413 L4.89566058,66.7053871 L4.89599723,56.6581543 L0.560800803,54.1568591 C3.6117568,50.3821701 8.26175134,44.6704974 10.3381455,42.0290082 C16.1598454,34.6229203 21.2413839,30.1831379 26.1585771,27.890045 L26.1760265,27.8819146 C26.5669011,18.4697887 28.8331614,13.4978869 33.1416966,13.0765786 C35.6008835,12.8361081 37.1428235,13.8356528 37.8035683,16.0123153 C38.5342789,15.024776 39.6485884,14.4094151 41.1158582,14.1855505 C45.6396201,13.7424573 47.0737284,17.4482278 45.6578389,24.9159178 C52.8906132,18.2390683 58.6580916,12.9127879 62.9602558,8.93709327 Z" id="Combined-Shape" fill="#FFFFFF"></path>
                    <path d="M72.8413706,0 C74.5019338,0 75.3185546,1.12912646 75.1880481,3.05750558 C75.1808599,3.1637187 75.1455422,3.26610697 75.0857188,3.35416414 L53.6960643,34.8387391 C55.9879066,38.5018014 62.361246,49.626327 63.5898154,51.7398779 C69.820718,62.4591181 68.652191,66.8271231 62.212766,69.4733968 C61.9946595,69.5630273 60.4071891,70.1911692 60.2544914,70.2546353 C55.7728674,72.1173438 45.9178788,67.1984066 44.8625292,62.9916692 C40.3235893,63.5480558 36.4166051,62.9189419 33.159128,61.0950288 L32.845427,82.8552226 C32.8204269,83.2312639 32.4590053,83.4914235 32.0944731,83.3957763 C31.8830587,83.3403048 31.6713978,83.2804244 31.459536,83.2162741 L32.0877918,59.1198713 L33.7453849,60.047984 C36.7629053,61.7375416 40.4129589,62.3281188 44.7165252,61.8005845 L45.768554,61.6716261 L46.0264612,62.6996721 C46.9245174,66.2794209 56.072356,70.6933435 59.7939296,69.1465366 C59.8680538,69.1157282 60.0585861,69.039821 60.7968708,68.746361 C61.4111905,68.5021757 61.6741031,68.3973832 61.7566407,68.3634644 C67.7392062,65.9049366 68.1851384,62.0332081 62.5523557,52.3429346 C62.6530636,52.5161859 58.9519424,46.1018129 57.4279753,43.48167 L57.2979639,43.2581998 C55.165139,39.5931404 53.5771936,36.9111781 52.6787695,35.4752227 L52.2636637,34.8117571 L73.9995317,2.81757208 C74.0442699,1.74289321 73.7533854,1.28848896 73.069553,1.21190739 C73.0187347,1.25962952 72.9575907,1.31686606 72.8861104,1.38362797 C72.9017894,1.37400855 72.8929449,1.38085528 72.8844683,1.38781648 L72.8612559,1.40683685 C72.8346665,1.43166051 72.8067366,1.45771955 72.7774657,1.48501447 C72.4636342,1.77766034 71.9943576,2.21357723 71.3695977,2.79280269 C70.1204188,3.95093765 68.2489756,5.68261512 65.7552486,7.98785375 C61.0620746,12.3262942 54.1645427,18.6964996 45.0626395,27.0984826 L44.5562556,27.5659266 L43.8973115,27.3641317 C43.0604362,27.1078473 42.1947988,26.9807617 41.2814016,26.9807617 L41.0332697,26.980418 C40.5836173,26.9791097 40.1354237,26.9738065 39.2357795,26.9601404 C38.8236198,26.9538795 38.6626665,26.9515492 38.4549185,26.9488608 C38.0300347,26.9433624 37.6280387,26.9410585 37.2446754,26.9420239 L35.7287064,26.9458418 L36.0730129,25.4694849 C37.9804946,17.2903651 36.9161765,13.9132162 33.2584811,14.2708823 C29.7910107,14.6099474 27.746323,18.9902096 27.3749931,27.9317063 L27.3446846,28.6615237 L26.68248,28.9698047 L26.6657496,28.9776001 C21.8529456,31.222012 16.8964836,35.6275702 11.2815647,42.7706012 C8.58190571,46.2049781 3.00803444,53.0125236 1.0463765,55.5 L1.05326008,55.5243275 C0.621005647,55.0567628 0.285642126,54.743498 0.0578727017,54.6169052 C-0.0841741252,54.5379565 0.0665896881,54.2662746 0.175278272,54.1284705 C2.17182949,51.5970831 7.55945757,45.5639219 10.3381455,42.0290082 C16.1598454,34.6229203 21.2413839,30.1831379 26.1585771,27.890045 C26.1643953,27.8873317 26.1702118,27.8846216 26.1760265,27.8819146 C26.5669011,18.4697887 28.8331614,13.4978869 33.1416966,13.0765786 C38.0105182,12.600483 39.2839093,16.9850073 37.2416533,25.7420277 C37.6380214,25.7410295 38.0471246,25.7434831 38.4704464,25.7489613 C38.6880051,25.7517767 38.8597879,25.7542905 39.2540061,25.7602789 C40.2638225,25.7756185 40.7166559,25.7807617 41.2814016,25.7807617 C42.3116281,25.7807617 43.2957882,25.9249126 44.2486916,26.2167294 C53.3504208,17.8149071 60.24776,11.4448795 64.9406761,7.1066775 C67.4340512,4.80176414 69.3051002,3.07045129 70.553744,1.91281255 C71.1778071,1.33423304 71.6463034,0.899040661 71.9590779,0.607380548 L72.0686982,0.505082158 L72.0686982,0.505082158 L72.1257507,0.452206358 C72.1143214,0.462948809 72.1055608,0.471201368 72.0991297,0.477306345 L72.086,0.489 L72.1120477,0.469390061 C72.1730143,0.419001785 72.3127026,0.305568232 72.2836993,0.37863431 C72.3744295,0.150063968 72.5954511,0 72.8413706,0 Z" id="head_contour" fill="#1B191B" fill-rule="nonzero"></path>
                    <path d="M49.4845937,63.5930577 C50.1481559,65.5026455 51.8748162,67.3067179 54.6924449,68.9870846 C54.977047,69.1568145 55.0701694,69.5251234 54.9004394,69.8097256 C54.7307095,70.0943277 54.3624006,70.1874501 54.0777984,70.0177201 C51.0386563,68.2052482 49.1204598,66.2010524 48.3510793,63.9869423 C48.2423111,63.673931 48.4078828,63.332011 48.7208942,63.2232428 C49.0339055,63.1144746 49.3758255,63.2800463 49.4845937,63.5930577 Z M61.9177652,57.6 C63.0223347,57.6 63.9177652,58.4954305 63.9177652,59.6 C63.9177652,60.7045695 63.0223347,61.6 61.9177652,61.6 C60.8131957,61.6 59.9177652,60.7045695 59.9177652,59.6 C59.9177652,58.4954305 60.8131957,57.6 61.9177652,57.6 Z M61.9177652,58.8 C61.4759374,58.8 61.1177652,59.1581722 61.1177652,59.6 C61.1177652,60.0418278 61.4759374,60.4 61.9177652,60.4 C62.359593,60.4 62.7177652,60.0418278 62.7177652,59.6 C62.7177652,59.1581722 62.359593,58.8 61.9177652,58.8 Z M44.9177652,39.6 C47.1269042,39.6 48.9177652,41.390861 48.9177652,43.6 C48.9177652,45.809139 47.1269042,47.6 44.9177652,47.6 C42.7086262,47.6 40.9177652,45.809139 40.9177652,43.6 C40.9177652,41.390861 42.7086262,39.6 44.9177652,39.6 Z M44.9177652,40.8 C43.3713679,40.8 42.1177652,42.0536027 42.1177652,43.6 C42.1177652,45.1463973 43.3713679,46.4 44.9177652,46.4 C46.4641625,46.4 47.7177652,45.1463973 47.7177652,43.6 C47.7177652,42.0536027 46.4641625,40.8 44.9177652,40.8 Z M44.9177652,41.6 C46.0223347,41.6 46.9177652,42.4954305 46.9177652,43.6 C46.9177652,44.7045695 46.0223347,45.6 44.9177652,45.6 C43.8131957,45.6 42.9177652,44.7045695 42.9177652,43.6 C42.9177652,42.4954305 43.8131957,41.6 44.9177652,41.6 Z M72.8413706,2.59348099e-13 C74.5019338,2.59348099e-13 75.3185546,1.12912646 75.1880481,3.05750558 C75.1808599,3.1637187 75.1455422,3.26610697 75.0857188,3.35416414 L75.0857188,3.35416414 L52.5315196,36.5528946 L52.4177704,36.6779497 L51.6189423,37.3390825 C51.482183,37.4522683 51.3023224,37.499083 51.1277353,37.4669352 C46.2957908,36.5772014 43.337403,33.5128778 42.3297428,28.3766428 C42.2896319,28.1721901 42.3584572,27.9615655 42.5115548,27.8202472 C43.076581,27.2986938 43.6336051,26.7845159 44.1826271,26.2777136 C46.0022394,18.4280742 44.9586086,14.9150394 41.3195585,15.2708823 C39.6304619,15.529474 38.6227173,16.392509 38.2273749,17.9196871 C38.2107659,17.9838463 38.1843836,18.0428831 38.1502354,18.0956157 L38.1515564,18.1067321 C38.3046159,20.6229869 37.7681722,24.0570402 36.5676112,28.3646021 C36.4786456,28.683807 36.147758,28.8704528 35.8285531,28.7814872 C35.5093482,28.6925216 35.3227024,28.361634 35.411668,28.0424291 C37.6415867,20.0415756 37.487903,15.6562209 35.1512893,14.5362622 C33.3112642,16.554382 31.7031777,22.4500578 30.413437,32.1231131 C30.376941,32.3968331 30.1254612,32.5891412 29.8517412,32.5526452 C29.5780211,32.5161492 29.3857131,32.2646694 29.4222091,31.9909494 C30.6674244,22.6518341 32.1975532,16.769716 34.0848387,14.2606485 C33.8261504,14.2386812 33.5506827,14.2423095 33.2584811,14.2708823 C29.0364596,14.6837309 26.9752872,21.1590441 27.3603612,33.8855647 C27.3703831,34.2167839 27.1100012,34.4934146 26.778782,34.5034365 C26.4475627,34.5134584 26.1709321,34.2530765 26.1609102,33.9218572 C25.7575727,20.5917372 27.9893691,13.5803967 33.1416966,13.0765786 C35.5938493,12.8367959 37.133995,13.8299448 37.7978767,15.9936661 C38.5257167,14.9552959 39.6614867,14.3108538 41.1706702,14.0805943 C45.7076168,13.6362098 47.1368737,17.3649082 45.7001983,24.876352 C54.08704,17.1345916 60.5005318,11.2112135 64.9406761,7.1066775 C67.4340512,4.80176414 69.3051002,3.07045129 70.553744,1.91281255 C71.1778071,1.33423304 71.6463034,0.899040661 71.9590779,0.607380548 C72.0370192,0.534700724 72.1052445,0.470976815 72.1637167,0.416244095 L72.1727357,0.407 C71.9288955,0.637070699 72.2790132,0.30686234 72.2874586,0.360844033 L72.2836993,0.37863431 C72.3744295,0.150063968 72.5954511,2.59348099e-13 72.8413706,2.59348099e-13 Z" id="elements" fill="#1B191B" fill-rule="nonzero"></path>
                </g>
            </g>
        </g>
    </g>
</svg>