<svg xmlns="http://www.w3.org/2000/svg" xmlns:xlink="http://www.w3.org/1999/xlink" width="650px" height="668px" viewBox="0 0 650 668" version="1.1">
    <defs>
        <linearGradient x1="50%" y1="-2.48949813e-15%" x2="50%" y2="100%" id="linearGradient-1">
            <stop stop-color="#007FFF" stop-opacity="0.2" offset="0%"/>
            <stop stop-color="#FFFFFF" stop-opacity="0" offset="100%"/>
        </linearGradient>
        <linearGradient x1="-13.7761468%" y1="-8.57408083%" x2="50%" y2="100%" id="linearGradient-2">
            <stop stop-color="#007FFF" stop-opacity="0.2" offset="0%"/>
            <stop stop-color="#FFFFFF" stop-opacity="0" offset="100%"/>
        </linearGradient>
        <linearGradient x1="50%" y1="0%" x2="50%" y2="100%" id="linearGradient-3">
            <stop stop-color="#007FFF" stop-opacity="0.2" offset="0%"/>
            <stop stop-color="#FFFFFF" offset="100%"/>
        </linearGradient>
        <linearGradient x1="69.2600626%" y1="-4.98100838%" x2="33.2983226%" y2="85.3168121%" id="linearGradient-4">
            <stop stop-color="#007FFF" stop-opacity="0.2" offset="0%"/>
            <stop stop-color="#FFFFFF" stop-opacity="0" offset="100%"/>
        </linearGradient>
        <linearGradient x1="42.6641553%" y1="93.0413822%" x2="64.5900743%" y2="4.61783032%" id="linearGradient-5">
            <stop stop-color="#FFFFFF" offset="0%"/>
            <stop stop-color="#007FFF" offset="100%"/>
        </linearGradient>
        <linearGradient x1="46.2865552%" y1="107.926499%" x2="71.8924575%" y2="0%" id="linearGradient-6">
            <stop stop-color="#FFFFFF" offset="0%"/>
            <stop stop-color="#007FFF" offset="100%"/>
        </linearGradient>
        <linearGradient x1="20.9587417%" y1="66.7602167%" x2="108.473647%" y2="40.1663516%" id="linearGradient-7">
            <stop stop-color="#FFFFFF" stop-opacity="0" offset="0%"/>
            <stop stop-color="#007FFF" offset="100%"/>
        </linearGradient>
        <linearGradient x1="31.8856908%" y1="124.912197%" x2="66.3047087%" y2="0%" id="linearGradient-8">
            <stop stop-color="#FFFFFF" offset="0%"/>
            <stop stop-color="#007FFF" offset="100%"/>
        </linearGradient>
        <linearGradient x1="27.0168409%" y1="63.7906941%" x2="109.060032%" y2="36.2093059%" id="linearGradient-9">
            <stop stop-color="#FFFFFF" offset="0%"/>
            <stop stop-color="#007FFF" offset="100%"/>
        </linearGradient>
    </defs>
    <g id="Log-In---Illustration" stroke="none" stroke-width="1" fill="none" fill-rule="evenodd">
        <g id="Illustration.LogIn.1.1-Copy-2" transform="translate(-558.000000, -102.000000)">
            <g id="Group-7" transform="translate(559.000000, 95.000000)">
                <path d="M324,529.452207 C423.411255,529.452207 504,448.863462 504,349.452207 C504,250.040952 423.411255,169.452207 324,169.452207 C224.588745,169.452207 144,250.040952 144,349.452207 C144,448.863462 224.588745,529.452207 324,529.452207 Z" id="Oval" stroke-opacity="0.197470498" stroke="#007FFF" stroke-width="2" fill="url(#linearGradient-1)" opacity="0.600000024" stroke-linecap="round" stroke-linejoin="round" stroke-dasharray="2,6"/>
                <path d="M324,583.452207 C453.234631,583.452207 558,478.686838 558,349.452207 C558,220.217575 453.234631,115.452207 324,115.452207 C194.765369,115.452207 90,220.217575 90,349.452207 C90,478.686838 194.765369,583.452207 324,583.452207 Z" id="Oval-Copy-3" stroke="url(#linearGradient-3)" stroke-width="2" fill="url(#linearGradient-2)" opacity="0.600000024" stroke-linecap="round" stroke-linejoin="round" stroke-dasharray="2,6"/>
                <path d="M324,673.452207 C502.940259,673.452207 648,528.392466 648,349.452207 C648,170.511948 502.940259,25.4522067 324,25.4522067 C145.059741,25.4522067 0,170.511948 0,349.452207 C0,528.392466 145.059741,673.452207 324,673.452207 Z" id="Oval-Copy-4" stroke="url(#linearGradient-3)" stroke-width="2" fill="url(#linearGradient-4)" opacity="0.200000003" stroke-linecap="round" stroke-linejoin="round" stroke-dasharray="2,6"/>
                <g id="Group-3" transform="translate(126.000000, 150.452207)" fill-rule="nonzero">
                    <path d="M90,6.54779329 L61.6617647,6.54779329 C52.8252087,6.54779329 45.6617647,13.7112373 45.6617647,22.5477933 L45.6617647,172.547793 C45.6617647,181.384349 38.4983207,188.547793 29.6617647,188.547793 L-3.63797881e-12,188.547793 L-3.63797881e-12,188.547793" id="Path-4" stroke="url(#linearGradient-5)" stroke-width="4" stroke-linecap="round" stroke-linejoin="round"/>
                    <circle id="Oval" fill="#007FFF" cx="103" cy="6.54779329" r="6"/>
                </g>
                <g id="Group-3-Copy-4" transform="translate(470.000000, 451.452207) scale(-1, -1) translate(-470.000000, -451.452207) translate(413.000000, 380.452207)" fill-rule="nonzero">
                    <path d="M98,6.45220671 L85.4852941,6.45220671 C76.6487381,6.45220671 69.4852941,13.6156507 69.4852941,22.4522067 L69.4852941,125.452207 C69.4852941,134.288763 62.3218501,141.452207 53.4852941,141.452207 L3.63797881e-12,141.452207 L3.63797881e-12,141.452207" id="Path-4" stroke="url(#linearGradient-6)" stroke-width="4" stroke-linecap="round" stroke-linejoin="round"/>
                    <circle id="Oval" fill="#007FFF" cx="108" cy="6.45220671" r="6"/>
                </g>
                <g id="Group-3-Copy-2" transform="translate(352.500000, 177.452207) scale(-1, -1) rotate(-90.000000) translate(-352.500000, -177.452207) translate(285.500000, 148.952207)" fill-rule="nonzero">
                    <path d="M115.547793,6 L51.503551,6 C42.666995,6 35.503551,13.163444 35.503551,22 L35.503551,41 C35.503551,49.836556 28.340107,57 19.503551,57 L0.547793289,57 L0.547793289,57" id="Path-4" stroke="url(#linearGradient-7)" stroke-width="4" stroke-linecap="round" stroke-linejoin="round"/>
                    <circle id="Oval" fill="#007FFF" cx="127.547793" cy="6" r="6"/>
                </g>
                <g id="Group-3-Copy-3" transform="translate(444.500000, 297.452207) scale(1, -1) translate(-444.500000, -297.452207) translate(420.000000, 264.452207)" fill-rule="nonzero">
                    <path d="M31,6.45220671 L25.4228564,6.45220671 C16.5863004,6.45220671 9.42285643,13.6156507 9.42285643,22.4522067 L9.42285643,56.0293503 C9.42285643,61.2334502 5.20409991,65.4522067 -3.63797881e-12,65.4522067 L-3.63797881e-12,65.4522067 L-3.63797881e-12,65.4522067" id="Path-4" stroke="url(#linearGradient-8)" stroke-width="4" stroke-linecap="round" stroke-linejoin="round"/>
                    <circle id="Oval" fill="#007FFF" cx="43" cy="6.45220671" r="6"/>
                </g>
                <g id="Group-3-Copy-5" transform="translate(150.000000, 462.452207) scale(1, -1) translate(-150.000000, -462.452207) translate(73.000000, 423.452207)" fill-rule="nonzero">
                    <path d="M139,5.45220671 L58.2508724,5.45220671 C49.4143164,5.45220671 42.2508724,12.6156507 42.2508724,21.4522067 L42.2508724,62.4522067 C42.2508724,71.2887627 35.0874284,78.4522067 26.2508724,78.4522067 L-3.63797881e-12,78.4522067 L-3.63797881e-12,78.4522067" id="Path-4" stroke="url(#linearGradient-9)" stroke-width="4" stroke-linecap="round" stroke-linejoin="round"/>
                    <circle id="Oval" fill="#007FFF" cx="149" cy="5.45220671" r="6"/>
                </g>
                <g id="Group-2" transform="translate(230.000000, 252.452207)">
                    <rect id="Rectangle" stroke-opacity="0.428813374" stroke="#E3E6E8" fill="#FFFFFF" x="0.5" y="1.04779329" width="187" height="187" rx="8"/>
                    <path d="M8,0.547793289 L180,0.547793289 C184.418278,0.547793289 188,4.12951529 188,8.54779329 L188,19.5477933 L188,19.5477933 L-3.63797881e-12,19.5477933 L-3.63797881e-12,8.54779329 C-3.63851989e-12,4.12951529 3.581722,0.547793289 8,0.547793289 Z" id="Rectangle" fill="#007FFF"/>
                    <circle id="Oval" fill="#FFFFFF" cx="10" cy="10.5477933" r="3"/>
                    <circle id="Oval-Copy" fill="#FFFFFF" cx="19" cy="10.5477933" r="3"/>
                    <circle id="Oval-Copy-2" fill="#FFFFFF" cx="28" cy="10.5477933" r="3"/>
                    <rect id="Rectangle" fill="#FFFFFF" x="57" y="7.54779329" width="107" height="6" rx="3"/>
                </g>
                <path d="M376.076312,295.135836 C376.114943,295.33184 376.10101,295.534497 376.035943,295.723013 L352.771341,363.126202 C358.681799,368.65924 375.573663,385.74624 378.814853,388.984055 C395.25311,405.405194 395.268307,413.887453 384.945928,421.794609 C384.596304,422.062428 382.039827,423.967813 381.7954,424.156611 C374.621566,429.697777 354.467799,425.54126 350.522174,418.425474 C342.610528,421.626362 335.262236,422.373064 328.50442,420.640246 L335.734062,457.093943 C335.871644,457.787666 335.346508,458.433824 334.642946,458.436516 C334.178422,458.438293 333.712884,458.439139 333.246438,458.438964 L325.310087,417.178469 L328.727411,418.06301 C334.948387,419.673249 341.768757,418.991247 349.216801,415.97232 L351.037514,415.234328 L351.997707,416.97109 C353.165177,419.082767 356.182562,420.896037 359.867311,422.166654 C358.776685,421.254621 357.875845,420.178198 356.946656,418.834104 C356.585627,418.311866 356.730608,417.596878 357.270481,417.237132 C357.810354,416.877386 358.540679,417.009111 358.901709,417.531349 C360.760975,420.220822 364.019815,422.386595 368.704613,423.999961 C373.21391,424.368775 377.456151,423.827971 379.769131,422.034395 C379.886882,421.943087 380.191148,421.714326 381.370455,420.829123 C382.351746,420.092554 382.771573,419.776801 382.902877,419.675828 C392.324978,412.430196 391.361496,405.280812 376.998112,390.744339 L376.558861,390.301549 C376.307879,390.04652 366.980601,380.626938 363.088626,376.723163 L362.747528,376.381107 C357.595301,371.215559 353.674349,367.336961 351.286379,365.062636 C351.08106,364.867088 349.841805,368.890831 349.659344,368.719205 C339.030483,369.627553 332.124603,365.335765 328.941706,355.84384 L328.967031,355.798974 C329.089225,355.581303 329.619797,354.622292 329.810996,354.045823 C328.605264,354.093754 319.623853,356.28658 318.938059,356.47221 L316.226161,357.206266 L316.126605,354.369332 C315.575055,338.652521 312.032191,333.051355 305.657955,335.453072 C299.615223,337.729883 298.079049,346.637659 301.750163,362.997327 L302.049805,364.332625 L301.013876,365.208158 L300.987706,365.23029 C293.460605,371.600536 286.724305,381.950746 280.136728,397.570835 C276.969414,405.08099 268.489426,425.158933 266.184051,430.601481 C276.991191,450.186581 298.025894,456.167107 319.759618,458.07887 C296.757269,456.732192 274.051237,450.975738 264.035658,430.597146 C263.891438,430.301336 274.814874,404.851877 278.106791,397.102043 C285.003772,380.865166 292.007302,370.362794 299.757251,363.831091 C299.766421,363.823363 299.775589,363.815641 299.784756,363.807925 C295.917785,346.557832 297.588042,336.450684 305.149969,333.605937 C309.976865,331.790091 313.489118,333.339585 315.734893,338.070594 C318.109261,334.168113 323.725398,330.530862 327.869612,331.098303 C336.541967,332.9046 336.074837,340.663788 330.436124,352.149312 C330.925746,352.084292 331.311343,352.051312 331.553724,352.060269 C343.879644,332.434161 353.218795,317.555806 359.571133,307.425274 C365.923471,297.294743 365.478005,298.000795 367.166532,295.29925 C367.945529,294.0529 368.544927,293.092041 368.964561,292.416941 L369.065724,292.254119 C369.17092,292.084727 369.262951,291.936262 369.341769,291.808806 L369.349243,291.795937 C369.119386,292.17768 369.977422,290.829788 370.361133,290.726973 C373.354463,289.924912 375.37493,291.577241 376.076312,295.135836 Z M383.508752,402.34353 C384.048005,404.356051 382.867575,406.420952 380.872188,406.955614 C378.8768,407.490277 376.822068,406.292235 376.282815,404.279714 C375.743561,402.267193 376.923991,400.202292 378.919378,399.66763 C380.914766,399.132968 382.969498,400.331009 383.508752,402.34353 Z M379.407581,401.489626 C378.409887,401.756957 377.819672,402.789407 378.089299,403.795668 C378.358926,404.801929 379.386292,405.400949 380.383985,405.133618 C381.381679,404.866287 381.971894,403.833837 381.702267,402.827576 C381.432641,401.821315 380.405274,401.222295 379.407581,401.489626 Z M348.60025,380.452284 C349.678757,384.477326 347.317897,388.607127 343.327123,389.676452 C339.336348,390.745777 335.226883,388.349694 334.148376,384.324651 C333.069869,380.299609 335.430729,376.169808 339.421504,375.100483 C343.412278,374.031159 347.521743,376.427241 348.60025,380.452284 Z M339.909706,376.922479 C336.916625,377.724473 335.14598,380.821824 335.95486,383.840606 C336.763741,386.859387 339.845839,388.656449 342.83892,387.854456 C345.832001,387.052462 347.602646,383.955111 346.793766,380.93633 C345.984886,377.917548 342.902787,376.120486 339.909706,376.922479 Z M344.987282,381.420376 C345.526535,383.432897 344.346105,385.497797 342.350718,386.03246 C340.35533,386.567122 338.300598,385.369081 337.761345,383.35656 C337.222091,381.344038 338.402521,379.279138 340.397908,378.744475 C342.393296,378.209813 344.448028,379.407854 344.987282,381.420376 Z M327,333 C323.114367,333 318.493813,337.551825 316.612666,340.278038 C317.800645,343.814613 318.489227,348.599121 318.692278,354.584214 C319.185576,354.450696 324.248757,353.264133 327.945024,352.565984 C333.98436,339.897793 333.669118,333.952731 327,333 Z" id="Unicorn" fill="#007FFF" fill-rule="nonzero"/>
                <g id="Group-4" transform="translate(65.000000, 290.452207)" fill="#007FFF" fill-rule="nonzero">
                    <path d="M53,3.48447354 C53,33.1625017 53.2210486,36.7675768 53,68.330738 C53.1296288,70.8844355 54.3273807,72.8648189 56.5932556,74.2718884 C84.5499581,87.9237008 112.589918,101.414217 140.713135,114.743436 C143.197456,116.152011 144.954709,115.710584 145.984894,113.419156 L145.984894,48.8674564 C146.164268,45.437514 144.746198,43.0733272 141.730683,41.7748962 C113.369277,28.2652578 85.1866126,14.7231468 57.1826885,1.14856339 C54.3942295,-0.137455439 53,0.641181278 53,3.48447354 Z" id="Path-3" opacity="0.100000001"/>
                    <path d="M36,16.4844735 C36,46.1625017 36.2210486,49.7675768 36,81.330738 C36.1296288,83.8844355 37.3273807,85.8648189 39.5932556,87.2718884 C67.5499581,100.923701 95.5899179,114.414217 123.713135,127.743436 C126.197456,129.152011 127.954709,128.710584 128.984894,126.419156 L128.984894,61.8674564 C129.164268,58.437514 127.746198,56.0733272 124.730683,54.7748962 C96.3692774,41.2652578 68.1866126,27.7231468 40.1826885,14.1485634 C37.3942295,12.8625446 36,13.6411813 36,16.4844735 Z" id="Path-3-Copy" opacity="0.300000012"/>
                    <path d="M19,26.4844735 C19,56.1625017 19.2186717,59.7675768 19,91.330738 C19.1282349,93.8844355 20.3131078,95.8648189 22.5546184,97.2718884 C50.2107113,110.923701 77.9491661,124.414217 105.769983,137.743436 C108.227591,139.152011 109.965949,138.710584 110.985056,136.419156 L110.985056,71.8674564 C111.162502,68.437514 109.75968,66.0733272 106.77659,64.7748962 C78.7201454,51.2652578 50.84052,37.7231468 23.1377134,24.1485634 C20.3792378,22.8625446 19,23.6411813 19,26.4844735 Z" id="Path-3-Copy-2" opacity="0.5"/>
                    <path d="M-3.63797881e-12,39.4844735 C-3.63797881e-12,69.1625017 0.218671748,72.7675768 -3.63797881e-12,104.330738 C0.128234943,106.884435 1.31310776,108.864819 3.55461844,110.271888 C31.2107113,123.923701 58.9491661,137.414217 86.7699828,150.743436 C89.2275914,152.152011 90.9659491,151.710584 91.9850562,149.419156 L91.9850562,84.8674564 C92.1625018,81.437514 90.7596796,79.0733272 87.7765896,77.7748962 C59.7201454,64.2652578 31.84052,50.7231468 4.13771335,37.1485634 C1.37923778,35.8625446 -3.63797881e-12,36.6411813 -3.63797881e-12,39.4844735 Z" id="Path-3-Copy-3" opacity="0.699999988"/>
                </g>
                <g id="Group-5" transform="translate(244.000000, 431.452207)" fill-rule="nonzero">
                    <rect id="Rectangle" stroke="#007FFF" stroke-width="4" fill="#007FFF" x="2" y="2" width="156" height="100" rx="16"/>
                    <path d="M77.7484542,54.2175977 L83.3656854,59.8343651 C83.6724245,60.1411062 83.6780016,60.6349666 83.3824166,60.948512 L80.5656854,63.7657614 C80.4179962,63.9134515 80.2269285,63.9913245 80.0334947,63.9993803 L80.0111672,64 L79.9888328,64 C79.7965723,63.9973327 79.60509,63.9257791 79.4545808,63.7853392 L76.6175834,60.948512 C76.3219984,60.6349666 76.3275755,60.1411062 76.6343146,59.8343651 C76.9410537,59.5276241 77.4349108,59.522047 77.7484542,59.8176338 L77.7656854,59.8343651 L80,62.0686225 L81.66856,60.4000517 L76.6343146,55.3657072 L76.6175834,55.3484758 C76.3219984,55.0349304 76.3275755,54.5410701 76.6343146,54.234329 C76.9410537,53.9275879 77.4349108,53.9220108 77.7484542,54.2175977 Z M88.9484542,48.6175615 L91.7656854,51.4343109 C92.0724245,51.741052 92.0780016,52.2349123 91.7824166,52.5484577 L88.9484542,55.3824385 C88.6349108,55.6780253 88.1410537,55.6724482 87.8343146,55.3657072 C87.5275755,55.0589661 87.5219984,54.5651057 87.8175834,54.2515603 L90.06856,52 L87.8343146,49.765671 C87.5218951,49.4532496 87.5218951,48.9467143 87.8343146,48.6342928 C88.1410537,48.3275518 88.6349108,48.3219747 88.9484542,48.6175615 Z M72.1656854,48.6342928 C72.4724245,48.9410339 72.4780016,49.4348943 72.1824166,49.7484397 L72.1656854,49.765671 L69.93144,52 L72.1656854,54.234329 C72.4781049,54.5467504 72.4781049,55.0532857 72.1656854,55.3657072 C71.8589463,55.6724482 71.3650892,55.6780253 71.0515458,55.3824385 L68.2343146,52.5656891 C67.9218951,52.2532676 67.9218951,51.7467324 68.2343146,51.4343109 L71.0515458,48.6175615 C71.3650892,48.3219747 71.8589463,48.3275518 72.1656854,48.6342928 Z M77.7484542,48.6175615 L83.3824166,54.2515603 C83.6780016,54.5651057 83.6724245,55.0589661 83.3656854,55.3657072 C83.0589463,55.6724482 82.5650892,55.6780253 82.2515458,55.3824385 L76.6175834,49.7484397 C76.3219984,49.4348943 76.3275755,48.9410339 76.6343146,48.6342928 C76.9410537,48.3275518 77.4349108,48.3219747 77.7484542,48.6175615 Z M80.0111672,40 C80.2034277,40.0026673 80.39491,40.0742209 80.5454192,40.2146608 L83.3824166,43.051488 C83.6780016,43.3650334 83.6724245,43.8588938 83.3656854,44.1656349 C83.0589463,44.4723759 82.5650892,44.477953 82.2515458,44.1823662 L80,41.9313725 L78.33144,43.5999432 L83.3656854,48.6342928 L83.3824166,48.6515242 C83.6780016,48.9650696 83.6724245,49.4589299 83.3656854,49.765671 C83.0589463,50.0724121 82.5650892,50.0779892 82.2515458,49.7824023 L76.6175834,44.1484035 C76.3274722,43.8406645 76.3274722,43.359227 76.6175834,43.051488 L79.4343146,40.2342386 C79.5876841,40.0808681 79.7878332,40.0027886 79.9888328,40 L80.0111672,40 Z" id="Combined-Shape" fill="#FFFFFF"/>
                </g>
                <line x1="485" y1="535.702207" x2="163" y2="535.702207" id="Path" stroke="#007FFF" stroke-width="8" stroke-linecap="round" stroke-linejoin="round"/>
                <path d="M481,202.927708 C481,232.515063 481.218672,323.460475 481,354.927204 C481.128235,357.473099 482.313108,359.447432 484.554618,360.850202 C512.210711,374.460305 539.949166,387.909605 567.769983,401.1981 C570.227591,402.602371 571.965949,402.162293 572.985056,399.877866 L572.985056,248.172035 C573.162502,244.752572 571.75968,242.395609 568.77659,241.101145 C540.720145,227.632781 512.84052,214.132045 485.137713,200.598935 C482.379238,199.316845 481,200.093103 481,202.927708 Z" id="Path-3-Copy-4" fill="#007FFF" fill-rule="nonzero" opacity="0.600000024" transform="translate(527.000000, 301.000000) scale(-1, 1) translate(-527.000000, -301.000000) "/>
                <g id="Group-6-Copy" opacity="0.5" transform="translate(292.500000, 27.500000) rotate(-38.000000) translate(-292.500000, -27.500000) translate(280.000000, 13.000000)" fill="#007FFF" fill-rule="nonzero">
                    <polygon id="Path-5" opacity="0.400000006" points="-7.85803422e-13 6.696 12.096 13.4630886 12.096 28.08 -7.85803422e-13 21.3129114"/>
                    <polygon id="Path-6" opacity="0.200000003" points="12.096 0 -7.85803422e-13 6.696 12.096 13.392 24.192 6.696"/>
                    <polygon id="Path-7" opacity="0.600000024" points="24.192 21.3129114 24.192 6.696 12.096 13.4630886 12.096 28.08"/>
                </g>
                <g id="Group-6-Copy-2" opacity="0.400000006" transform="translate(592.000000, 83.000000) rotate(-13.000000) translate(-592.000000, -83.000000) translate(577.000000, 66.000000)" fill="#007FFF" fill-rule="nonzero">
                    <polygon id="Path-5" points="-9.42964107e-13 8.0352 14.5152 16.1557063 14.5152 33.696 -9.42964107e-13 25.5754937"/>
                    <polygon id="Path-6" opacity="0.200000003" points="14.5152 0 -9.42964107e-13 8.0352 14.5152 16.0704 29.0304 8.0352"/>
                    <polygon id="Path-7" opacity="0.600000024" points="29.0304 25.5754937 29.0304 8.0352 14.5152 16.1557063 14.5152 33.696"/>
                </g>
                <g id="Group-6-Copy-4" transform="translate(194.500000, 224.000000) rotate(105.000000) translate(-194.500000, -224.000000) translate(186.000000, 214.000000)" fill="#007FFF" fill-rule="nonzero">
                    <polygon id="Path-5" opacity="0.400000006" points="-5.50062396e-13 4.6872 8.4672 9.42416203 8.4672 19.656 -5.50062396e-13 14.919038"/>
                    <polygon id="Path-6" opacity="0.200000003" points="8.4672 0 -5.50062396e-13 4.6872 8.4672 9.3744 16.9344 4.6872"/>
                    <polygon id="Path-7" opacity="0.600000024" points="16.9344 14.919038 16.9344 4.6872 8.4672 9.42416203 8.4672 19.656"/>
                </g>
                <g id="Group-6-Copy-3" opacity="0.699999988" transform="translate(390.000000, 126.500000) rotate(47.000000) translate(-390.000000, -126.500000) translate(369.000000, 102.000000)" fill="#007FFF" fill-rule="nonzero">
                    <polygon id="Path-5" opacity="0.400000006" points="-1.36205927e-12 11.6064 20.9664 23.3360203 20.9664 48.672 -1.36205927e-12 36.9423797"/>
                    <polygon id="Path-6" opacity="0.200000003" points="20.9664 0 -1.36205927e-12 11.6064 20.9664 23.2128 41.9328 11.6064"/>
                    <polygon id="Path-7" opacity="0.600000024" points="41.9328 36.9423797 41.9328 11.6064 20.9664 23.3360203 20.9664 48.672"/>
                </g>
                <g id="Group-6-Copy-7" opacity="0.800000012" transform="translate(534.500000, 453.000000) rotate(-34.000000) translate(-534.500000, -453.000000) translate(518.000000, 434.000000)" fill="#007FFF" fill-rule="nonzero">
                    <polygon id="Path-5" opacity="0.400000006" points="-1.0477379e-12 8.928 16.128 17.9507848 16.128 37.44 -1.0477379e-12 28.4172152"/>
                    <polygon id="Path-6" opacity="0.200000003" points="16.128 0 -1.0477379e-12 8.928 16.128 17.856 32.256 8.928"/>
                    <polygon id="Path-7" opacity="0.600000024" points="32.256 28.4172152 32.256 8.928 16.128 17.9507848 16.128 37.44"/>
                </g>
                <g id="Group-6-Copy-9" opacity="0.600000024" transform="translate(114.110105, 246.870318) rotate(-33.000000) translate(-114.110105, -246.870318) translate(98.610105, 228.870318)" fill="#007FFF" fill-rule="nonzero">
                    <polygon id="Path-5" opacity="0.400000006" points="-9.90112312e-13 8.51365964 15.24096 17.1177052 15.24096 35.7024436 -9.90112312e-13 27.0983981"/>
                    <polygon id="Path-6" opacity="0.200000003" points="15.24096 0 -9.90112312e-13 8.51365964 15.24096 17.0273193 30.48192 8.51365964"/>
                    <polygon id="Path-7" points="30.48192 27.0983981 30.48192 8.51365964 15.24096 17.1177052 15.24096 35.7024436"/>
                </g>
                <g id="Group-6" transform="translate(288.000000, 148.000000) rotate(-10.000000) translate(-288.000000, -148.000000) translate(243.000000, 96.000000)" fill="#007FFF" fill-rule="nonzero">
                    <polygon id="Path-5" opacity="0.400000006" points="-2.91038305e-12 24.8 44.8 49.8632911 44.8 104 -2.91038305e-12 78.9367089"/>
                    <polygon id="Path-6" opacity="0.200000003" points="44.8 0 -2.91038305e-12 24.8 44.8 49.6 89.6 24.8"/>
                    <polygon id="Path-7" opacity="0.600000024" points="89.6 78.9367089 89.6 24.8 44.8 49.8632911 44.8 104"/>
                </g>
                <g id="Group-8-Copy-3" opacity="0.900000036" transform="translate(211.500000, 88.000000) rotate(40.000000) translate(-211.500000, -88.000000) translate(185.000000, 60.000000)" fill-rule="nonzero">
                    <g id="Group-6" opacity="0.600000024" transform="translate(26.387079, 28.374831) rotate(-23.000000) translate(-26.387079, -28.374831) translate(6.887079, 6.874831)" fill="#007FFF" stroke="#FFFFFF" stroke-width="0.6">
                        <path d="M28.8,17.7464102 L20.7861561,22.3732051 L20.7861561,31.6267949 L28.8,36.2535898 L36.8138439,31.6267949 L36.8138439,22.3732051 L28.8,17.7464102 Z" id="Polygon-Copy-15"/>
                        <path d="M9.6,17.7464102 L1.58615612,22.3732051 L1.58615612,31.6267949 L9.6,36.2535898 L17.6138439,31.6267949 L17.6138439,22.3732051 L9.6,17.7464102 Z" id="Polygon-Copy-16"/>
                        <path d="M19.2,0.346410162 L11.1861561,4.97320508 L11.1861561,14.2267949 L19.2,18.8535898 L27.2138439,14.2267949 L27.2138439,4.97320508 L19.2,0.346410162 Z" id="Polygon-Copy-17"/>
                        <path d="M19.2,23.7464102 L11.1861561,28.3732051 L11.1861561,37.6267949 L19.2,42.2535898 L27.2138439,37.6267949 L27.2138439,28.3732051 L19.2,23.7464102 Z" id="Polygon-Copy-18"/>
                        <path d="M28.8,6.34641016 L20.7861561,10.9732051 L20.7861561,20.2267949 L28.8,24.8535898 L36.8138439,20.2267949 L36.8138439,10.9732051 L28.8,6.34641016 Z" id="Polygon-Copy-19"/>
                        <path d="M9.6,6.34641016 L1.58615612,10.9732051 L1.58615612,20.2267949 L9.6,24.8535898 L17.6138439,20.2267949 L17.6138439,10.9732051 L9.6,6.34641016 Z" id="Polygon-Copy-20"/>
                        <path d="M19.2,12.3464102 L11.1861561,16.9732051 L11.1861561,26.2267949 L19.2,30.8535898 L27.2138439,26.2267949 L27.2138439,16.9732051 L19.2,12.3464102 Z" id="Polygon-Copy-21"/>
                    </g>
                    <polygon id="Path-6" fill="#FFFFFF" opacity="0.600000024" transform="translate(22.079055, 18.997799) rotate(-17.000000) translate(-22.079055, -18.997799) " points="20.670553 8.53083738 4.4 20.7057749 23.4724982 29.4647597 39.7581106 16.7513975"/>
                    <polygon id="Path-6-Copy" fill="#FFFFFF" opacity="0.300000012" transform="translate(19.871855, 36.600000) rotate(-17.000000) translate(-19.871855, -36.600000) " points="9.44994148 22.1202304 11.9863134 42.5546822 30.2937677 51.0797696 28.5224396 30.8792152"/>
                </g>
                <g id="Group-8-Copy-5" transform="translate(439.500000, 211.500000) rotate(32.000000) translate(-439.500000, -211.500000) translate(421.000000, 192.000000)" fill-rule="nonzero">
                    <g id="Group-6" opacity="0.600000024" transform="translate(18.313343, 19.874966) rotate(-23.000000) translate(-18.313343, -19.874966) translate(4.813343, 4.874966)" fill="#007FFF" stroke="#FFFFFF" stroke-width="0.5">
                        <path d="M20.16,12.4686751 L14.5903093,15.6843376 L14.5903093,22.1156624 L20.16,25.3313249 L25.7296907,22.1156624 L25.7296907,15.6843376 L20.16,12.4686751 Z" id="Polygon-Copy-15"/>
                        <path d="M6.72,12.4686751 L1.15030929,15.6843376 L1.15030929,22.1156624 L6.72,25.3313249 L12.2896907,22.1156624 L12.2896907,15.6843376 L6.72,12.4686751 Z" id="Polygon-Copy-16"/>
                        <path d="M13.44,0.288675135 L7.87030929,3.50433757 L7.87030929,9.93566243 L13.44,13.1513249 L19.0096907,9.93566243 L19.0096907,3.50433757 L13.44,0.288675135 Z" id="Polygon-Copy-17"/>
                        <path d="M13.44,16.6686751 L7.87030929,19.8843376 L7.87030929,26.3156624 L13.44,29.5313249 L19.0096907,26.3156624 L19.0096907,19.8843376 L13.44,16.6686751 Z" id="Polygon-Copy-18"/>
                        <path d="M20.16,4.48867513 L14.5903093,7.70433757 L14.5903093,14.1356624 L20.16,17.3513249 L25.7296907,14.1356624 L25.7296907,7.70433757 L20.16,4.48867513 Z" id="Polygon-Copy-19"/>
                        <path d="M6.72,4.48867513 L1.15030929,7.70433757 L1.15030929,14.1356624 L6.72,17.3513249 L12.2896907,14.1356624 L12.2896907,7.70433757 L6.72,4.48867513 Z" id="Polygon-Copy-20"/>
                        <path d="M13.44,8.68867513 L7.87030929,11.9043376 L7.87030929,18.3356624 L13.44,21.5513249 L19.0096907,18.3356624 L19.0096907,11.9043376 L13.44,8.68867513 Z" id="Polygon-Copy-21"/>
                    </g>
                    <polygon id="Path-6" fill="#FFFFFF" opacity="0.600000024" transform="translate(15.455339, 13.298459) rotate(-17.000000) translate(-15.455339, -13.298459) " points="14.4693871 5.97158616 3.08 14.4940424 16.4307487 20.6253318 27.8306774 11.7259783"/>
                    <polygon id="Path-6-Copy" fill="#FFFFFF" opacity="0.300000012" transform="translate(13.910298, 25.620000) rotate(-17.000000) translate(-13.910298, -25.620000) " points="6.61495903 15.4841613 8.39041937 29.7882775 21.2056374 35.7558387 19.9657077 21.6154506"/>
                </g>
                <g id="Group-8-Copy-6" transform="translate(190.500000, 469.500000) rotate(43.000000) translate(-190.500000, -469.500000) translate(168.000000, 446.000000)" fill-rule="nonzero">
                    <g id="Group-6" opacity="0.600000024" transform="translate(22.252163, 23.732740) rotate(-23.000000) translate(-22.252163, -23.732740) translate(5.752163, 5.732740)" fill="#007FFF" stroke="#FFFFFF" stroke-width="0.6">
                        <path d="M24.192,14.9624102 L17.5083711,18.8212051 L17.5083711,26.5387949 L24.192,30.3975898 L30.8756289,26.5387949 L30.8756289,18.8212051 L24.192,14.9624102 Z" id="Polygon-Copy-15"/>
                        <path d="M8.064,14.9624102 L1.38037114,18.8212051 L1.38037114,26.5387949 L8.064,30.3975898 L14.7476289,26.5387949 L14.7476289,18.8212051 L8.064,14.9624102 Z" id="Polygon-Copy-16"/>
                        <path d="M16.128,0.346410162 L9.44437114,4.20520508 L9.44437114,11.9227949 L16.128,15.7815898 L22.8116289,11.9227949 L22.8116289,4.20520508 L16.128,0.346410162 Z" id="Polygon-Copy-17"/>
                        <path d="M16.128,20.0024102 L9.44437114,23.8612051 L9.44437114,31.5787949 L16.128,35.4375898 L22.8116289,31.5787949 L22.8116289,23.8612051 L16.128,20.0024102 Z" id="Polygon-Copy-18"/>
                        <path d="M24.192,5.38641016 L17.5083711,9.24520508 L17.5083711,16.9627949 L24.192,20.8215898 L30.8756289,16.9627949 L30.8756289,9.24520508 L24.192,5.38641016 Z" id="Polygon-Copy-19"/>
                        <path d="M8.064,5.38641016 L1.38037114,9.24520508 L1.38037114,16.9627949 L8.064,20.8215898 L14.7476289,16.9627949 L14.7476289,9.24520508 L8.064,5.38641016 Z" id="Polygon-Copy-20"/>
                        <path d="M16.128,10.4264102 L9.44437114,14.2852051 L9.44437114,22.0027949 L16.128,25.8615898 L22.8116289,22.0027949 L22.8116289,14.2852051 L16.128,10.4264102 Z" id="Polygon-Copy-21"/>
                    </g>
                    <polygon id="Path-6" fill="#FFFFFF" opacity="0.600000024" transform="translate(18.546406, 15.958151) rotate(-17.000000) translate(-18.546406, -15.958151) " points="17.3632645 7.1659034 3.696 17.3928509 19.7168984 24.7503981 33.3968129 14.0711739"/>
                    <polygon id="Path-6-Copy" fill="#FFFFFF" opacity="0.300000012" transform="translate(16.692358, 30.744000) rotate(-17.000000) translate(-16.692358, -30.744000) " points="7.93795084 18.5809936 10.0685032 35.745933 25.4467649 42.9070064 23.9588493 25.9385408"/>
                </g>
                <g id="Group-8-Copy-4" transform="translate(419.000000, 16.500000) rotate(-97.000000) translate(-419.000000, -16.500000) translate(405.000000, 2.000000)" fill-rule="nonzero">
                    <g id="Group-6" opacity="0.600000024" transform="translate(13.521349, 14.319859) rotate(-23.000000) translate(-13.521349, -14.319859) translate(3.521349, 3.319859)" fill="#007FFF" stroke="#FFFFFF" stroke-width="0.5">
                        <path d="M14.4,8.98867513 L10.4930781,11.2443376 L10.4930781,15.7556624 L14.4,18.0113249 L18.3069219,15.7556624 L18.3069219,11.2443376 L14.4,8.98867513 Z" id="Polygon-Copy-15"/>
                        <path d="M4.8,8.98867513 L0.893078062,11.2443376 L0.893078062,15.7556624 L4.8,18.0113249 L8.70692194,15.7556624 L8.70692194,11.2443376 L4.8,8.98867513 Z" id="Polygon-Copy-16"/>
                        <path d="M9.6,0.288675135 L5.69307806,2.54433757 L5.69307806,7.05566243 L9.6,9.31132487 L13.5069219,7.05566243 L13.5069219,2.54433757 L9.6,0.288675135 Z" id="Polygon-Copy-17"/>
                        <path d="M9.6,11.9886751 L5.69307806,14.2443376 L5.69307806,18.7556624 L9.6,21.0113249 L13.5069219,18.7556624 L13.5069219,14.2443376 L9.6,11.9886751 Z" id="Polygon-Copy-18"/>
                        <path d="M14.4,3.28867513 L10.4930781,5.54433757 L10.4930781,10.0556624 L14.4,12.3113249 L18.3069219,10.0556624 L18.3069219,5.54433757 L14.4,3.28867513 Z" id="Polygon-Copy-19"/>
                        <path d="M4.8,3.28867513 L0.893078062,5.54433757 L0.893078062,10.0556624 L4.8,12.3113249 L8.70692194,10.0556624 L8.70692194,5.54433757 L4.8,3.28867513 Z" id="Polygon-Copy-20"/>
                        <path d="M9.6,6.28867513 L5.69307806,8.54433757 L5.69307806,13.0556624 L9.6,15.3113249 L13.5069219,13.0556624 L13.5069219,8.54433757 L9.6,6.28867513 Z" id="Polygon-Copy-21"/>
                    </g>
                    <polygon id="Path-6" fill="#FFFFFF" opacity="0.600000024" transform="translate(11.039528, 9.498899) rotate(-17.000000) translate(-11.039528, -9.498899) " points="10.3352765 4.26541869 2.2 10.3528875 11.7362491 14.7323798 19.8790553 8.37569877"/>
                    <polygon id="Path-6-Copy" fill="#FFFFFF" opacity="0.300000012" transform="translate(9.935927, 18.300000) rotate(-17.000000) translate(-9.935927, -18.300000) " points="4.72497074 11.0601152 5.99315669 21.2773411 15.1468839 25.5398848 14.2612198 15.4396076"/>
                </g>
            </g>
        </g>
    </g>
</svg>
