<svg width="641px" height="515px" viewBox="0 0 641 515" version="1.1">
    <!-- Generator: sketchtool 53 (72520) - https://sketchapp.com -->
    <title>BAE35789-92AF-44F4-BB61-EC71F0DB53A4</title>
    <desc>Created with sketchtool.</desc>
    <g id="R1:-Admin" stroke="none" stroke-width="1" fill="none" fill-rule="evenodd">
        <g id="9.1.1.Admin.Auth.SignIn" transform="translate(-569.000000, -155.000000)">
            <g id="drawkit-server-woman-monochrome" transform="translate(569.000000, 155.000000)">
                <path d="M100,367.5 L100,145.93125 L61.875,145.93125 L61.875,316.80625 C77.775,327.225 90.6625,347.44375 100,367.5 Z" id="Path" fill="#DFDFDF" fill-rule="nonzero"></path>
                <path d="M61.875,442.3875 L61.875,461.7625 L73.2375,461.7625 C68.7654403,455.730795 64.9559755,449.235008 61.875,442.3875 L61.875,442.3875 Z" id="Path" fill="#DFDFDF" fill-rule="nonzero"></path>
                <path d="M99.55,145.93125 L99.55,366.55625 C108.39375,385.30625 114.1375,404.1 116.3625,414.68125 C120.01875,432.0875 132.33125,443.43125 132.33125,461.01875 C132.33125,461.275 132.33125,461.51875 132.33125,461.775 L263.58125,461.775 L263.58125,145.93125 L99.55,145.93125 Z" id="Path" fill="#F3F3F3" fill-rule="nonzero"></path>
                <polyline id="Path" stroke="#DFDFDF" stroke-width="4" points="64.65625 164.40625 46.25 164.40625 46.25 310.25"></polyline>
                <polyline id="Path" stroke="#DFDFDF" stroke-width="4" points="345.98125 60.44375 345.98125 266.6 351.95625 266.6"></polyline>
                <path d="M541.16875,492.8375 L502.0875,427.075" id="Path" stroke="#000000" stroke-width="4" stroke-linecap="round" stroke-linejoin="round"></path>
                <path d="M558.78125,492.8375 L519.84375,427.3125" id="Path" stroke="#000000" stroke-width="4" stroke-linecap="round" stroke-linejoin="round"></path>
                <path d="M432.19375,487.69375 L468.13125,427.21875" id="Path" stroke="#000000" stroke-width="4" stroke-linecap="round" stroke-linejoin="round"></path>
                <polyline id="Path" stroke="#000000" stroke-width="2.5" stroke-linecap="round" stroke-linejoin="round" points="527 280.5 582.55 280.5 542.21875 426.64375 439.91875 426.64375 439.91875 421.4375 515.7875 421.4375 517.4125 387.38125"></polyline>
                <path d="M404.1125,376.4125 C395.70625,376.4125 353.75,474.09375 353.75,477.6625 C353.75,481.23125 362.85625,485.28125 364.2,485.28125 C366.29375,483.3375 406.45625,425.28125 410.6375,421.23125 C414.81875,417.18125 404.1125,376.4125 404.1125,376.4125 Z" id="Path" fill="#000000" fill-rule="nonzero"></path>
                <path d="M427.63125,327.76875 C425.070957,325.708391 421.866951,324.615312 418.58125,324.68125 C411.9,324.68125 406.48125,328.7875 406.48125,333.85" id="Path" stroke="#000000" stroke-width="2.5" stroke-linecap="round" stroke-linejoin="round"></path>
                <path d="M465.875,308.30625 C461.64375,312.175 456.075,318.75625 453.4375,326.43125" id="Path" stroke="#000000" stroke-width="2.5" stroke-linecap="round" stroke-linejoin="round"></path>
                <path d="M488.575,286.5 C487.125995,285.866448 485.56836,285.51842 483.9875,285.475 C475.4125,285.475 460.90625,301.1 460.90625,303.0625 C460.90625,304.775 468.73125,311.51875 476.04375,313.65" id="Path" stroke="#000000" stroke-width="2.5" stroke-linecap="round" stroke-linejoin="round"></path>
                <path d="M474.0375,329 C475.61875,305.98125 482.68125,284.05625 502.0125,278.20625" id="Path" stroke="#000000" stroke-width="2.5" stroke-linecap="round" stroke-linejoin="round"></path>
                <path d="M545.2625,309.9375 C553.925,342.5625 548.025,387.86875 544.1,390.80625 C537.93125,395.4375 484.1,395.85625 480.59375,391.23125 C479.11875,389.28125 474.40625,368.64375 473.71875,345.40625" id="Path" stroke="#000000" stroke-width="2.5" stroke-linecap="round" stroke-linejoin="round"></path>
                <path d="M521.39375,277.95625 C528.84375,280.3125 534.475,285.80625 538.675,293.16875" id="Path" stroke="#000000" stroke-width="2.5" stroke-linecap="round" stroke-linejoin="round"></path>
                <path d="M511.70625,284.8 C516.55,284.8 521.39375,283.775 521.39375,281.675 L521.39375,260.86875" id="Path" stroke="#000000" stroke-width="2.5" stroke-linecap="round" stroke-linejoin="round"></path>
                <path d="M502.0125,270.7 L502.0125,278.2" id="Path" stroke="#000000" stroke-width="2.5" stroke-linecap="round" stroke-linejoin="round"></path>
                <path d="M509.8625,270.5375 C507.830032,271.202191 505.669375,271.377785 503.55625,271.05 C493.1125,269.38125 486.68125,255.425 489.13125,239.9125 C489.23125,239.2875 489.34375,238.6625 489.46875,238.0375" id="Path" stroke="#000000" stroke-width="2.5" stroke-linecap="round" stroke-linejoin="round"></path>
                <path d="M525.5,252.05625 C524.528531,255.163013 523.147643,258.126564 521.39375,260.86875" id="Path" stroke="#000000" stroke-width="2.5" stroke-linecap="round" stroke-linejoin="round"></path>
                <path d="M529.8875,213.80625 C532.65625,209.0125 539.68125,200.9375 553.4375,200.9375 C562.8125,200.9375 572.1875,205.9375 584.0625,205.9375 C593.4375,205.9375 602.1875,202.1875 613.4375,202.1875 C633.4375,202.1875 639.6875,215.3125 639.6875,223.4375 C639.6875,244.0625 622.8125,252.1875 610.3125,252.1875 C590.3125,252.1875 587.8125,238.4375 564.0625,238.4375 C540.9375,238.4375 544.0625,219.6875 539.0625,219.6875 C537.874503,219.64397 536.686611,219.77666 535.5375,220.08125" id="Path" stroke="#000000" stroke-width="2.5"></path>
                <path d="M524.0625,257.8125 C534.25,257.8125 539.0625,247.31875 539.0625,234.0625 C539.0625,212.1875 519.75,207.8125 511.5625,207.8125 C489.45625,207.8125 484.83125,224.63125 484.83125,229.4875 C484.83125,234.34375 487.9,237.94375 489.46875,238.0625 C490.44375,232.25625 495.09375,224.24375 495.3125,224.0625 C497.378527,226.077036 499.798094,227.693612 502.45,228.83125" id="Path" stroke="#000000" stroke-width="2.5" stroke-linecap="round" stroke-linejoin="round"></path>
                <path d="M523.04375,241.74375 C523.746075,241.423625 524.509414,241.259444 525.28125,241.2625 C528.263588,241.2625 530.68125,243.680162 530.68125,246.6625 C530.68125,249.644838 528.263588,252.0625 525.28125,252.0625 C524.725889,252.062796 524.173723,251.978495 523.64375,251.8125" id="Path" stroke="#000000" stroke-width="2.5" stroke-linecap="round" stroke-linejoin="round"></path>
                <path d="M473.75,345.40625 C480.11875,348 486.1625,350.0125 493.6875,350.0125 C499.55,350.0125 510.775,346.35625 519.2,337.2875" id="Path" stroke="#000000" stroke-width="2.5" stroke-linecap="round" stroke-linejoin="round"></path>
                <path d="M502.0875,320 C497.577504,323.318013 493.807899,327.538864 491.01875,332.39375 C485.8625,331.43125 464.8875,326.1875 446.26875,326.1875 C444.51875,326.1875 439.975,324.75 438.14375,324.75 C427.225,324.75 424.94375,330.65 424.94375,332.39375 C424.94375,334.1375 425.31875,334.1875 425.65625,334.1875 C449.7625,334.1875 462.275,340.73125 473.74375,345.4" id="Path" stroke="#000000" stroke-width="2.5" stroke-linecap="round" stroke-linejoin="round"></path>
                <path d="M528.63125,294.0875 C534.80625,292.33125 540.50625,292.35625 544.05,295.79375 C555.7625,307.1625 526.14375,338.63125 521.39375,338.16875 C516.64375,337.70625 499.51875,319.675 499.35625,314.19375 C499.29375,312.31875 503.21875,308.24375 508.85625,304.19375" id="Path" stroke="#000000" stroke-width="2.5" stroke-linecap="round" stroke-linejoin="round"></path>
                <rect id="Rectangle" fill="#000000" fill-rule="nonzero" x="303.60625" y="335.59375" width="264.51875" height="8.5375"></rect>
                <path d="M553.9125,471.45625 L553.9125,341.74375" id="Path" stroke="#000000" stroke-width="4" stroke-linecap="round" stroke-linejoin="round"></path>
                <path d="M334.13125,471.45625 L334.13125,341.74375" id="Path" stroke="#000000" stroke-width="4" stroke-linecap="round" stroke-linejoin="round"></path>
                <path d="M535.3375,497.45 L535.3375,341.74375" id="Path" stroke="#000000" stroke-width="4" stroke-linecap="round" stroke-linejoin="round"></path>
                <path d="M314.50625,497.45 L314.50625,341.74375" id="Path" stroke="#000000" stroke-width="4" stroke-linecap="round" stroke-linejoin="round"></path>
                <path d="M445.66875,495.55 L486.28125,427.21875" id="Path" stroke="#000000" stroke-width="4" stroke-linecap="round" stroke-linejoin="round"></path>
                <rect id="Rectangle" fill="#000000" fill-rule="nonzero" x="400.675" y="334.025" width="43.91875" height="1.56875"></rect>
                <polyline id="Path" stroke="#000000" stroke-width="2.5" stroke-linecap="round" stroke-linejoin="round" points="382.76875 301.4125 351.95625 301.4125 351.95625 231.78125 447.84375 231.78125 447.84375 301.4125 405.66875 301.4125"></polyline>
                <polygon id="Path" stroke="#000000" stroke-width="2.5" stroke-linecap="round" stroke-linejoin="round" points="386.43125 288.31875 373.20625 335.59375 396.3875 335.59375 409.225 288.31875"></polygon>
                <path d="M405.11875,63.80625 C414.608879,54.5231481 416.261693,39.8460806 409.073841,28.6848387 C401.885989,17.5235969 387.839972,12.9565926 375.4625,17.75625 C367.639714,5.76810677 353.845031,-0.930832863 339.5863,0.334138961 C325.327569,1.59911079 312.92765,10.6219201 307.3375,23.8 C296.253771,19.3175899 283.546427,22.3795591 275.720783,31.4183828 C267.895139,40.4572065 266.683542,53.4719784 272.70625,63.8 L405.11875,63.80625 Z" id="Path" fill="#DFDFDF" fill-rule="nonzero"></path>
                <polyline id="Path" stroke="#DFDFDF" stroke-width="4" points="336.21875 58.5125 336.21875 103.3375 198.675 103.3375 198.675 145.93125"></polyline>
                <path d="M121.55,497.45 C125.20625,497.45 132.33125,485.0625 132.33125,461.0375 C132.33125,443.46875 120.01875,432.10625 116.3625,414.7 C110.7375,388.00625 82.88125,309.59375 39.3875,309.59375 C34.3875,309.59375 27.675,320.1 27.675,341.74375 C27.675,367.99375 53.1,395.175 53.1,400.8125 C53.125,465.18125 109.89375,497.45 121.55,497.45 Z" id="Path" stroke="#000000" stroke-width="2.5" stroke-linecap="round" stroke-linejoin="round"></path>
                <path d="M121.83125,497.45 C121.83125,493.93125 116.74375,470.325 114.1,464.425 C111.45625,458.525 101.075,429.01875 99.45,420.875 C97.825,412.73125 67.70625,333.175 39.41875,313.025" id="Path" stroke="#000000" stroke-width="2.5" stroke-linecap="round" stroke-linejoin="round"></path>
                <path d="M108.85,450.53125 L61.4,440.86875" id="Path" stroke="#000000" stroke-width="2.5" stroke-linecap="round" stroke-linejoin="round"></path>
                <path d="M111.2375,457.125 L67.78125,453.50625" id="Path" stroke="#000000" stroke-width="2.5" stroke-linecap="round" stroke-linejoin="round"></path>
                <path d="M97.5625,414.725 L53.45625,401.375" id="Path" stroke="#000000" stroke-width="2.5" stroke-linecap="round" stroke-linejoin="round"></path>
                <path d="M101.7625,429.34375 L115.225,419.55625" id="Path" stroke="#000000" stroke-width="2.5" stroke-linecap="round" stroke-linejoin="round"></path>
                <path d="M76.275,365.0375 L89.575,349.95625" id="Path" stroke="#000000" stroke-width="2.5" stroke-linecap="round" stroke-linejoin="round"></path>
                <path d="M72.11875,357.00625 L83.4375,341.65" id="Path" stroke="#000000" stroke-width="2.5" stroke-linecap="round" stroke-linejoin="round"></path>
                <rect id="Rectangle" fill="#DFDFDF" fill-rule="nonzero" x="113.1375" y="165.9125" width="136.83125" height="26.375"></rect>
                <circle id="Oval" fill="#F3F3F3" fill-rule="nonzero" cx="240.14375" cy="175.7875" r="4.625"></circle>
                <path d="M160.3875,175.7875 L231.625,175.7875" id="Path" stroke="#F3F3F3" stroke-width="4" stroke-linecap="round" stroke-linejoin="round"></path>
                <rect id="Rectangle" fill="#DFDFDF" fill-rule="nonzero" x="113.1375" y="210.5" width="136.83125" height="26.375"></rect>
                <circle id="Oval" fill="#F3F3F3" fill-rule="nonzero" cx="240.14375" cy="220.375" r="4.625"></circle>
                <path d="M160.3875,220.375 L231.625,220.375" id="Path" stroke="#F3F3F3" stroke-width="4" stroke-linecap="round" stroke-linejoin="round"></path>
                <rect id="Rectangle" fill="#DFDFDF" fill-rule="nonzero" x="113.1375" y="255.08125" width="136.83125" height="26.375"></rect>
                <circle id="Oval" fill="#F3F3F3" fill-rule="nonzero" cx="240.14375" cy="264.95625" r="4.625"></circle>
                <path d="M160.3875,264.95625 L231.625,264.95625" id="Path" stroke="#F3F3F3" stroke-width="4" stroke-linecap="round" stroke-linejoin="round"></path>
                <rect id="Rectangle" fill="#DFDFDF" fill-rule="nonzero" x="113.1375" y="299.66875" width="136.83125" height="26.375"></rect>
                <circle id="Oval" fill="#F3F3F3" fill-rule="nonzero" cx="240.14375" cy="309.54375" r="4.625"></circle>
                <path d="M160.3875,309.54375 L231.625,309.54375" id="Path" stroke="#F3F3F3" stroke-width="4" stroke-linecap="round" stroke-linejoin="round"></path>
                <rect id="Rectangle" fill="#DFDFDF" fill-rule="nonzero" x="113.1375" y="344.25" width="136.83125" height="26.375"></rect>
                <circle id="Oval" fill="#F3F3F3" fill-rule="nonzero" cx="240.14375" cy="354.13125" r="4.625"></circle>
                <path d="M160.3875,354.13125 L231.625,354.13125" id="Path" stroke="#F3F3F3" stroke-width="4" stroke-linecap="round" stroke-linejoin="round"></path>
                <path d="M70.6625,184.8875 L91.1875,184.8875" id="Path" stroke="#F3F3F3" stroke-width="2" stroke-linecap="round" stroke-linejoin="round"></path>
                <path d="M70.6625,190.2 L91.1875,190.2" id="Path" stroke="#F3F3F3" stroke-width="2" stroke-linecap="round" stroke-linejoin="round"></path>
                <path d="M70.6625,221.03125 L91.1875,221.03125" id="Path" stroke="#F3F3F3" stroke-width="2" stroke-linecap="round" stroke-linejoin="round"></path>
                <path d="M70.6625,226.34375 L91.1875,226.34375" id="Path" stroke="#F3F3F3" stroke-width="2" stroke-linecap="round" stroke-linejoin="round"></path>
                <path d="M70.6625,264.95625 L91.1875,264.95625" id="Path" stroke="#F3F3F3" stroke-width="2" stroke-linecap="round" stroke-linejoin="round"></path>
                <path d="M70.6625,270.275 L91.1875,270.275" id="Path" stroke="#F3F3F3" stroke-width="2" stroke-linecap="round" stroke-linejoin="round"></path>
                <path d="M70.6625,307.45625 L91.1875,307.45625" id="Path" stroke="#F3F3F3" stroke-width="2" stroke-linecap="round" stroke-linejoin="round"></path>
                <path d="M70.6625,312.775 L91.1875,312.775" id="Path" stroke="#F3F3F3" stroke-width="2" stroke-linecap="round" stroke-linejoin="round"></path>
                <path d="M493.675,221.40625 C494.028568,222.396679 494.586474,223.30168 495.3125,224.0625" id="Path" stroke="#000000" stroke-width="2.5" stroke-linecap="round" stroke-linejoin="round"></path>
                <polyline id="Path" stroke="#000000" stroke-width="2.5" stroke-linecap="round" stroke-linejoin="round" points="432.95625 491.69375 435.73125 506.8625 403.25625 513.16875 425.475 498.85 424.4125 492.8375"></polyline>
                <polyline id="Path" stroke="#000000" stroke-width="2.5" stroke-linecap="round" stroke-linejoin="round" points="364.30625 483.575 356.45625 496.74375 327.46875 479.48125 353.88125 483.84375 357.01875 478.65"></polyline>
                <path d="M544.01875,396.25 C544.01875,393.5625 544.4875,390.45 542.8125,389.75625 C503.05,373.3625 444.8375,371.2375 435.86875,371.2375 C426.9,371.2375 400.675,372.15 400.675,379.65625 C400.675,406.76875 415.78125,490.2375 418.85,493.35625 C420.30625,494.825 433.00625,493.84375 434.5875,492.25625 C434.48125,485.38125 438.475,416.325 434.83125,407.9625 C468.25,420.2125 506.2,426.0125 516.2,426.0125 C545.18125,425.98125 544.01875,399.4375 544.01875,396.25 Z" id="Path" fill="#000000" fill-rule="nonzero"></path>
                <path d="M53.125,400.8125 C53.125,397.53125 44.50625,386.94375 37.30625,373.4875 C24.08125,363.5375 12.23125,357.5 5.8375,357.5 C2.0875,357.5 0.40625,364.2375 0.40625,367.80625 C0.40625,405.16875 40.4625,448.6 75.46875,464.74375 C63.04375,449.0625 53.125,427.75 53.125,400.8125 Z" id="Path" fill="#000000" fill-rule="nonzero"></path>
            </g>
        </g>
    </g>
</svg>