<svg xmlns="http://www.w3.org/2000/svg" xmlns:xlink="http://www.w3.org/1999/xlink" width="650px" height="668px" viewBox="0 0 650 668" version="1.1">
    <defs>
        <linearGradient x1="50%" y1="-2.48949813e-15%" x2="50%" y2="100%" id="linearGradient-1">
            <stop stop-color="#007FFF" stop-opacity="0.2" offset="0%"/>
            <stop stop-color="#FFFFFF" stop-opacity="0" offset="100%"/>
        </linearGradient>
        <linearGradient x1="-13.7761468%" y1="-8.57408083%" x2="50%" y2="100%" id="linearGradient-2">
            <stop stop-color="#007FFF" stop-opacity="0.2" offset="0%"/>
            <stop stop-color="#FFFFFF" stop-opacity="0" offset="100%"/>
        </linearGradient>
        <linearGradient x1="50%" y1="0%" x2="50%" y2="100%" id="linearGradient-3">
            <stop stop-color="#007FFF" stop-opacity="0.2" offset="0%"/>
            <stop stop-color="#FFFFFF" offset="100%"/>
        </linearGradient>
        <linearGradient x1="69.2600626%" y1="-4.98100838%" x2="33.2983226%" y2="85.3168121%" id="linearGradient-4">
            <stop stop-color="#007FFF" stop-opacity="0.2" offset="0%"/>
            <stop stop-color="#FFFFFF" stop-opacity="0" offset="100%"/>
        </linearGradient>
        <linearGradient x1="50%" y1="0%" x2="50%" y2="100%" id="linearGradient-5">
            <stop stop-color="#007FFF" stop-opacity="0.2" offset="0%"/>
            <stop stop-color="#FFFFFF" offset="100%"/>
        </linearGradient>
        <linearGradient x1="42.6641553%" y1="93.0413822%" x2="64.5900743%" y2="4.61783032%" id="linearGradient-6">
            <stop stop-color="#FFFFFF" offset="0%"/>
            <stop stop-color="#1B191B" offset="100%"/>
        </linearGradient>
        <linearGradient x1="46.2865552%" y1="107.926499%" x2="71.8924575%" y2="0%" id="linearGradient-7">
            <stop stop-color="#FFFFFF" offset="0%"/>
            <stop stop-color="#1B191B" offset="100%"/>
        </linearGradient>
        <linearGradient x1="20.9587417%" y1="66.7602167%" x2="108.473647%" y2="40.1663516%" id="linearGradient-8">
            <stop stop-color="#FFFFFF" stop-opacity="0" offset="0%"/>
            <stop stop-color="#1B191B" offset="100%"/>
        </linearGradient>
        <linearGradient x1="31.8856908%" y1="124.912197%" x2="66.3047087%" y2="0%" id="linearGradient-9">
            <stop stop-color="#FFFFFF" offset="0%"/>
            <stop stop-color="#1B191B" offset="100%"/>
        </linearGradient>
        <linearGradient x1="27.0168409%" y1="63.7906941%" x2="108.273987%" y2="36.4735596%" id="linearGradient-10">
            <stop stop-color="#FFFFFF" offset="0%"/>
            <stop stop-color="#1B191B" offset="100%"/>
        </linearGradient>
    </defs>
    <g id="3.1.-General" stroke="none" stroke-width="1" fill="none" fill-rule="evenodd">
        <g id="Illustration.LogIn.1.2" transform="translate(-551.000000, -107.000000)">
            <g id="Login-page-Illustration" transform="translate(552.000000, 101.000000)">
                <path d="M324,528.452207 C423.411255,528.452207 504,447.863462 504,348.452207 C504,249.040952 423.411255,168.452207 324,168.452207 C224.588745,168.452207 144,249.040952 144,348.452207 C144,447.863462 224.588745,528.452207 324,528.452207 Z" id="Oval" stroke-opacity="0.197470498" stroke="#007FFF" stroke-width="2" fill="url(#linearGradient-1)" fill-rule="nonzero" opacity="0.600000024" stroke-linecap="round" stroke-linejoin="round" stroke-dasharray="2,6"/>
                <path d="M324,582.452207 C453.234631,582.452207 558,477.686838 558,348.452207 C558,219.217575 453.234631,114.452207 324,114.452207 C194.765369,114.452207 90,219.217575 90,348.452207 C90,477.686838 194.765369,582.452207 324,582.452207 Z" id="Oval-Copy-3" stroke="url(#linearGradient-3)" stroke-width="2" fill="url(#linearGradient-2)" fill-rule="nonzero" opacity="0.600000024" stroke-linecap="round" stroke-linejoin="round" stroke-dasharray="2,6"/>
                <path d="M324,672.452207 C502.940259,672.452207 648,527.392466 648,348.452207 C648,169.511948 502.940259,24.4522067 324,24.4522067 C145.059741,24.4522067 0,169.511948 0,348.452207 C0,527.392466 145.059741,672.452207 324,672.452207 Z" id="Oval-Copy-4" stroke="url(#linearGradient-5)" stroke-width="2" fill="url(#linearGradient-4)" fill-rule="nonzero" opacity="0.200000003" stroke-linecap="round" stroke-linejoin="round" stroke-dasharray="2,6"/>
                <g id="Group-3" opacity="0.800000012" transform="translate(126.000000, 149.452207)">
                    <path d="M90,6.54779329 L61.6617647,6.54779329 C52.8252087,6.54779329 45.6617647,13.7112373 45.6617647,22.5477933 L45.6617647,172.547793 C45.6617647,181.384349 38.4983207,188.547793 29.6617647,188.547793 L-3.63797881e-12,188.547793 L-3.63797881e-12,188.547793" id="Path-4" stroke="url(#linearGradient-6)" stroke-width="4" stroke-linecap="round" stroke-linejoin="round"/>
                    <circle id="Oval" fill="#1B191B" fill-rule="nonzero" cx="103" cy="6.54779329" r="6"/>
                </g>
                <g id="Group-3-Copy-4" opacity="0.800000012" transform="translate(470.000000, 450.452207) rotate(180.000000) translate(-470.000000, -450.452207) translate(413.000000, 379.452207)">
                    <path d="M98,6.45220671 L85.4852941,6.45220671 C76.6487381,6.45220671 69.4852941,13.6156507 69.4852941,22.4522067 L69.4852941,125.452207 C69.4852941,134.288763 62.3218501,141.452207 53.4852941,141.452207 L3.63797881e-12,141.452207 L3.63797881e-12,141.452207" id="Path-4" stroke="url(#linearGradient-7)" stroke-width="4" stroke-linecap="round" stroke-linejoin="round"/>
                    <circle id="Oval" fill="#1B191B" fill-rule="nonzero" cx="108" cy="6.45220671" r="6"/>
                </g>
                <g id="Group-3-Copy-2" opacity="0.800000012" transform="translate(352.500000, 176.452207) rotate(90.000000) translate(-352.500000, -176.452207) translate(285.500000, 147.952207)">
                    <path d="M115.547793,6 L51.503551,6 C42.666995,6 35.503551,13.163444 35.503551,22 L35.503551,41 C35.503551,49.836556 28.340107,57 19.503551,57 L0.547793289,57 L0.547793289,57" id="Path-4" stroke="url(#linearGradient-8)" stroke-width="4" stroke-linecap="round" stroke-linejoin="round"/>
                    <circle id="Oval" fill="#1B191B" fill-rule="nonzero" cx="127.547793" cy="6" r="6"/>
                </g>
                <g id="Group-3-Copy-3" opacity="0.800000012" transform="translate(444.500000, 296.452207) scale(-1, 1) rotate(-180.000000) translate(-444.500000, -296.452207) translate(420.000000, 263.452207)">
                    <path d="M31,6.45220671 L25.4228564,6.45220671 C16.5863004,6.45220671 9.42285643,13.6156507 9.42285643,22.4522067 L9.42285643,56.0293503 C9.42285643,61.2334502 5.20409991,65.4522067 -3.63797881e-12,65.4522067 L-3.63797881e-12,65.4522067 L-3.63797881e-12,65.4522067" id="Path-4" stroke="url(#linearGradient-9)" stroke-width="4" stroke-linecap="round" stroke-linejoin="round"/>
                    <circle id="Oval" fill="#1B191B" fill-rule="nonzero" cx="43" cy="6.45220671" r="6"/>
                </g>
                <g id="Group-3-Copy-5" opacity="0.800000012" transform="translate(150.500000, 461.452207) scale(-1, 1) rotate(-180.000000) translate(-150.500000, -461.452207) translate(73.000000, 421.452207)">
                    <path d="M139,6.45220671 L58.2508724,6.45220671 C49.4143164,6.45220671 42.2508724,13.6156507 42.2508724,22.4522067 L42.2508724,63.4522067 C42.2508724,72.2887627 35.0874284,79.4522067 26.2508724,79.4522067 L-3.63797881e-12,79.4522067 L-3.63797881e-12,79.4522067" id="Path-4" stroke="url(#linearGradient-10)" stroke-width="4" stroke-linecap="round" stroke-linejoin="round"/>
                    <circle id="Oval" fill="#1B191B" fill-rule="nonzero" cx="149" cy="6.45220671" r="6"/>
                </g>
                <g id="Group-2" transform="translate(230.000000, 251.452207)" fill-rule="nonzero">
                    <rect id="Rectangle" stroke-opacity="0.428813374" stroke="#E3E6E8" fill="#FFFFFF" x="0.5" y="1.04779329" width="187" height="187" rx="8"/>
                    <path d="M8,0.547793289 L180,0.547793289 C184.418278,0.547793289 188,4.12951529 188,8.54779329 L188,19.5477933 L188,19.5477933 L-3.63797881e-12,19.5477933 L-3.63797881e-12,8.54779329 C-3.63797881e-12,4.12951529 3.581722,0.547793289 8,0.547793289 Z" id="Rectangle" fill="#007FFF"/>
                    <circle id="Oval" fill="#FFFFFF" cx="10" cy="10.5477933" r="3"/>
                    <circle id="Oval-Copy" fill="#FFFFFF" cx="19" cy="10.5477933" r="3"/>
                    <circle id="Oval-Copy-2" fill="#FFFFFF" cx="28" cy="10.5477933" r="3"/>
                    <rect id="Rectangle" fill="#FFFFFF" x="57" y="7.54779329" width="107" height="6" rx="3"/>
                </g>
                <path d="M376.076312,294.135836 C376.114943,294.33184 376.10101,294.534497 376.035943,294.723013 L352.771341,362.126202 C358.681799,367.65924 375.573663,384.74624 378.814853,387.984055 C395.25311,404.405194 395.268307,412.887453 384.945928,420.794609 C384.596304,421.062428 382.039827,422.967813 381.7954,423.156611 C374.621566,428.697777 354.467799,424.54126 350.522174,417.425474 C342.610528,420.626362 335.262236,421.373064 328.50442,419.640246 L335.734062,456.093943 C335.871644,456.787666 335.346508,457.433824 334.642946,457.436516 C334.178422,457.438987 333.712884,457.438987 333.246438,457.438987 L325.310087,416.178469 L328.727411,417.06301 C334.948387,418.673249 341.768757,417.991247 349.216801,414.97232 L351.037514,414.234328 L351.997707,415.97109 C353.165177,418.082767 356.182562,419.896037 359.867311,421.166654 C358.776685,420.254621 357.875845,419.178198 356.946656,417.834104 C356.585627,417.311866 356.730608,416.596878 357.270481,416.237132 C357.810354,415.877386 358.540679,416.009111 358.901709,416.531349 C360.760975,419.220822 364.019815,421.386595 368.704613,422.999961 C373.21391,423.368775 377.456151,422.827971 379.769131,421.034395 C379.886882,420.943087 380.191148,420.714326 381.370455,419.829123 C382.351746,419.092554 382.771573,418.776801 382.902877,418.675828 C392.324978,411.430196 391.361496,404.280812 376.998112,389.744339 L376.558861,389.301549 C376.307879,389.04652 366.980601,379.626938 363.088626,375.723163 L362.747528,375.381107 C357.595301,370.215559 353.674349,366.336961 351.286379,364.062636 C351.08106,363.867088 349.841805,367.890831 349.659344,367.719205 C339.030483,368.627553 332.124603,364.335765 328.941706,354.84384 L328.967031,354.798974 C329.089225,354.581303 329.619797,353.622292 329.810996,353.045823 C328.605264,353.093754 319.623853,355.28658 318.938059,355.47221 L316.226161,356.206266 L316.126605,353.369332 C315.575055,337.652521 312.032191,332.051355 305.657955,334.453072 C299.615223,336.729883 298.079049,345.637659 301.750163,361.997327 L302.049805,363.332625 L301.013876,364.208158 L300.987706,364.23029 C293.460605,370.600536 286.724305,380.950746 280.136728,396.570835 C276.969414,404.08099 268.489426,424.158933 266.184051,429.601481 C276.991191,449.186581 298.025894,455.167107 319.759618,457.07887 C296.757269,455.732192 274.051237,449.975738 264.035658,429.597146 C263.891438,429.301336 274.814874,403.851877 278.106791,396.102043 C285.003772,379.865166 292.007302,369.362794 299.757251,362.831091 C299.766421,362.823363 299.775589,362.815641 299.784756,362.807925 C295.917785,345.557832 297.588042,335.450684 305.149969,332.605937 C309.976865,330.790091 313.489118,332.339585 315.734893,337.070594 C318.109261,333.168113 323.725398,329.530862 327.869612,330.098303 C336.541967,331.9046 336.074837,339.663788 330.436124,351.149312 C330.925746,351.084292 331.311343,351.051312 331.553724,351.060269 C343.879644,331.434161 353.218795,316.555806 359.571133,306.425274 C365.923471,296.294743 365.478005,297.000795 367.166532,294.29925 C367.945529,293.0529 368.544927,292.092041 368.964561,291.416941 L369.065724,291.254119 C369.17092,291.084727 369.262951,290.936262 369.341769,290.808806 L369.349243,290.795937 C369.119386,291.17768 369.977422,289.829788 370.361133,289.726973 C373.354463,288.924912 375.37493,290.577241 376.076312,294.135836 Z M383.508752,401.34353 C384.048005,403.356051 382.867575,405.420952 380.872188,405.955614 C378.8768,406.490277 376.822068,405.292235 376.282815,403.279714 C375.743561,401.267193 376.923991,399.202292 378.919378,398.66763 C380.914766,398.132968 382.969498,399.331009 383.508752,401.34353 Z M379.407581,400.489626 C378.409887,400.756957 377.819672,401.789407 378.089299,402.795668 C378.358926,403.801929 379.386292,404.400949 380.383985,404.133618 C381.381679,403.866287 381.971894,402.833837 381.702267,401.827576 C381.432641,400.821315 380.405274,400.222295 379.407581,400.489626 Z M348.60025,379.452284 C349.678757,383.477326 347.317897,387.607127 343.327123,388.676452 C339.336348,389.745777 335.226883,387.349694 334.148376,383.324651 C333.069869,379.299609 335.430729,375.169808 339.421504,374.100483 C343.412278,373.031159 347.521743,375.427241 348.60025,379.452284 Z M339.909706,375.922479 C336.916625,376.724473 335.14598,379.821824 335.95486,382.840606 C336.763741,385.859387 339.845839,387.656449 342.83892,386.854456 C345.832001,386.052462 347.602646,382.955111 346.793766,379.93633 C345.984886,376.917548 342.902787,375.120486 339.909706,375.922479 Z M344.987282,380.420376 C345.526535,382.432897 344.346105,384.497797 342.350718,385.03246 C340.35533,385.567122 338.300598,384.369081 337.761345,382.35656 C337.222091,380.344038 338.402521,378.279138 340.397908,377.744475 C342.393296,377.209813 344.448028,378.407854 344.987282,380.420376 Z M327,332 C323.114367,332 318.493813,336.551825 316.612666,339.278038 C317.800645,342.814613 318.489227,347.599121 318.692278,353.584214 C319.185576,353.450696 324.248757,352.264133 327.945024,351.565984 C333.98436,338.897793 333.669118,332.952731 327,332 Z" id="Unicorn" fill="#1B191B" fill-rule="nonzero"/>
                <g id="Group-4" transform="translate(65.000000, 289.452207)" fill="#007FFF" fill-rule="nonzero">
                    <path d="M53,3.48447354 C53,33.1625017 53.2210486,36.7675768 53,68.330738 C53.1296288,70.8844355 54.3273807,72.8648189 56.5932556,74.2718884 C84.5499581,87.9237008 112.589918,101.414217 140.713135,114.743436 C143.197456,116.152011 144.954709,115.710584 145.984894,113.419156 L145.984894,48.8674564 C146.164268,45.437514 144.746198,43.0733272 141.730683,41.7748962 C113.369277,28.2652578 85.1866126,14.7231468 57.1826885,1.14856339 C54.3942295,-0.137455439 53,0.641181278 53,3.48447354 Z" id="Path-3" opacity="0.100000001"/>
                    <path d="M36,16.4844735 C36,46.1625017 36.2210486,49.7675768 36,81.330738 C36.1296288,83.8844355 37.3273807,85.8648189 39.5932556,87.2718884 C67.5499581,100.923701 95.5899179,114.414217 123.713135,127.743436 C126.197456,129.152011 127.954709,128.710584 128.984894,126.419156 L128.984894,61.8674564 C129.164268,58.437514 127.746198,56.0733272 124.730683,54.7748962 C96.3692774,41.2652578 68.1866126,27.7231468 40.1826885,14.1485634 C37.3942295,12.8625446 36,13.6411813 36,16.4844735 Z" id="Path-3-Copy" opacity="0.300000012"/>
                    <path d="M19,26.4844735 C19,56.1625017 19.2186717,59.7675768 19,91.330738 C19.1282349,93.8844355 20.3131078,95.8648189 22.5546184,97.2718884 C50.2107113,110.923701 77.9491661,124.414217 105.769983,137.743436 C108.227591,139.152011 109.965949,138.710584 110.985056,136.419156 L110.985056,71.8674564 C111.162502,68.437514 109.75968,66.0733272 106.77659,64.7748962 C78.7201454,51.2652578 50.84052,37.7231468 23.1377134,24.1485634 C20.3792378,22.8625446 19,23.6411813 19,26.4844735 Z" id="Path-3-Copy-2" opacity="0.5"/>
                    <path d="M-3.63797881e-12,39.4844735 C-3.63797881e-12,69.1625017 0.218671748,72.7675768 -3.63797881e-12,104.330738 C0.128234943,106.884435 1.31310776,108.864819 3.55461844,110.271888 C31.2107113,123.923701 58.9491661,137.414217 86.7699828,150.743436 C89.2275914,152.152011 90.9659491,151.710584 91.9850562,149.419156 L91.9850562,84.8674564 C92.1625018,81.437514 90.7596796,79.0733272 87.7765896,77.7748962 C59.7201454,64.2652578 31.84052,50.7231468 4.13771335,37.1485634 C1.37923778,35.8625446 -3.63797881e-12,36.6411813 -3.63797881e-12,39.4844735 Z" id="Path-3-Copy-3" opacity="0.699999988"/>
                </g>
                <g id="Group-5" transform="translate(246.000000, 432.452207)" fill-rule="nonzero">
                    <rect id="Rectangle" stroke="#007FFF" stroke-width="4" fill="#007FFF" x="0" y="0" width="156" height="100" rx="16"/>
                    <path d="M75.7484542,52.2175977 L81.3656854,57.8343651 C81.6724245,58.1411062 81.6780016,58.6349666 81.3824166,58.948512 L78.5656854,61.7657614 C78.4179962,61.9134515 78.2269285,61.9913245 78.0334947,61.9993803 L78.0111672,62 L77.9888328,62 C77.7965723,61.9973327 77.60509,61.9257791 77.4545808,61.7853392 L74.6175834,58.948512 C74.3219984,58.6349666 74.3275755,58.1411062 74.6343146,57.8343651 C74.9410537,57.5276241 75.4349108,57.522047 75.7484542,57.8176338 L75.7656854,57.8343651 L78,60.0686225 L79.66856,58.4000517 L74.6343146,53.3657072 L74.6175834,53.3484758 C74.3219984,53.0349304 74.3275755,52.5410701 74.6343146,52.234329 C74.9410537,51.9275879 75.4349108,51.9220108 75.7484542,52.2175977 Z M86.9484542,46.6175615 L89.7656854,49.4343109 C90.0724245,49.741052 90.0780016,50.2349123 89.7824166,50.5484577 L86.9484542,53.3824385 C86.6349108,53.6780253 86.1410537,53.6724482 85.8343146,53.3657072 C85.5275755,53.0589661 85.5219984,52.5651057 85.8175834,52.2515603 L88.06856,50 L85.8343146,47.765671 C85.5218951,47.4532496 85.5218951,46.9467143 85.8343146,46.6342928 C86.1410537,46.3275518 86.6349108,46.3219747 86.9484542,46.6175615 Z M70.1656854,46.6342928 C70.4724245,46.9410339 70.4780016,47.4348943 70.1824166,47.7484397 L70.1656854,47.765671 L67.93144,50 L70.1656854,52.234329 C70.4781049,52.5467504 70.4781049,53.0532857 70.1656854,53.3657072 C69.8589463,53.6724482 69.3650892,53.6780253 69.0515458,53.3824385 L66.2343146,50.5656891 C65.9218951,50.2532676 65.9218951,49.7467324 66.2343146,49.4343109 L69.0515458,46.6175615 C69.3650892,46.3219747 69.8589463,46.3275518 70.1656854,46.6342928 Z M75.7484542,46.6175615 L81.3824166,52.2515603 C81.6780016,52.5651057 81.6724245,53.0589661 81.3656854,53.3657072 C81.0589463,53.6724482 80.5650892,53.6780253 80.2515458,53.3824385 L74.6175834,47.7484397 C74.3219984,47.4348943 74.3275755,46.9410339 74.6343146,46.6342928 C74.9410537,46.3275518 75.4349108,46.3219747 75.7484542,46.6175615 Z M78.0111672,38 C78.2034277,38.0026673 78.39491,38.0742209 78.5454192,38.2146608 L81.3824166,41.051488 C81.6780016,41.3650334 81.6724245,41.8588938 81.3656854,42.1656349 C81.0589463,42.4723759 80.5650892,42.477953 80.2515458,42.1823662 L78,39.9313725 L76.33144,41.5999432 L81.3656854,46.6342928 L81.3824166,46.6515242 C81.6780016,46.9650696 81.6724245,47.4589299 81.3656854,47.765671 C81.0589463,48.0724121 80.5650892,48.0779892 80.2515458,47.7824023 L74.6175834,42.1484035 C74.3274722,41.8406645 74.3274722,41.359227 74.6175834,41.051488 L77.4343146,38.2342386 C77.5876841,38.0808681 77.7878332,38.0027886 77.9888328,38 L78.0111672,38 Z" id="Combined-Shape" fill="#FFFFFF"/>
                </g>
                <line x1="485" y1="534.702207" x2="163" y2="534.702207" id="Path" stroke="#007FFF" stroke-width="8" stroke-linecap="round" stroke-linejoin="round"/>
                <path d="M481,201.927708 C481,231.515063 481.218672,322.460475 481,353.927204 C481.128235,356.473099 482.313108,358.447432 484.554618,359.850202 C512.210711,373.460305 539.949166,386.909605 567.769983,400.1981 C570.227591,401.602371 571.965949,401.162293 572.985056,398.877866 L572.985056,247.172035 C573.162502,243.752572 571.75968,241.395609 568.77659,240.101145 C540.720145,226.632781 512.84052,213.132045 485.137713,199.598935 C482.379238,198.316845 481,199.093103 481,201.927708 Z" id="Path-3-Copy-4" fill="#007FFF" fill-rule="nonzero" opacity="0.600000024" transform="translate(527.000000, 300.000000) scale(-1, 1) translate(-527.000000, -300.000000) "/>
                <g id="Group-6-Copy" opacity="0.5" transform="translate(292.500000, 26.500000) rotate(-38.000000) translate(-292.500000, -26.500000) translate(280.000000, 12.000000)" fill="#007FFF" fill-rule="nonzero">
                    <polygon id="Path-5" opacity="0.400000006" points="-7.85803422e-13 6.696 12.096 13.4630886 12.096 28.08 -7.85803422e-13 21.3129114"/>
                    <polygon id="Path-6" opacity="0.200000003" points="12.096 0 -7.85803422e-13 6.696 12.096 13.392 24.192 6.696"/>
                    <polygon id="Path-7" opacity="0.600000024" points="24.192 21.3129114 24.192 6.696 12.096 13.4630886 12.096 28.08"/>
                </g>
                <g id="Group-6-Copy-2" opacity="0.400000006" transform="translate(592.000000, 82.000000) rotate(-13.000000) translate(-592.000000, -82.000000) translate(577.000000, 65.000000)" fill="#007FFF" fill-rule="nonzero">
                    <polygon id="Path-5" points="-9.42964107e-13 8.0352 14.5152 16.1557063 14.5152 33.696 -9.42964107e-13 25.5754937"/>
                    <polygon id="Path-6" opacity="0.200000003" points="14.5152 0 -9.42964107e-13 8.0352 14.5152 16.0704 29.0304 8.0352"/>
                    <polygon id="Path-7" opacity="0.600000024" points="29.0304 25.5754937 29.0304 8.0352 14.5152 16.1557063 14.5152 33.696"/>
                </g>
                <g id="Group-6-Copy-4" transform="translate(194.500000, 223.000000) rotate(105.000000) translate(-194.500000, -223.000000) translate(186.000000, 213.000000)" fill="#007FFF" fill-rule="nonzero">
                    <polygon id="Path-5" opacity="0.400000006" points="-5.50062396e-13 4.6872 8.4672 9.42416203 8.4672 19.656 -5.50062396e-13 14.919038"/>
                    <polygon id="Path-6" opacity="0.200000003" points="8.4672 0 -5.50062396e-13 4.6872 8.4672 9.3744 16.9344 4.6872"/>
                    <polygon id="Path-7" opacity="0.600000024" points="16.9344 14.919038 16.9344 4.6872 8.4672 9.42416203 8.4672 19.656"/>
                </g>
                <g id="Group-6-Copy-3" opacity="0.699999988" transform="translate(390.000000, 125.500000) rotate(47.000000) translate(-390.000000, -125.500000) translate(369.000000, 101.000000)" fill="#007FFF" fill-rule="nonzero">
                    <polygon id="Path-5" opacity="0.400000006" points="-1.36205927e-12 11.6064 20.9664 23.3360203 20.9664 48.672 -1.36205927e-12 36.9423797"/>
                    <polygon id="Path-6" opacity="0.200000003" points="20.9664 0 -1.36205927e-12 11.6064 20.9664 23.2128 41.9328 11.6064"/>
                    <polygon id="Path-7" opacity="0.600000024" points="41.9328 36.9423797 41.9328 11.6064 20.9664 23.3360203 20.9664 48.672"/>
                </g>
                <g id="Group-6-Copy-7" opacity="0.800000012" transform="translate(534.500000, 452.000000) rotate(-34.000000) translate(-534.500000, -452.000000) translate(518.000000, 433.000000)" fill="#007FFF" fill-rule="nonzero">
                    <polygon id="Path-5" opacity="0.400000006" points="-1.0477379e-12 8.928 16.128 17.9507848 16.128 37.44 -1.0477379e-12 28.4172152"/>
                    <polygon id="Path-6" opacity="0.200000003" points="16.128 0 -1.0477379e-12 8.928 16.128 17.856 32.256 8.928"/>
                    <polygon id="Path-7" opacity="0.600000024" points="32.256 28.4172152 32.256 8.928 16.128 17.9507848 16.128 37.44"/>
                </g>
                <g id="Group-6-Copy-9" opacity="0.600000024" transform="translate(114.110105, 245.870318) rotate(-33.000000) translate(-114.110105, -245.870318) translate(98.610105, 227.870318)" fill="#007FFF" fill-rule="nonzero">
                    <polygon id="Path-5" opacity="0.400000006" points="-9.90112312e-13 8.51365964 15.24096 17.1177052 15.24096 35.7024436 -9.90112312e-13 27.0983981"/>
                    <polygon id="Path-6" opacity="0.200000003" points="15.24096 0 -9.90112312e-13 8.51365964 15.24096 17.0273193 30.48192 8.51365964"/>
                    <polygon id="Path-7" points="30.48192 27.0983981 30.48192 8.51365964 15.24096 17.1177052 15.24096 35.7024436"/>
                </g>
                <g id="Group-6" transform="translate(288.000000, 147.000000) rotate(-10.000000) translate(-288.000000, -147.000000) translate(243.000000, 95.000000)" fill="#007FFF" fill-rule="nonzero">
                    <polygon id="Path-5" opacity="0.400000006" points="-2.91038305e-12 24.8 44.8 49.8632911 44.8 104 -2.91038305e-12 78.9367089"/>
                    <polygon id="Path-6" opacity="0.200000003" points="44.8 0 -2.91038305e-12 24.8 44.8 49.6 89.6 24.8"/>
                    <polygon id="Path-7" opacity="0.600000024" points="89.6 78.9367089 89.6 24.8 44.8 49.8632911 44.8 104"/>
                </g>
                <g id="Group-8-Copy-3" opacity="0.900000036" transform="translate(210.412562, 86.740235) rotate(40.000000) translate(-210.412562, -86.740235) translate(184.912562, 59.240235)" fill-rule="nonzero">
                    <g id="Group-6" opacity="0.600000024" transform="translate(25.926827, 27.570197) rotate(-23.000000) translate(-25.926827, -27.570197) translate(7.926827, 6.070197)" fill="#007FFF" stroke="#FFFFFF" stroke-width="0.6">
                        <polygon id="Polygon-Copy-15" points="27.8 17.7464102 19.7861561 22.3732051 19.7861561 31.6267949 27.8 36.2535898 35.8138439 31.6267949 35.8138439 22.3732051"/>
                        <polygon id="Polygon-Copy-16" points="8.6 17.7464102 0.58615612 22.3732051 0.58615612 31.6267949 8.6 36.2535898 16.6138439 31.6267949 16.6138439 22.3732051"/>
                        <polygon id="Polygon-Copy-17" points="18.2 0.346410162 10.1861561 4.97320508 10.1861561 14.2267949 18.2 18.8535898 26.2138439 14.2267949 26.2138439 4.97320508"/>
                        <polygon id="Polygon-Copy-18" points="18.2 23.7464102 10.1861561 28.3732051 10.1861561 37.6267949 18.2 42.2535898 26.2138439 37.6267949 26.2138439 28.3732051"/>
                        <polygon id="Polygon-Copy-19" points="27.8 6.34641016 19.7861561 10.9732051 19.7861561 20.2267949 27.8 24.8535898 35.8138439 20.2267949 35.8138439 10.9732051"/>
                        <polygon id="Polygon-Copy-20" points="8.6 6.34641016 0.58615612 10.9732051 0.58615612 20.2267949 8.6 24.8535898 16.6138439 20.2267949 16.6138439 10.9732051"/>
                        <polygon id="Polygon-Copy-21" points="18.2 12.3464102 10.1861561 16.9732051 10.1861561 26.2267949 18.2 30.8535898 26.2138439 26.2267949 26.2138439 16.9732051"/>
                    </g>
                    <polygon id="Path-6" fill="#FFFFFF" opacity="0.600000024" transform="translate(22.079055, 17.997798) rotate(-17.000000) translate(-22.079055, -17.997798) " points="20.6705529 7.53083731 4.39999985 19.7057748 23.4724981 28.4647596 39.7581105 15.7513974"/>
                    <polygon id="Path-6-Copy" fill="#FFFFFF" opacity="0.300000012" transform="translate(19.871855, 35.600000) rotate(-17.000000) translate(-19.871855, -35.600000) " points="9.4499415 21.1202305 11.9863134 41.5546823 30.2937677 50.0797697 28.5224396 29.8792153"/>
                </g>
                <g id="Group-8-Copy-5" transform="translate(438.811016, 210.659064) rotate(32.000000) translate(-438.811016, -210.659064) translate(420.811016, 191.659064)" fill-rule="nonzero">
                    <g id="Group-6" opacity="0.600000024" transform="translate(18.313343, 18.874966) rotate(-23.000000) translate(-18.313343, -18.874966) translate(5.813343, 3.874966)" fill="#007FFF" stroke="#FFFFFF" stroke-width="0.5">
                        <polygon id="Polygon-Copy-15" points="19.16 12.4686751 13.5903093 15.6843376 13.5903093 22.1156624 19.16 25.3313249 24.7296907 22.1156624 24.7296907 15.6843376"/>
                        <polygon id="Polygon-Copy-16" points="5.72 12.4686751 0.15030929 15.6843376 0.15030929 22.1156624 5.72 25.3313249 11.2896907 22.1156624 11.2896907 15.6843376"/>
                        <polygon id="Polygon-Copy-17" points="12.44 0.288675135 6.87030929 3.50433757 6.87030929 9.93566243 12.44 13.1513249 18.0096907 9.93566243 18.0096907 3.50433757"/>
                        <polygon id="Polygon-Copy-18" points="12.44 16.6686751 6.87030929 19.8843376 6.87030929 26.3156624 12.44 29.5313249 18.0096907 26.3156624 18.0096907 19.8843376"/>
                        <polygon id="Polygon-Copy-19" points="19.16 4.48867513 13.5903093 7.70433757 13.5903093 14.1356624 19.16 17.3513249 24.7296907 14.1356624 24.7296907 7.70433757"/>
                        <polygon id="Polygon-Copy-20" points="5.72 4.48867513 0.15030929 7.70433757 0.15030929 14.1356624 5.72 17.3513249 11.2896907 14.1356624 11.2896907 7.70433757"/>
                        <polygon id="Polygon-Copy-21" points="12.44 8.68867513 6.87030929 11.9043376 6.87030929 18.3356624 12.44 21.5513249 18.0096907 18.3356624 18.0096907 11.9043376"/>
                    </g>
                    <polygon id="Path-6" fill="#FFFFFF" opacity="0.600000024" transform="translate(15.455339, 12.298459) rotate(-17.000000) translate(-15.455339, -12.298459) " points="14.4693871 4.97158625 3.08000001 13.4940425 16.4307487 19.6253319 27.8306774 10.7259784"/>
                    <polygon id="Path-6-Copy" fill="#FFFFFF" opacity="0.300000012" transform="translate(13.910298, 24.620000) rotate(-17.000000) translate(-13.910298, -24.620000) " points="6.61495902 14.4841612 8.39041936 28.7882774 21.2056374 34.7558386 19.9657077 20.6154505"/>
                </g>
                <g id="Group-8-Copy-6" transform="translate(189.427647, 468.183678) rotate(43.000000) translate(-189.427647, -468.183678) translate(167.927647, 445.183678)" fill-rule="nonzero">
                    <g id="Group-6" opacity="0.600000024" transform="translate(21.791911, 22.928106) rotate(-23.000000) translate(-21.791911, -22.928106) translate(6.791911, 4.928106)" fill="#007FFF" stroke="#FFFFFF" stroke-width="0.6">
                        <polygon id="Polygon-Copy-15" points="23.192 14.9624102 16.5083711 18.8212051 16.5083711 26.5387949 23.192 30.3975898 29.8756289 26.5387949 29.8756289 18.8212051"/>
                        <polygon id="Polygon-Copy-16" points="7.064 14.9624102 0.38037114 18.8212051 0.38037114 26.5387949 7.064 30.3975898 13.7476289 26.5387949 13.7476289 18.8212051"/>
                        <polygon id="Polygon-Copy-17" points="15.128 0.346410162 8.44437114 4.20520508 8.44437114 11.9227949 15.128 15.7815898 21.8116289 11.9227949 21.8116289 4.20520508"/>
                        <polygon id="Polygon-Copy-18" points="15.128 20.0024102 8.44437114 23.8612051 8.44437114 31.5787949 15.128 35.4375898 21.8116289 31.5787949 21.8116289 23.8612051"/>
                        <polygon id="Polygon-Copy-19" points="23.192 5.38641016 16.5083711 9.24520508 16.5083711 16.9627949 23.192 20.8215898 29.8756289 16.9627949 29.8756289 9.24520508"/>
                        <polygon id="Polygon-Copy-20" points="7.064 5.38641016 0.38037114 9.24520508 0.38037114 16.9627949 7.064 20.8215898 13.7476289 16.9627949 13.7476289 9.24520508"/>
                        <polygon id="Polygon-Copy-21" points="15.128 10.4264102 8.44437114 14.2852051 8.44437114 22.0027949 15.128 25.8615898 21.8116289 22.0027949 21.8116289 14.2852051"/>
                    </g>
                    <polygon id="Path-6" fill="#FFFFFF" opacity="0.600000024" transform="translate(18.546406, 14.958151) rotate(-17.000000) translate(-18.546406, -14.958151) " points="17.3632644 6.16590328 3.69599991 16.3928508 19.7168983 23.750398 33.3968128 13.0711738"/>
                    <polygon id="Path-6-Copy" fill="#FFFFFF" opacity="0.300000012" transform="translate(16.692358, 29.744000) rotate(-17.000000) translate(-16.692358, -29.744000) " points="7.93795085 17.5809936 10.0685032 34.745933 25.4467649 41.9070064 23.9588493 24.9385408"/>
                </g>
                <g id="Group-8-Copy-4" transform="translate(419.060935, 15.996273) rotate(-97.000000) translate(-419.060935, -15.996273) translate(405.560935, 1.496273)" fill-rule="nonzero">
                    <g id="Group-6" opacity="0.600000024" transform="translate(13.061097, 14.515225) rotate(-23.000000) translate(-13.061097, -14.515225) translate(3.561097, 3.515225)" fill="#007FFF" stroke="#FFFFFF" stroke-width="0.5">
                        <polygon id="Polygon-Copy-15" points="14.4 8.98867513 10.4930781 11.2443376 10.4930781 15.7556624 14.4 18.0113249 18.3069219 15.7556624 18.3069219 11.2443376"/>
                        <polygon id="Polygon-Copy-16" points="4.8 8.98867513 0.893078062 11.2443376 0.893078062 15.7556624 4.8 18.0113249 8.70692194 15.7556624 8.70692194 11.2443376"/>
                        <polygon id="Polygon-Copy-17" points="9.6 0.288675135 5.69307806 2.54433757 5.69307806 7.05566243 9.6 9.31132487 13.5069219 7.05566243 13.5069219 2.54433757"/>
                        <polygon id="Polygon-Copy-18" points="9.6 11.9886751 5.69307806 14.2443376 5.69307806 18.7556624 9.6 21.0113249 13.5069219 18.7556624 13.5069219 14.2443376"/>
                        <polygon id="Polygon-Copy-19" points="14.4 3.28867513 10.4930781 5.54433757 10.4930781 10.0556624 14.4 12.3113249 18.3069219 10.0556624 18.3069219 5.54433757"/>
                        <polygon id="Polygon-Copy-20" points="4.8 3.28867513 0.893078062 5.54433757 0.893078062 10.0556624 4.8 12.3113249 8.70692194 10.0556624 8.70692194 5.54433757"/>
                        <polygon id="Polygon-Copy-21" points="9.6 6.28867513 5.69307806 8.54433757 5.69307806 13.0556624 9.6 15.3113249 13.5069219 13.0556624 13.5069219 8.54433757"/>
                    </g>
                    <polygon id="Path-6" fill="#FFFFFF" opacity="0.600000024" transform="translate(11.039528, 9.498899) rotate(-17.000000) translate(-11.039528, -9.498899) " points="10.3352766 4.26541878 2.20000009 10.3528876 11.7362492 14.7323799 19.8790554 8.37569886"/>
                    <polygon id="Path-6-Copy" fill="#FFFFFF" opacity="0.300000012" transform="translate(9.935927, 18.300000) rotate(-17.000000) translate(-9.935927, -18.300000) " points="4.72497073 11.0601151 5.99315668 21.277341 15.1468839 25.5398847 14.2612198 15.4396075"/>
                </g>
            </g>
        </g>
    </g>
</svg>
