<svg width="16px" height="16px" viewBox="0 0 16 16" version="1.1" xmlns="http://www.w3.org/2000/svg" xmlns:xlink="http://www.w3.org/1999/xlink">
    <path d="M8,16 C3.581722,16 0,12.418278 0,8 C0,3.581722 3.581722,0 8,0 C12.418278,0 16,3.581722 16,8 C16,12.418278 12.418278,16 8,16 Z M4,3 L4,5.00241089 L5.81818182,8 L4,11.0003357 L4,13 L12,13 L12,11.0057983 L10.1818182,8.00646973 L12,5.00024414 L12,3 L4,3 Z M5,4 L10.8181818,4 L10.8181818,5.01116943 L9.54545455,7.00653076 L9,7.98480225 L9.54545455,8.99664307 L10.8181818,11.0022888 L10.8181818,12 L5,12 L5,11.015625 L6.27272727,9.0055542 L6.81818182,8.01147461 L6.27272727,6.99975586 L5,5.00622559 L5,4 Z M6,5 L7.27272727,7 L8.36363636,7 L9.63636364,5 L6,5 Z" id="ic_exec_status_progress" fill="#F5A623"></path>
</svg>
