<svg xmlns="http://www.w3.org/2000/svg" width="280" height="124" viewBox="0 0 280 124">
    <path fill="#D1D8DB" fill-rule="nonzero" d="M125.399 23.45c-10.526 3.441-19.368 10.597-24.972 19.915-10.556 2.78-23.772 4.398-38.186 4.398-16.287 0-31.043-2.067-42.162-5.539-3.672-1.146-6.938-2.397-9.799-3.916V49.05c.008.168.008.336 0 .504 0 .15.203 1.043 2.352 2.63 2.149 1.585 5.878 3.363 10.694 4.867 9.633 3.007 23.536 5.035 38.915 5.035 12.19 0 23.455-1.274 32.399-3.3a45.853 45.853 0 0 0-.665 10.023c-9.292 1.86-20.124 2.911-31.734 2.911-16.287 0-31.043-2.067-42.162-5.539-3.672-1.146-6.938-2.398-9.799-3.916V72.95c.01.186.01.373 0 .56 0 .149.203 1.042 2.352 2.629 2.149 1.586 5.878 3.363 10.694 4.867 9.633 3.008 23.536 5.036 38.915 5.036 13.107 0 25.142-1.473 34.375-3.77a45.45 45.45 0 0 0 4.963 9.835c-10.739 2.97-24.395 4.71-39.338 4.71-16.287 0-31.043-2.068-42.162-5.54-3.672-1.146-6.938-2.397-9.799-3.916v10.686c.01.187.01.373 0 .56 0 .15.203 1.043 2.352 2.63 2.149 1.585 5.878 3.363 10.694 4.867 9.633 3.008 23.536 5.035 38.915 5.035 15.378 0 29.28-2.027 38.914-5.035 3.986-1.245 7.227-2.677 9.444-4.033a45.715 45.715 0 0 0 10.216 6.354 22.956 22.956 0 0 1-2.053 1.701c-3.654 2.698-8.327 4.734-13.886 6.47-11.119 3.472-25.875 5.568-42.162 5.568-16.286 0-31.043-2.096-42.161-5.568a54.49 54.49 0 0 1-9.799-4.138C3.584 107.961.001 103.297.004 98.466c.005-7.246-.005-49.726 0-49.857V23.936A5.367 5.367 0 0 1 .06 22.93c.393-4.313 3.218-7.792 6.607-10.294 3.654-2.698 8.327-4.754 13.886-6.49C31.67 2.673 46.428.662 62.714.662c16.287 0 31.043 2.011 42.162 5.483 5.56 1.736 10.232 3.792 13.886 6.49 3.462 2.556 6.314 6.13 6.607 10.574.012.08.022.161.03.242zm32.68 85.134c.373-.165.744-.335 1.111-.509.389.374.802.748 1.24 1.12l-.742.868a27.734 27.734 0 0 1-1.61-1.48zm21.212-64.417c-.27-.47-.548-.935-.835-1.395 1.436.382 2.92.741 4.45 1.078l-.246 1.114a109.44 109.44 0 0 1-3.37-.797zm3.134 38.663c.139.035.278.07.417.103l-.271 1.108a92.912 92.912 0 0 1-.563-.14c.143-.354.282-.711.417-1.07zM62.241 10.93c-15.38 0-29.282 1.97-38.915 4.978-4.816 1.504-8.545 3.282-10.694 4.868-2.149 1.586-2.352 2.535-2.352 2.685 0 .15.203 1.044 2.352 2.63 2.149 1.586 5.878 3.363 10.694 4.867 9.633 3.008 23.536 5.036 38.915 5.036 15.378 0 29.28-2.028 38.914-5.036 4.816-1.504 8.545-3.28 10.694-4.867 2.149-1.586 2.352-2.48 2.352-2.63 0-.15-.203-1.099-2.352-2.685s-5.878-3.364-10.694-4.868c-9.633-3.007-23.536-4.979-38.914-4.979zm112.486-3.67l-.34-1.09a93.143 93.143 0 0 1 5.536-1.535l.273 1.107a92.002 92.002 0 0 0-5.469 1.517zm8.795-2.279l-.238-1.115c1.821-.388 3.703-.742 5.638-1.063l.187 1.126c-1.919.317-3.783.669-5.587 1.052zm8.96-1.568l-.159-1.13a155.01 155.01 0 0 1 5.69-.691l.118 1.134c-1.92.199-3.805.428-5.649.687zm9.059-1.002l-.094-1.137c1.879-.155 3.786-.28 5.717-.377l.057 1.14c-1.919.095-3.814.22-5.68.374zm9.107-.514l-.036-1.14c1.892-.06 3.803-.091 5.728-.095l.002 1.14a193.01 193.01 0 0 0-5.694.095zm9.104-.071l.018-1.14c1.926.03 3.836.087 5.725.174L225.443 2a188.941 188.941 0 0 0-5.69-.174zm9.105.362l.074-1.139c1.932.125 3.837.28 5.71.464l-.111 1.135a170.745 170.745 0 0 0-5.673-.46zm9.076.831l.136-1.132c1.935.232 3.83.496 5.678.791l-.18 1.127a146.08 146.08 0 0 0-5.634-.786zm8.995 1.367l.21-1.121c1.934.36 3.808.756 5.614 1.186l-.264 1.11a115.84 115.84 0 0 0-5.56-1.175zm8.877 2.023l.303-1.1c1.007.276 1.988.563 2.942.861.88.275 1.726.554 2.543.84l-.377 1.076c-.805-.28-1.64-.556-2.506-.827a87.193 87.193 0 0 0-2.905-.85zm8.588 2.88l.435-1.055c1.908.784 3.638 1.62 5.207 2.519l-.569.99c-1.524-.874-3.21-1.688-5.073-2.455zm7.907 4.282l.673-.922.131.096c1.614 1.192 3.004 2.527 4.1 3.98l-.911.687c-1.027-1.36-2.338-2.62-3.868-3.75l-.125-.091zm5.648 6.676l1.052-.444c.525 1.244.843 2.538.935 3.841.042.325.063.59.065.862v1.175h-1.142v-1.17a6.192 6.192 0 0 0-.059-.753 10.994 10.994 0 0 0-.851-3.511zm.91 8.857H280v5.704h-1.142v-5.704zm0 9.126H280v5.704h-1.142V38.23zm0 9.126H280v5.704h-1.142v-5.704zm0 9.127H280v5.704h-1.142v-5.704zm0 9.126H280v5.704h-1.142v-5.704zm0 9.126H280v5.704h-1.142v-5.704zm0 9.127H280v5.704h-1.142v-5.704zm0 9.126H280v5.704h-1.142v-5.704zm-.292 8.975l1.11.266c-.454 1.892-1.376 3.662-2.71 5.306l-.887-.718c1.23-1.518 2.074-3.137 2.487-4.854zm-4.843 7.247l.742.867c-.424.363-.868.715-1.332 1.058a31.93 31.93 0 0 1-3.503 2.239l-.554-.998a30.79 30.79 0 0 0 3.377-2.157 23.34 23.34 0 0 0 1.27-1.009zm-7.679 4.68l.47 1.04a60.713 60.713 0 0 1-5.369 2.098l-.369-1.08a59.582 59.582 0 0 0 5.268-2.058zm-8.514 3.092l.326 1.093c-1.771.526-3.624 1.016-5.552 1.47l-.262-1.11a99.253 99.253 0 0 0 5.488-1.453zm-8.82 2.184l.228 1.118c-1.829.374-3.712.715-5.645 1.023l-.18-1.126c1.916-.306 3.784-.644 5.596-1.015zm-8.975 1.512l.153 1.13c-1.863.252-3.762.473-5.694.663l-.112-1.136c1.918-.188 3.804-.407 5.653-.657zm-9.061.956l.088 1.138c-1.883.146-3.791.262-5.72.348l-.05-1.14c1.915-.085 3.81-.2 5.682-.346zm-9.112.468l.03 1.14a188.116 188.116 0 0 1-5.72.061l.005-1.14a188.97 188.97 0 0 0 5.685-.061zm-9.101.014l-.026 1.14a182.424 182.424 0 0 1-5.725-.219l.062-1.14c1.878.103 3.775.175 5.689.219zm-9.1-.437l-.085 1.138c-1.93-.143-3.834-.316-5.707-.52l.123-1.134c1.86.203 3.751.375 5.668.516zm-9.071-.923l-.15 1.131c-1.931-.253-3.823-.54-5.668-.857l.193-1.124c1.83.315 3.708.599 5.625.85zm-8.976-1.471l-.224 1.118c-1.93-.384-3.8-.804-5.6-1.258l.28-1.106c1.781.449 3.632.865 5.544 1.246zm-8.838-2.136l-.318 1.096a88.878 88.878 0 0 1-1.767-.532 55.759 55.759 0 0 1-3.701-1.298l.417-1.062c1.17.458 2.373.88 3.625 1.271a87.73 87.73 0 0 0 1.744.525zm-8.488-3.133l-.484 1.034a57.7 57.7 0 0 1-3.04-1.532 47.265 47.265 0 0 1-2.015-1.333l.655-.934c.623.436 1.276.867 1.935 1.282.985.53 1.961 1.022 2.949 1.483zm-12.663-93.404l-1.066-.41c.685-1.777 1.784-3.44 3.235-4.968l.828.786c-1.352 1.423-2.37 2.962-2.997 4.592zm5.524-6.828l-.687-.912.167-.124c1.422-1.05 3.012-2.018 4.784-2.918l.518 1.016c-1.717.873-3.253 1.808-4.623 2.82l-.16.118zm7.868-4.36l-.442-1.052a67.354 67.354 0 0 1 5.409-1.979l.35 1.086a66.222 66.222 0 0 0-5.317 1.945zm48.001 1.98v1.14c-1.908 0-3.807.03-5.692.091l-.036-1.14c1.896-.06 3.807-.091 5.728-.091zm-9.164.235l.06 1.14c-1.919.099-3.814.23-5.68.39l-.098-1.137c1.879-.162 3.787-.293 5.718-.393zm-9.15.727l.124 1.134c-1.926.209-3.81.45-5.642.723l-.168-1.129a144.6 144.6 0 0 1 5.687-.728zm-9.083 1.28l.198 1.123c-1.936.34-3.796.717-5.568 1.125l-.257-1.112c1.792-.413 3.672-.793 5.627-1.137zm-8.977 1.974l.3 1.101c-.92.25-1.81.508-2.664.775-.95.297-1.864.606-2.742.927l-.393-1.071a61.51 61.51 0 0 1 2.794-.945c.869-.271 1.771-.534 2.705-.787zm-8.714 3.031l.467 1.041c-1.922.86-3.51 1.747-4.648 2.587l-.206.155-.694-.906.221-.166c1.211-.894 2.868-1.82 4.86-2.711zm-7.422 6.043l1.119-.229c.078.383.687 1.152 2.119 2.21.514.379 1.118.767 1.806 1.16l-.567.99a19.614 19.614 0 0 1-1.918-1.233c-1.637-1.21-2.414-2.19-2.56-2.898zm7.601 5.691l.463-1.043c1.585.7 3.366 1.371 5.289 1.986l-.349 1.086a54.54 54.54 0 0 1-5.403-2.029zm8.716 3.002l.298-1.102c1.74.47 3.587.907 5.524 1.309l-.232 1.117a97.276 97.276 0 0 1-5.59-1.324zm8.978 1.973l.199-1.124c1.816.321 3.693.61 5.62.866l-.15 1.13c-1.944-.257-3.836-.549-5.669-.872zm9.084 1.285l.124-1.134c1.857.203 3.749.375 5.668.514l-.083 1.138a158.81 158.81 0 0 1-5.709-.518zm9.153.732l.059-1.139a171 171 0 0 0 5.689.2l-.021 1.14a172.144 172.144 0 0 1-5.727-.2zm9.163.232v-1.141c1.907-.002 3.805-.035 5.69-.1l.04 1.14c-1.898.065-3.81.099-5.73.1zm9.166-.251l-.062-1.14c1.916-.103 3.81-.239 5.677-.405l.101 1.136c-1.879.168-3.787.304-5.716.409zm9.147-.753l-.126-1.134a142.48 142.48 0 0 0 5.639-.741l.172 1.128c-1.847.28-3.745.53-5.685.747zm9.08-1.31l-.203-1.123a109.64 109.64 0 0 0 5.565-1.144l.26 1.11c-1.791.42-3.67.806-5.623 1.157zm8.971-2.005l-.303-1.1c.86-.236 1.69-.48 2.493-.73 1.01-.315 1.98-.645 2.907-.987l.396 1.07a61.2 61.2 0 0 1-2.962 1.006 76.1 76.1 0 0 1-2.53.74zm8.706-3.059l-.472-1.04c1.85-.837 3.38-1.698 4.486-2.514.12-.088.234-.175.343-.26l.704.899c-.118.092-.24.185-.368.278-1.176.87-2.775 1.769-4.693 2.637zm7.158-6.228l-1.057.433c-.208-.507-.845-1.24-2.079-2.15-.555-.41-1.21-.828-1.962-1.25l.56-.995c.791.445 1.486.887 2.082 1.327 1.388 1.026 2.16 1.913 2.456 2.635zm-7.67-5.505l-.457 1.045a54.087 54.087 0 0 0-5.297-1.968l.346-1.088c1.959.62 3.78 1.3 5.409 2.011zm-8.723-2.973l-.295 1.102a95.467 95.467 0 0 0-5.528-1.29l.228-1.118c1.962.4 3.832.836 5.595 1.306zm-8.987-1.944l-.195 1.124a133.241 133.241 0 0 0-5.623-.846l.147-1.131c1.945.251 3.839.536 5.671.853zm-9.086-1.254l-.12 1.134a159.856 159.856 0 0 0-5.67-.497l.08-1.138a161 161 0 0 1 5.71.5zm-9.155-.707l-.057 1.14a175.005 175.005 0 0 0-5.689-.19l.02-1.14c1.924.032 3.835.096 5.726.19zm-38.18 48.4l.22-1.12c1.803.353 3.675.674 5.604.962l-.168 1.128c-1.947-.29-3.836-.614-5.655-.97zm9.066 1.435l.141-1.132c1.85.229 3.738.427 5.66.593l-.1 1.137a153.933 153.933 0 0 1-5.7-.598zm9.14.858l.073-1.139c1.876.123 3.773.214 5.686.274l-.036 1.14c-1.925-.06-3.835-.152-5.724-.275zm9.164.349l.013-1.14a174.124 174.124 0 0 0 5.695-.028l.025 1.14a174.965 174.965 0 0 1-5.733.028zm9.169-.135l-.047-1.14c1.914-.079 3.81-.19 5.682-.33l.086 1.137c-1.885.142-3.794.254-5.721.333zm9.152-.629l-.11-1.135c1.922-.187 3.809-.406 5.651-.656l.154 1.13a149.73 149.73 0 0 1-5.695.661zm9.1-1.167l-.183-1.126c1.931-.313 3.798-.66 5.588-1.038l.237 1.116c-1.809.382-3.693.732-5.642 1.048zm9.014-1.82l-.275-1.108a80.003 80.003 0 0 0 4.602-1.28c.286-.089.568-.18.848-.27l.356 1.083a64.6 64.6 0 0 1-.863.276 81.143 81.143 0 0 1-4.668 1.299zm8.787-2.748l-.42-1.06c1.973-.782 3.694-1.609 5.067-2.427l.585.98c-1.429.851-3.204 1.704-5.232 2.507zm8.09-4.625l-.795-.82c.648-.626.89-1.055.89-1.147v-3.808h1.143v3.808c0 .457-.39 1.146-1.238 1.967zm-.597-11.938l-.493-1.03a38.893 38.893 0 0 0 1.488-.748l.84-.446v4.965h-1.143v-3.08c-.227.114-.458.227-.692.339zm-3.602.316l.42 1.062a75.361 75.361 0 0 1-5.172 1.805l-.275.085-.337-1.09.27-.084a74.235 74.235 0 0 0 5.094-1.778zm-8.637 2.804l.296 1.102c-1.789.48-3.653.925-5.584 1.334l-.237-1.116c1.911-.405 3.756-.846 5.525-1.32zM246.3 44.7l.206 1.122c-1.839.337-3.728.642-5.661.914l-.16-1.13c1.918-.27 3.792-.572 5.615-.906zm-9 1.343l.133 1.133a163.7 163.7 0 0 1-5.703.57l-.094-1.137c1.918-.158 3.808-.347 5.663-.566zm-9.08.813l.07 1.138c-1.886.118-3.795.207-5.723.266l-.035-1.14c1.915-.059 3.812-.147 5.687-.264zm-9.105.338l.014 1.14a191.85 191.85 0 0 1-5.73-.013l.02-1.14a190.26 190.26 0 0 0 5.696.013zm-9.11-.104l-.041 1.14a180.347 180.347 0 0 1-5.722-.295l.077-1.138c1.874.127 3.77.225 5.686.293zm-9.097-.557l-.1 1.136c-1.932-.17-3.833-.37-5.7-.6l.141-1.133c1.853.23 3.74.428 5.66.597zm-9.043-1.054l-.166 1.128c-1.933-.284-3.82-.602-5.656-.951l.214-1.12c1.82.346 3.69.66 5.608.943zm-5.928 39.323l.234-1.117c1.792.374 3.66.717 5.59 1.025l-.18 1.127a120.776 120.776 0 0 1-5.644-1.035zm9.05 1.534l.152-1.13c1.843.247 3.73.463 5.652.646l-.108 1.136a150.422 150.422 0 0 1-5.696-.652zm9.13.942l.085-1.138c1.872.138 3.769.246 5.683.322l-.045 1.14a168.16 168.16 0 0 1-5.722-.324zm9.16.425l.023-1.14a173.85 173.85 0 0 0 5.697.018l.015 1.141a175.39 175.39 0 0 1-5.734-.019zm9.171-.06l-.037-1.14c1.912-.063 3.81-.157 5.684-.282l.076 1.138a169.6 169.6 0 0 1-5.723.284zm9.157-.55l-.1-1.136c1.92-.17 3.81-.37 5.658-.604l.143 1.132c-1.863.235-3.766.438-5.701.608zm9.11-1.079l-.17-1.128c1.93-.29 3.8-.616 5.601-.973l.222 1.12c-1.818.36-3.706.688-5.652.981zm9.03-1.707l-.258-1.11a84.539 84.539 0 0 0 5.483-1.458l.332 1.091a85.678 85.678 0 0 1-5.556 1.477zm8.84-2.572l-.392-1.07c1.948-.713 3.695-1.476 5.166-2.25l.532 1.01c-1.518.798-3.311 1.581-5.305 2.31zm8.298-4.174l-.693-.907c1.39-1.06 1.916-1.804 1.918-2.018v-2.395h1.143v2.4c-.007.65-.726 1.668-2.368 2.92zm1.29-14.55l.238-.126.84-.445v6.379h-1.143v-5.43h.262l-.198-.378zm-3.06 1.438l.446 1.05a66.375 66.375 0 0 1-5.402 1.998l-.354-1.084a65.25 65.25 0 0 0 5.31-1.964zm-8.578 2.96l.313 1.097c-1.779.505-3.637.976-5.567 1.41l-.251-1.113c1.91-.43 3.747-.895 5.505-1.394zm-8.847 2.094l.218 1.12c-1.833.356-3.719.68-5.652.972l-.17-1.128a133.44 133.44 0 0 0 5.604-.964zm-8.986 1.433l.144 1.132c-1.865.237-3.766.444-5.698.62l-.103-1.137c1.918-.174 3.806-.38 5.657-.615zm-9.073.89l.08 1.139c-1.884.133-3.792.236-5.72.31l-.044-1.14c1.916-.073 3.812-.176 5.684-.308zm-9.1.41l.024 1.14a191.071 191.071 0 0 1-5.733.03l.011-1.142a191.23 191.23 0 0 0 5.699-.028zm-9.113-.036l-.033 1.14a182.66 182.66 0 0 1-5.724-.25l.068-1.139c1.876.112 3.773.195 5.689.249zm-9.098-.485l-.09 1.137a164.903 164.903 0 0 1-5.706-.551l.13-1.133c1.857.212 3.747.395 5.666.547zm-9.053-.973l-.156 1.13a140.543 140.543 0 0 1-5.665-.893l.202-1.123c1.826.327 3.7.623 5.619.886zm-24.743 32.854l.574-.986c1.394.81 3.12 1.623 5.088 2.39l-.415 1.063c-2.02-.788-3.8-1.626-5.247-2.467zm8.511 3.626l.352-1.085a80.635 80.635 0 0 0 5.459 1.533l-.272 1.108a81.774 81.774 0 0 1-5.539-1.556zm8.904 2.317l.234-1.117c1.792.375 3.66.717 5.59 1.026l-.18 1.126a120.776 120.776 0 0 1-5.644-1.035zm9.05 1.535l.152-1.131c1.843.247 3.73.463 5.652.646l-.108 1.136a150.42 150.42 0 0 1-5.696-.651zm9.13.941l.085-1.138c1.872.139 3.769.246 5.683.322l-.045 1.14a168.161 168.161 0 0 1-5.722-.324zm9.16.425l.023-1.14a173.85 173.85 0 0 0 5.697.019l.015 1.14a175.388 175.388 0 0 1-5.734-.019zm9.171-.06l-.037-1.14c1.912-.063 3.81-.157 5.684-.282l.076 1.138c-1.887.126-3.797.221-5.723.284zm9.157-.55l-.1-1.136c1.92-.17 3.81-.37 5.658-.603l.143 1.131c-1.863.235-3.766.438-5.701.608zm9.11-1.079l-.17-1.128c1.93-.29 3.8-.616 5.601-.973l.222 1.12c-1.818.36-3.706.688-5.652.981zm9.03-1.706l-.258-1.112a84.54 84.54 0 0 0 5.483-1.457l.332 1.092a85.678 85.678 0 0 1-5.556 1.477zm8.84-2.572l-.392-1.072c1.948-.712 3.695-1.475 5.166-2.248l.532 1.01c-1.518.798-3.311 1.58-5.305 2.31zm8.298-4.175l-.693-.907c1.39-1.06 1.916-1.804 1.918-2.018V96.98h1.143v2.4c-.007.651-.726 1.669-2.368 2.92zm1.29-14.55l.238-.126.84-.445v6.379h-1.143v-5.43h.262l-.198-.378zm-3.06 1.438l.446 1.05a66.375 66.375 0 0 1-5.402 1.998l-.354-1.084a65.25 65.25 0 0 0 5.31-1.964zm-8.578 2.96l.313 1.097c-1.779.505-3.637.976-5.567 1.41l-.251-1.113c1.91-.43 3.747-.895 5.505-1.394zm-8.847 2.094l.218 1.12c-1.833.356-3.719.681-5.652.972l-.17-1.128a133.44 133.44 0 0 0 5.604-.964zm-8.986 1.434l.144 1.131c-1.865.237-3.766.444-5.698.62l-.103-1.136c1.918-.175 3.806-.38 5.657-.615zm-9.073.89l.08 1.138c-1.884.133-3.792.237-5.72.31l-.044-1.14c1.916-.073 3.812-.176 5.684-.308zm-9.1.409l.024 1.14a191.072 191.072 0 0 1-5.733.03l.011-1.141a191.233 191.233 0 0 0 5.699-.03zm-9.113-.036l-.033 1.14a182.66 182.66 0 0 1-5.724-.25l.068-1.138c1.876.111 3.773.194 5.689.248zm-9.098-.485l-.09 1.137a164.903 164.903 0 0 1-5.706-.55l.13-1.134c1.857.212 3.747.395 5.666.547zm-9.053-.973l-.156 1.13a140.542 140.542 0 0 1-5.665-.892l.202-1.123c1.826.327 3.7.622 5.619.885zm-8.978-1.534l-.232 1.117c-1.931-.4-3.797-.837-5.59-1.307l.29-1.103c1.774.465 3.62.897 5.532 1.293zm-19.953-31.01a5.847 5.847 0 0 1 1.88 3.892c.132 1.787-.552 2.868-1.87 4.076l-23.43 21.651a5.807 5.807 0 0 1-5.787 1.434 5.832 5.832 0 0 1-4.009-4.427 5.85 5.85 0 0 1 1.976-5.643l12.395-11.494h-28.11a5.817 5.817 0 0 1-5.11-2.896c-1.057-1.818-1.066-3.4-.008-5.219a5.817 5.817 0 0 1 5.11-2.895h28.11l-12.387-11.678a5.85 5.85 0 0 1-1.976-5.643 5.832 5.832 0 0 1 4.009-4.427 5.807 5.807 0 0 1 5.788 1.433l23.42 21.835z"/>
</svg>
