<svg width="18px" height="18px" viewBox="0 0 18 18" version="1.1" xmlns="http://www.w3.org/2000/svg" xmlns:xlink="http://www.w3.org/1999/xlink">
    <g id="Guides,-States,-etc" stroke="none" stroke-width="1" fill="none" fill-rule="evenodd">
        <g id="Group-15" transform="translate(-1.000000, -1.000000)" fill="#6F898D" fill-rule="nonzero">
            <path d="M12.0769231,6.74324324 L10.6923077,6.74324324 L10.6923077,4 C10.6923077,2.34314575 12.0354534,1 13.6923077,1 L16,1 C17.6568542,1 19,2.34314575 19,4 L19,16 C19,17.6568542 17.6568542,19 16,19 L13.6923077,19 C12.0354534,19 10.6923077,17.6568542 10.6923077,16 L10.6923077,13.1602432 L12.0769231,13.1602432 L12.0769231,15.6783784 C12.0769231,16.7829479 12.9723536,17.6783784 14.0769231,17.6783784 L15.6153846,17.6783784 C16.7199541,17.6783784 17.6153846,16.7829479 17.6153846,15.6783784 L17.6153846,4.37837838 C17.6153846,3.27380888 16.7199541,2.37837838 15.6153846,2.37837838 L14.0769231,2.37837838 C12.9723536,2.37837838 12.0769231,3.27380888 12.0769231,4.37837838 L12.0769231,6.74324324 Z M7.92307692,13.1602432 L9.30769231,13.1602432 L9.30769231,16 C9.30769231,17.6568542 7.96454656,19 6.30769231,19 L4,19 C2.34314575,19 1,17.6568542 1,16 L1,4 C1,2.34314575 2.34314575,1 4,1 L6.30769231,1 C7.96454656,1 9.30769231,2.34314575 9.30769231,4 L9.30769231,6.74324324 L7.92307692,6.74324324 L7.92307692,4.37837838 C7.92307692,3.27380888 7.02764642,2.37837838 5.92307692,2.37837838 L4.38461538,2.37837838 C3.28004588,2.37837838 2.38461538,3.27380888 2.38461538,4.37837838 L2.38461538,15.6783784 C2.38461538,16.7829479 3.28004588,17.6783784 4.38461538,17.6783784 L5.92307692,17.6783784 C7.02764642,17.6783784 7.92307692,16.7829479 7.92307692,15.6783784 L7.92307692,13.1602432 Z M5.3756044,8.2 C6.03406593,8.2 6.59758242,8.58157014 6.87186813,9.13029601 L13.1874725,9.13029601 C13.4617582,8.58157014 14.0252747,8.2 14.6837363,8.2 C15.6094505,8.2 16.3593407,8.94738739 16.3593407,9.86805663 C16.3593407,10.789601 15.6094505,11.5369884 14.6837363,11.5369884 C14.049011,11.5369884 13.5030769,11.1807979 13.2182418,10.6618275 L6.8410989,10.6618275 C6.55626374,11.1807979 6.01120879,11.5369884 5.3756044,11.5369884 C4.44989011,11.5369884 3.7,10.789601 3.7,9.86805663 C3.7,8.94738739 4.44989011,8.2 5.3756044,8.2 Z" id="ic_pipelines"></path>
        </g>
    </g>
</svg>
