<svg width="19px" height="19px" viewBox="0 0 19 19" version="1.1" xmlns="http://www.w3.org/2000/svg" xmlns:xlink="http://www.w3.org/1999/xlink">
    <g id="TDM---Admin" stroke="none" stroke-width="1" fill="none" fill-rule="evenodd">
        <path d="M5.13666082,14.4801734 C5.23464679,15.0039664 5.38367629,15.5097825 5.57838944,15.9922618 C4.51187921,15.8651558 3.5460071,15.6656522 2.72834029,15.41 C2.23033743,15.2542857 1.81273291,15.067881 1.42761315,14.86 C0.475802448,14.2620952 0.000107908808,13.6420952 0.000529526216,13 C0.00116195233,12.0368572 -0.000102899895,6.39043153 0.000529526216,6.37308571 L0.000529526216,3.09358571 C-0.00119462535,3.04883219 0.00129388177,3.00401562 0.00796214526,2.95972857 C0.0601751453,2.38641667 0.435141598,1.92397143 0.885024098,1.5914119 C1.37009243,1.23284524 1.99035719,0.959514286 2.72834029,0.728778571 C4.204306,0.267304762 6.16317862,-5.07530526e-16 8.32518315,-8.17124146e-14 C10.4871879,-8.17124146e-14 12.4460608,0.267304762 13.9220265,0.728778571 C14.6600093,0.959514286 15.2802741,1.23284524 15.7653427,1.5914119 C16.2249639,1.93116905 16.6035127,2.40616905 16.6424043,2.9969119 C16.6470688,3.02893075 16.6495523,3.06122982 16.6498377,3.09358571 L16.6498377,5.87920886 C16.1974625,5.64687246 15.7200644,5.45637757 15.2227539,5.31283491 L15.2227539,4.93040238 C15.0552915,5.01942747 14.8773312,5.10154315 14.6888893,5.17860139 C14.1444405,5.06159753 13.5794137,5 13,5 C11.4645481,5 10.0301288,5.43257183 8.81195941,6.18249806 C8.65094257,6.18560096 8.48864367,6.18717143 8.32518362,6.18717143 C6.16317862,6.18717143 4.204306,5.91243333 2.72834029,5.45095714 C2.24092791,5.29856667 1.8072891,5.13224286 1.42761315,4.93040238 L1.42761315,6.3582119 C1.42865884,6.38050916 1.42865884,6.40284322 1.42761315,6.42514048 C1.42761315,6.44504286 1.45456862,6.56381905 1.73978743,6.77465714 C2.02500648,6.98549286 2.52008053,7.22172857 3.15943838,7.42163095 C4.09400491,7.71383553 5.33134522,7.93642354 6.72667553,8.03507089 C6.39334544,8.45567393 6.10141759,8.91058121 5.85704925,9.39363546 C4.67988652,9.27036123 3.61665293,9.0602594 2.72834029,8.7825119 C2.24092791,8.63011667 1.8072891,8.46379762 1.42761315,8.26195714 L1.42761315,9.68233333 C1.42890402,9.70710222 1.42890402,9.73192159 1.42761315,9.75669048 C1.42761315,9.77659524 1.4545691,9.89535714 1.73978743,10.1062143 C2.025006,10.3170238 2.52008053,10.5533095 3.15943838,10.7531905 C3.73649855,10.933617 4.42899404,11.0875005 5.20284106,11.2020531 C5.10069927,11.6468235 5.03563472,12.1057477 5.01107497,12.5753982 C4.16807947,12.4511 3.39844075,12.2800742 2.72834029,12.0705548 C2.24092791,11.9181595 1.8072891,11.7518405 1.42761315,11.55 L1.42761315,12.9703762 C1.42890402,12.9951451 1.42890402,13.0199644 1.42761315,13.0447333 C1.42761315,13.0646381 1.4545691,13.1834 1.73978743,13.3942571 C2.025006,13.6050667 2.52008053,13.8413524 3.15943838,14.0412333 C3.71999848,14.2165009 4.38948693,14.3667216 5.13666082,14.4801734 Z M8.32518362,1.42780952 C6.28368695,1.42780952 4.43815315,1.68985714 3.15943838,2.08965714 C2.52008076,2.28955952 2.02500529,2.5258 1.73978743,2.73663333 C1.45456981,2.94746905 1.42761315,3.07365714 1.42761315,3.09358571 C1.42761315,3.11349286 1.45456957,3.23226667 1.73978743,3.44310238 C2.02500553,3.6539381 2.52008076,3.89017857 3.15943838,4.09007857 C4.43815315,4.48987857 6.28368719,4.75936429 8.32518362,4.75936429 C10.3666798,4.75936429 12.2122134,4.48987857 13.4909286,4.09007857 C14.130286,3.89017857 14.6253617,3.6539381 14.9105796,3.44310238 C15.1957972,3.23226667 15.2227539,3.11351429 15.2227539,3.09358571 C15.2227539,3.07367857 15.1957972,2.94746905 14.9105796,2.73663333 C14.6253617,2.5258 14.130286,2.28955952 13.4909286,2.08965714 C12.2122136,1.68985714 10.3666801,1.42780952 8.32518362,1.42780952 Z M18.118466,12.2190516 C18.3394146,12.421356 18.4745223,12.7008637 18.4959585,13 C18.5225189,13.358491 18.3850968,13.5753964 18.1202029,13.8178217 L13.4142136,18.1615835 C13.1087926,18.4641262 12.6624238,18.5745274 12.25159,18.4491371 C11.8407562,18.3237469 11.5315996,17.9827524 11.4463528,17.5609742 C11.361106,17.139196 11.5134933,16.7045382 11.8432646,16.4288534 L14.3329572,14.1228801 L8.68659452,14.1228801 C8.26499666,14.1288498 7.87284958,13.9068926 7.66031208,13.5419991 C7.44777458,13.1771056 7.44603774,12.8597673 7.65857524,12.4948738 C7.87111274,12.1299803 8.26325982,11.9080231 8.68485769,11.9139928 L14.3312204,11.9139928 L11.8432646,9.57114657 C11.5134933,9.29546182 11.361106,8.86080402 11.4463528,8.43902583 C11.5315996,8.01724765 11.8407562,7.67625314 12.25159,7.55086288 C12.6624238,7.42547262 13.1087926,7.53587378 13.4142136,7.83841654 L18.118466,12.2190516 Z" id="ic_source_data" fill="#000000" fill-rule="nonzero"></path>
    </g>
</svg>
