<svg width="17px" height="18px" viewBox="0 0 17 18" version="1.1" xmlns="http://www.w3.org/2000/svg" xmlns:xlink="http://www.w3.org/1999/xlink">
    <g id="TDM---Admin" stroke="none" stroke-width="1" fill="none" fill-rule="evenodd">
        <g id="Group-18" transform="translate(-2.000000, -1.000000)">
            <path d="M16.25,16 L16.25,19 L4.25,19 L4.25,16 L5.75,16 L5.75,6.25 L4.25,6.25 L4.25,1 L14.006226,1 L16.25,4 L16.25,6.25 L14.75,6.25 L14.75,16 L16.25,16 Z M5.75,2.5 L5.75,17.5 L14.75,17.5 L14.75,4.74955813 L12.5049876,4.75 L12.5018425,2.5 L5.75,2.5 Z M2.75,7 L2.75,15.25 L17.75,15.25 L17.75,7 L2.75,7 Z M2,6.25 L18.5,6.25 L18.5,16 L2,16 L2,6.25 Z M4.53344727,12.4528809 C4.53344727,12.2507314 4.59332216,12.0947271 4.71307373,11.9848633 C4.83282531,11.8749995 5.00695687,11.8200684 5.23547363,11.8200684 C5.45300402,11.8200684 5.61999453,11.8749995 5.7364502,11.9848633 C5.85290586,12.0947271 5.91113281,12.2507314 5.91113281,12.4528809 C5.91113281,12.6506358 5.85125792,12.8049921 5.73150635,12.9159546 C5.61175477,13.0269171 5.44641219,13.0823975 5.23547363,13.0823975 C5.01794325,13.0823975 4.84655824,13.0274664 4.72131348,12.9176025 C4.59606871,12.8077387 4.53344727,12.652833 4.53344727,12.4528809 Z M7.70981444,13 L6.42111816,13 L6.42111816,7.87158203 L7.70981444,7.87158203 L7.70981444,13 Z M11.944165,11.1246338 C11.944165,11.7354767 11.7799211,12.2117292 11.4514282,12.5534058 C11.1229354,12.8950823 10.6631621,13.065918 10.0720947,13.065918 C9.50519734,13.065918 9.05421308,12.8912371 8.7191284,12.5418701 C8.38404372,12.1925031 8.21650389,11.7200958 8.21650389,11.1246338 C8.21650389,10.5159882 8.38074785,10.0430315 8.7092407,9.70574951 C9.03773356,9.36846755 9.49860541,9.1998291 10.0918701,9.1998291 C10.4588153,9.1998291 10.7829087,9.27783125 11.0641601,9.43383789 C11.3454115,9.58984453 11.5623894,9.81341407 11.7151001,10.1045532 C11.8678108,10.3956924 11.944165,10.7357158 11.944165,11.1246338 Z M9.52497557,11.1246338 C9.52497557,11.4454362 9.56782182,11.6898795 9.65351561,11.8579712 C9.73920939,12.0260629 9.88312885,12.1101074 10.0852783,12.1101074 C10.2852305,12.1101074 10.4264034,12.0260629 10.5088013,11.8579712 C10.5911991,11.6898795 10.6323974,11.4454362 10.6323974,11.1246338 C10.6323974,10.8060287 10.5906498,10.5654305 10.5071533,10.402832 C10.4236568,10.2402336 10.280836,10.1589355 10.0786865,10.1589355 C9.88093161,10.1589355 9.73920939,10.2396843 9.65351561,10.4011841 C9.56782182,10.5626839 9.52497557,10.8038314 9.52497557,11.1246338 Z M15.9774658,9.26574707 L15.9774658,9.88867187 L15.4666015,10.0765381 C15.5369144,10.2039801 15.5720703,10.3522941 15.5720703,10.5214844 C15.5720703,10.923586 15.4308974,11.2355946 15.1485473,11.4575195 C14.8661973,11.6794445 14.4448758,11.7904053 13.8845703,11.7904053 C13.7461419,11.7904053 13.6362797,11.7816163 13.5549804,11.7640381 C13.5242186,11.8211673 13.5088379,11.8749997 13.5088379,11.9255371 C13.5088379,11.9892581 13.5604731,12.0381468 13.6637451,12.0722046 C13.7670171,12.1062624 13.9021476,12.123291 14.0691406,12.123291 L14.6887695,12.123291 C15.5259319,12.123291 15.9445068,12.4759486 15.9445068,13.1812744 C15.9445068,13.6361107 15.7506001,13.9898669 15.3627807,14.2425537 C14.9749614,14.4952405 14.4305943,14.621582 13.7296631,14.621582 C13.2001194,14.621582 12.7919814,14.533143 12.5052368,14.3562622 C12.2184922,14.1793814 12.075122,13.9250505 12.075122,13.5932617 C12.075122,13.1472146 12.3519747,12.8593756 12.9056884,12.7297363 C12.7914301,12.6813962 12.6920048,12.6033941 12.6074096,12.4957275 C12.5228145,12.388061 12.4805176,12.2814947 12.4805176,12.1760254 C12.4805176,12.0595697 12.5123776,11.9568486 12.5760986,11.8678589 C12.6398196,11.7788692 12.7727529,11.6728522 12.9749023,11.5498047 C12.781542,11.4641109 12.6293829,11.330079 12.5184204,11.1477051 C12.4074579,10.9653311 12.3519775,10.7434095 12.3519775,10.4819336 C12.3519775,10.0754374 12.4904039,9.76013296 12.7672607,9.53601074 C13.0441176,9.31188853 13.4396214,9.1998291 13.9537842,9.1998291 C14.0218997,9.1998291 14.1394523,9.20751945 14.3064453,9.22290039 C14.4734383,9.23828133 14.596484,9.25256341 14.6755859,9.26574707 L15.9774658,9.26574707 Z M13.1627685,13.4647217 C13.1627685,13.570191 13.2198969,13.6553341 13.3341552,13.7201538 C13.4484136,13.7849735 13.6011221,13.8173828 13.7922851,13.8173828 C14.1042984,13.8173828 14.3542349,13.7783817 14.542102,13.7003784 C14.7299692,13.6223751 14.8239013,13.5218512 14.8239013,13.3988037 C14.8239013,13.2999263 14.766773,13.2301638 14.6525146,13.1895142 C14.5382562,13.1488645 14.3745616,13.12854 14.1614258,13.12854 L13.6571533,13.12854 C13.5187249,13.12854 13.4017216,13.1609494 13.3061401,13.225769 C13.2105586,13.2905887 13.1627685,13.3702388 13.1627685,13.4647217 Z M13.568164,10.4885254 C13.568164,10.8708515 13.7010973,11.0620117 13.9669677,11.0620117 C14.0900152,11.0620117 14.185046,11.014771 14.252063,10.9202881 C14.3190799,10.8258052 14.3525879,10.684083 14.3525879,10.4951172 C14.3525879,10.1083965 14.2240491,9.91503906 13.9669677,9.91503906 C13.7010973,9.91503906 13.568164,10.1061993 13.568164,10.4885254 Z" id="Mask" fill="#97DEE8"></path>
        </g>
    </g>
</svg>
