<svg width="16px" height="16px" viewBox="0 0 16 16" version="1.1" xmlns="http://www.w3.org/2000/svg" xmlns:xlink="http://www.w3.org/1999/xlink">
    <path d="M10,10 L11.625,10 C11.8677316,10 12,9.81810517 12,9.5 L12,4.5 C12,4.18189483 11.8677316,4 11.625,4 L6.375,4 C6.13226837,4 6,4.18189483 6,4.5 L6,6 L4.375,6 C4.13226837,6 4,6.18189483 4,6.5 L4,11.5 C4,11.8181052 4.13226837,12 4.375,12 L9.625,12 C9.86773163,12 10,11.8181052 10,11.5 L10,10 Z M10,9 L10,6.5 C10,6.18189483 9.86773163,6 9.625,6 L7,6 L7,5 L11,5 L11,9 L10,9 Z M8,16 C3.581722,16 0,12.418278 0,8 C0,3.581722 3.581722,0 8,0 C12.418278,0 16,3.581722 16,8 C16,12.418278 12.418278,16 8,16 Z M5,7 L9,7 L9,11 L5,11 L5,7 Z" id="ic_exec_status_queued" fill="#BBC7CD"></path>
</svg>
