<svg xmlns="http://www.w3.org/2000/svg" width="280" height="124" viewBox="0 0 280 124">
    <path fill="#D1D8DB" fill-rule="nonzero" d="M158.884 108.844a45.856 45.856 0 0 0 9.76-6.05c2.221 1.346 5.441 2.764 9.389 3.998 9.665 3.022 23.615 5.06 39.045 5.06 15.43 0 29.38-2.038 39.045-5.06 4.833-1.51 8.575-3.296 10.73-4.89 2.157-1.594 2.36-2.49 2.36-2.642V87.962c-2.87 1.526-6.147 2.783-9.831 3.935-11.156 3.488-25.962 5.565-42.304 5.565-14.893 0-28.51-1.725-39.252-4.671a45.704 45.704 0 0 0 4.932-9.538c9.241 2.284 21.25 3.746 34.32 3.746 15.43 0 29.38-2.037 39.045-5.06 4.833-1.51 8.575-3.296 10.73-4.89 2.157-1.593 2.36-2.49 2.36-2.641V63.11c-2.87 1.525-6.147 2.783-9.831 3.934-11.156 3.489-25.962 5.565-42.304 5.565-11.5 0-22.239-1.028-31.481-2.853a46.093 46.093 0 0 0-.726-11.187c8.926 1.996 20.111 3.248 32.207 3.248 15.43 0 29.38-2.037 39.045-5.059 4.833-1.51 8.575-3.296 10.73-4.89 2.157-1.594 2.36-2.491 2.36-2.642V37.93c-2.87 1.525-6.147 2.782-9.831 3.934-11.156 3.488-25.962 5.565-42.304 5.565-14.435 0-27.671-1.62-38.253-4.403-5.618-9.067-14.31-16.03-24.62-19.433l.008-.059c.394-4.333 3.228-7.829 6.629-10.342 3.666-2.71 8.355-4.777 13.933-6.52 11.156-3.489 25.962-5.51 42.303-5.51 16.342 0 31.148 2.021 42.304 5.51 5.578 1.743 10.266 3.81 13.933 6.52 3.474 2.568 6.335 6.158 6.629 10.623a5.4 5.4 0 0 1 .056.73v75.332c0 4.816-3.02 8.552-6.685 11.262-3.667 2.71-8.355 4.756-13.933 6.5-11.156 3.488-25.962 5.593-42.304 5.593-16.341 0-31.147-2.105-42.303-5.593a54.635 54.635 0 0 1-9.832-4.157c-2.43-1.527-4.45-3.072-6.059-4.637zM126.87 23.148c-.374.11-.745.225-1.115.344a11.1 11.1 0 0 0-.82-3.154l1.055-.445c.446 1.057.743 2.15.88 3.255zm-32.283 36.52l-.05.314c-1.781.375-3.635.719-5.55 1.029l-.183-1.131c1.937-.314 3.81-.663 5.607-1.043l.176.831zm5.27-15.002c-1.006.243-2.031.476-3.077.697l-.238-1.12c1.413-.3 2.788-.62 4.124-.957a45.81 45.81 0 0 0-.81 1.38zm-2.89 38.778c.137.36.279.72.425 1.076l-.755.179-.26-1.117.59-.138zm-2.819-12.37c-1.636.31-3.314.594-5.028.853l-.171-1.133c1.746-.264 3.453-.554 5.116-.872.023.385.05.769.083 1.151zm8.512 22.909c-1.446.392-2.942.762-4.483 1.11l-.252-1.119c1.383-.311 2.728-.641 4.033-.99.23.337.463.67.702.999zM11.368 38.5l.268-.504c.225.12.454.238.686.355l-.385.762v5.118H10.79V38.5h.577zm205.71-27.047c-15.43 0-29.38 1.98-39.045 5.003-4.833 1.51-8.575 3.296-10.73 4.89-2.156 1.593-2.36 2.547-2.36 2.698 0 .15.204 1.048 2.36 2.642 2.155 1.593 5.897 3.379 10.73 4.89 9.665 3.022 23.615 5.059 39.045 5.059 15.43 0 29.38-2.037 39.045-5.06 4.833-1.51 8.575-3.296 10.73-4.89 2.157-1.593 2.36-2.49 2.36-2.641 0-.15-.203-1.105-2.36-2.698-2.155-1.594-5.897-3.38-10.73-4.89-9.665-3.022-23.614-5.003-39.045-5.003zM21.366 7.29l-.342-1.094a93.362 93.362 0 0 1 5.556-1.543l.273 1.113c-1.914.471-3.746.98-5.487 1.524zm8.825-2.288l-.239-1.121a126.52 126.52 0 0 1 5.657-1.068l.187 1.131c-1.925.32-3.795.672-5.605 1.058zm8.99-1.576l-.16-1.135a155.34 155.34 0 0 1 5.71-.695l.118 1.14c-1.927.2-3.818.43-5.668.69zm9.089-1.007l-.094-1.142c1.885-.156 3.799-.282 5.736-.379l.057 1.145c-1.925.096-3.826.222-5.7.376zm9.138-.516L57.372.757c1.899-.06 3.816-.091 5.747-.095l.002 1.146c-1.92.004-3.826.035-5.713.095zm9.135-.072L66.56.685c1.933.03 3.849.089 5.744.176l-.053 1.145a189.334 189.334 0 0 0-5.71-.175zm9.135.364l.074-1.144c1.939.126 3.85.281 5.73.466l-.112 1.14a171.103 171.103 0 0 0-5.692-.462zm9.107.835l.137-1.138c1.941.234 3.842.5 5.697.796l-.181 1.132c-1.84-.295-3.726-.558-5.653-.79zm9.025 1.373l.21-1.126c1.941.362 3.822.76 5.634 1.191l-.265 1.115c-1.794-.427-3.656-.82-5.579-1.18zm8.908 2.032l.303-1.105c1.01.278 1.995.567 2.953.866.881.276 1.73.556 2.55.843l-.378 1.082a79.852 79.852 0 0 0-2.514-.831 87.4 87.4 0 0 0-2.914-.855zm8.616 2.894l.437-1.06c1.914.788 3.65 1.627 5.224 2.53l-.57.995c-1.53-.878-3.221-1.695-5.09-2.465zm7.934 4.302l.676-.926.13.097c1.62 1.197 3.014 2.539 4.115 3.998l-.915.69c-1.03-1.366-2.346-2.632-3.88-3.767l-.126-.092zm1.427 96.086l.745.871c-.425.364-.871.718-1.336 1.063a32.033 32.033 0 0 1-3.515 2.249l-.556-1.002a30.888 30.888 0 0 0 3.389-2.168c.443-.33.869-.667 1.273-1.013zm-7.704 4.702l.472 1.044a60.87 60.87 0 0 1-5.388 2.108l-.37-1.084a59.737 59.737 0 0 0 5.286-2.068zm-8.543 3.106l.327 1.098a100.63 100.63 0 0 1-5.571 1.477l-.263-1.116a99.486 99.486 0 0 0 5.507-1.46zm-8.85 2.194l.23 1.123c-1.836.376-3.726.719-5.665 1.028l-.18-1.132c1.922-.306 3.796-.646 5.615-1.019zm-9.005 1.519l.154 1.135c-1.87.253-3.776.475-5.714.666l-.112-1.14c1.925-.19 3.817-.41 5.672-.661zm-9.092.96l.089 1.143c-1.89.147-3.804.264-5.739.35l-.051-1.144c1.922-.087 3.824-.203 5.701-.348zm-9.142.47l.03 1.146a188.507 188.507 0 0 1-5.74.061l.005-1.146a189.335 189.335 0 0 0 5.705-.06zm-9.132.015l-.026 1.145a182.803 182.803 0 0 1-5.744-.22l.062-1.145c1.884.103 3.788.176 5.708.22zm-9.131-.439l-.085 1.143a166.806 166.806 0 0 1-5.726-.522l.124-1.14c1.866.204 3.763.377 5.687.52zm-9.101-.928l-.15 1.137a144.038 144.038 0 0 1-5.688-.86l.194-1.13c1.837.316 3.72.6 5.644.853zm-9.007-1.478l-.224 1.124a115.032 115.032 0 0 1-5.619-1.264l.28-1.111c1.788.45 3.645.868 5.563 1.251zm-8.867-2.146l-.319 1.101a89.09 89.09 0 0 1-1.773-.534 55.898 55.898 0 0 1-3.714-1.304l.418-1.067c1.175.46 2.382.885 3.638 1.277.574.18 1.157.356 1.75.527zm-8.517-3.147l-.485 1.039a57.864 57.864 0 0 1-3.05-1.54c-.71-.445-1.382-.89-2.023-1.338l.658-.94c.625.439 1.28.872 1.942 1.289a57.408 57.408 0 0 0 2.958 1.49zm-7.584-4.843l-.744.872c-1.66-1.417-2.994-2.854-3.996-4.314l.944-.65c.943 1.373 2.208 2.737 3.796 4.092zm-5.323-7.045l-1.082.377a10.66 10.66 0 0 1-.611-3.54v-2.29h1.147v2.291c-.002 1.061.18 2.114.546 3.162zm-.546-8.892H.005v-5.731h1.146v5.73zm0-9.169H.005v-5.73H1.15v5.73zm0-9.171H.003v-.45V69.695H1.15V75.425zm-.001-9.169H.003v-5.731h1.146v5.731zm-.001-9.168H.003v-5.73h1.146v5.73zm.001-9.168H.004v-5.731H1.15v5.73zm0-9.17H.004v-5.73H1.15v5.73zm0-9.168H.004V24.64a5.972 5.972 0 0 1 .028-.848l1.14.119a4.97 4.97 0 0 0-.022.706v4.965zm.748-8.877l-1.07-.412c.688-1.785 1.791-3.457 3.247-4.99l.831.788c-1.357 1.43-2.377 2.977-3.008 4.614zm5.543-6.86l-.69-.916.168-.124c1.428-1.056 3.023-2.028 4.8-2.933l.52 1.022c-1.723.877-3.264 1.816-4.639 2.832l-.159.119zm7.895-4.38l-.444-1.057A67.525 67.525 0 0 1 20.32 6.42l.352 1.09a66.39 66.39 0 0 0-5.335 1.955zm48.163 1.989V12.6c-1.915 0-3.82.03-5.711.091l-.037-1.145c1.903-.062 3.82-.092 5.748-.092zm-9.195.236l.06 1.145c-1.926.1-3.827.23-5.7.392l-.098-1.141c1.885-.163 3.8-.295 5.738-.396zm-9.18.73l.123 1.14c-1.933.21-3.823.452-5.66.726l-.17-1.134c1.854-.276 3.759-.52 5.706-.731zm-9.115 1.286l.199 1.128c-1.942.343-3.81.72-5.587 1.13l-.258-1.116c1.798-.415 3.684-.796 5.646-1.142zm-9.007 1.984l.3 1.106c-.923.25-1.814.51-2.672.779-.954.298-1.87.608-2.751.93l-.394-1.075a61.662 61.662 0 0 1 2.803-.95 75.042 75.042 0 0 1 2.714-.79zm-8.744 3.045l.469 1.046c-1.928.864-3.521 1.755-4.663 2.6-.07.051-.14.103-.207.155l-.697-.91c.073-.056.147-.111.223-.167 1.214-.898 2.877-1.829 4.875-2.724zm-7.447 6.071l1.123-.23c.08.385.69 1.158 2.126 2.22.516.38 1.122.771 1.812 1.166l-.568.995a19.677 19.677 0 0 1-1.925-1.24c-1.642-1.214-2.422-2.2-2.568-2.91zm7.628 5.718l.463-1.048a53.54 53.54 0 0 0 5.307 1.995l-.35 1.092a54.68 54.68 0 0 1-5.42-2.039zm8.745 3.015l.299-1.106c1.746.472 3.598.911 5.542 1.314l-.233 1.122a97.498 97.498 0 0 1-5.608-1.33zm9.008 1.982l.2-1.128c1.822.322 3.705.613 5.638.87l-.15 1.136c-1.95-.26-3.85-.552-5.688-.878zm9.114 1.292l.125-1.139c1.863.204 3.761.376 5.687.516l-.084 1.143c-1.939-.14-3.85-.315-5.728-.52zm9.184.736l.06-1.145c1.886.098 3.79.165 5.707.201l-.02 1.146c-1.93-.036-3.848-.104-5.747-.202zm9.194.232v-1.146c1.913-.002 3.818-.035 5.71-.1l.039 1.146a174.68 174.68 0 0 1-5.749.1zm9.197-.252l-.062-1.145c1.923-.104 3.824-.24 5.696-.407l.102 1.141c-1.886.169-3.8.306-5.736.41zm9.178-.756l-.127-1.14c1.93-.215 3.82-.464 5.658-.744l.173 1.133a143.93 143.93 0 0 1-5.704.75zm9.11-1.316l-.203-1.128c1.94-.35 3.806-.734 5.584-1.15l.261 1.116c-1.798.42-3.683.81-5.642 1.162zm9.002-2.015l-.304-1.105a75.136 75.136 0 0 0 2.5-.733 60.207 60.207 0 0 0 2.918-.992l.397 1.075c-.949.35-1.94.688-2.972 1.011-.818.256-1.665.504-2.54.744zm8.734-3.073l-.473-1.044c1.857-.841 3.392-1.707 4.502-2.527.12-.088.234-.175.344-.26l.706.902c-.118.092-.241.186-.369.28-1.18.873-2.785 1.777-4.71 2.649zm7.183-6.257l-1.06.435c-.21-.51-.849-1.245-2.086-2.16a18.977 18.977 0 0 0-1.969-1.256l.562-1c.794.447 1.49.892 2.088 1.334 1.393 1.03 2.167 1.921 2.465 2.647zm-7.695-5.53l-.46 1.05a54.225 54.225 0 0 0-5.314-1.978l.347-1.093a55.365 55.365 0 0 1 5.427 2.02zm-8.754-2.988l-.295 1.107c-1.747-.466-3.6-.899-5.546-1.296l.228-1.123c1.969.401 3.844.84 5.613 1.312zm-9.016-1.952l-.196 1.129a133.53 133.53 0 0 0-5.642-.85l.147-1.137c1.952.253 3.852.54 5.69.858zm-9.117-1.26l-.121 1.139a160.192 160.192 0 0 0-5.689-.5l.08-1.143c1.941.136 3.854.304 5.73.503zm-9.186-.71l-.057 1.144a175.37 175.37 0 0 0-5.708-.19l.02-1.146c1.93.033 3.847.097 5.745.191zM10.79 47.67h1.147v1.596c.008.187.008.373 0 .533 0 .234.583 1.04 2.127 2.181l.01.008-.68.922-.011-.008c-1.807-1.336-2.592-2.42-2.592-3.13.007-.15.007-.301 0-.479V47.67zm5.623 7.07l.525-1.019c1.491.769 3.248 1.524 5.2 2.227l-.39 1.078c-1.995-.72-3.798-1.494-5.335-2.286zm8.636 3.373l.33-1.098c1.717.516 3.557 1 5.504 1.446l-.256 1.117a87.181 87.181 0 0 1-5.578-1.465zm8.963 2.184l.22-1.125c1.81.355 3.687.677 5.623.966l-.169 1.133a126.43 126.43 0 0 1-5.674-.974zm9.096 1.441l.142-1.137c1.855.23 3.75.43 5.678.596l-.099 1.142a154.259 154.259 0 0 1-5.72-.6zm9.17.863l.074-1.144c1.882.123 3.786.214 5.705.275l-.036 1.145c-1.932-.06-3.848-.153-5.743-.276zm9.196.35l.013-1.146a174.488 174.488 0 0 0 5.714-.028l.025 1.146a175.328 175.328 0 0 1-5.752.028zm9.2-.135l-.048-1.146a167 167 0 0 0 5.701-.332l.086 1.143c-1.89.143-3.806.255-5.74.335zm9.182-.632l-.11-1.14c1.928-.188 3.821-.408 5.67-.66l.155 1.136c-1.864.253-3.771.475-5.715.664zM93.18 44.906l.207 1.128c-1.845.338-3.74.645-5.68.918l-.16-1.135c1.924-.271 3.804-.575 5.633-.91zm-9.03 1.35l.133 1.138c-1.875.222-3.784.412-5.722.572l-.095-1.142a162.9 162.9 0 0 0 5.683-.568zm-9.112.816l.072 1.144c-1.893.118-3.809.208-5.742.267l-.036-1.145c1.922-.06 3.825-.148 5.706-.266zm-9.135.34l.015 1.146a192.248 192.248 0 0 1-5.75-.014l.02-1.145a190.655 190.655 0 0 0 5.715.013zm-9.14-.104l-.042 1.145c-1.934-.07-3.849-.168-5.74-.296l.077-1.143c1.88.127 3.782.225 5.704.294zm-9.128-.56l-.1 1.141c-1.938-.17-3.846-.371-5.718-.603l.14-1.138c1.86.23 3.754.43 5.678.6zm-9.073-1.06l-.167 1.135c-1.94-.286-3.834-.605-5.675-.956l.215-1.126c1.825.348 3.703.664 5.627.948zm-8.989-1.637l-.246 1.12a105.44 105.44 0 0 1-5.592-1.389l.307-1.104c1.768.493 3.615.95 5.531 1.373zm-8.81-2.353l-.349 1.091a69.993 69.993 0 0 1-5.433-1.965l.438-1.059a68.866 68.866 0 0 0 5.345 1.933zm.604 25.372l-.342 1.094c-2-.625-3.799-1.256-5.448-1.916l.426-1.064c1.62.648 3.39 1.27 5.364 1.886zm-9.43.923l-1.145-.001.007-5.26.84.447c.405.216.821.427 1.248.634l-.5 1.031c-.15-.072-.298-.145-.445-.219l-.004 3.368zm-1.145 3.438h1.146l-.001 2.958c.01.207.01.414 0 .591 0 .116.295.61 1.077 1.325l-.774.846c-.996-.911-1.448-1.672-1.448-2.2a5.189 5.189 0 0 0 0-.533v-2.987zm4.348 7.794l.576-.991c1.399.813 3.13 1.63 5.105 2.402l-.417 1.067c-2.027-.791-3.811-1.633-5.264-2.478zm8.54 3.643l.353-1.091.591.188c1.529.478 3.161.93 4.886 1.352l-.273 1.113a81.966 81.966 0 0 1-5.557-1.562zm8.934 2.327l.234-1.122c1.799.376 3.673.72 5.61 1.03l-.18 1.132c-1.956-.312-3.848-.66-5.664-1.04zm9.08 1.542l.153-1.136c1.85.248 3.743.465 5.671.65l-.109 1.14c-1.943-.185-3.85-.404-5.715-.654zm9.162.946l.084-1.143c1.879.139 3.782.247 5.702.323l-.045 1.145a168.51 168.51 0 0 1-5.741-.325zm9.19.427l.023-1.146a174.212 174.212 0 0 0 5.716.02l.015 1.145a175.755 175.755 0 0 1-5.754-.019zm9.202-.06l-.038-1.145c1.92-.064 3.823-.159 5.704-.284l.076 1.143c-1.894.127-3.81.222-5.742.286zm9.187-.552l-.1-1.142c1.928-.17 3.823-.373 5.677-.606l.144 1.137c-1.87.235-3.779.44-5.72.61zm9.142-1.085l-.171-1.133c1.936-.292 3.813-.619 5.62-.977l.223 1.124c-1.825.362-3.719.691-5.672.986zm-2.02-15.148l.144 1.137c-1.871.238-3.778.446-5.717.622l-.104-1.14c1.925-.176 3.819-.382 5.677-.619zm-9.104.895l.08 1.143c-1.89.134-3.805.238-5.74.312l-.043-1.145c1.922-.074 3.824-.178 5.703-.31zm-9.13.41l.023 1.146a191.467 191.467 0 0 1-5.752.03l.011-1.147a191.633 191.633 0 0 0 5.718-.028zm-9.145-.036l-.032 1.146a183.04 183.04 0 0 1-5.744-.25l.068-1.145c1.883.112 3.786.195 5.708.25zm-9.128-.487l-.091 1.143a165.25 165.25 0 0 1-5.725-.554l.13-1.138c1.864.213 3.76.397 5.686.55zm-9.084-.977l-.156 1.135c-1.94-.266-3.836-.565-5.684-.897l.202-1.128c1.832.329 3.714.626 5.638.89zm-9.008-1.54l-.233 1.121c-1.938-.402-3.81-.84-5.608-1.313l.29-1.109c1.78.468 3.633.902 5.551 1.3zm-8.846-2.23l-.332 1.096a86.16 86.16 0 0 1-.754-.232l.342-1.094c.246.077.494.154.744.23zm-.745 24.623l-.342 1.094c-2-.626-3.799-1.256-5.448-1.916l.426-1.064c1.62.648 3.39 1.269 5.364 1.886zm-9.43.923l-1.145-.002.007-5.259.84.447c.405.215.821.426 1.248.634l-.5 1.031c-.15-.073-.298-.146-.445-.22l-.004 3.369zm-1.145 3.437h1.146l-.001 2.958c.01.207.01.415 0 .592 0 .115.295.61 1.077 1.325l-.774.846c-.996-.912-1.448-1.672-1.448-2.2a5.189 5.189 0 0 0 0-.533v-2.988zm4.348 7.794l.576-.99c1.399.813 3.13 1.63 5.105 2.401l-.417 1.068c-2.027-.791-3.811-1.634-5.264-2.479zm8.54 3.643l.353-1.09.591.188c1.529.478 3.161.93 4.886 1.352l-.273 1.113a81.966 81.966 0 0 1-5.557-1.563zm8.934 2.328l.234-1.122c1.799.376 3.673.72 5.61 1.03l-.18 1.132a121.04 121.04 0 0 1-5.664-1.04zm9.08 1.542l.153-1.136c1.85.248 3.743.465 5.671.65l-.109 1.14c-1.943-.185-3.85-.404-5.715-.654zm9.162.946l.084-1.143c1.879.139 3.782.246 5.702.323l-.045 1.145a168.51 168.51 0 0 1-5.741-.325zm9.19.427l.023-1.146a174.21 174.21 0 0 0 5.716.019l.015 1.146a175.745 175.745 0 0 1-5.754-.019zm9.202-.06l-.038-1.146c1.92-.063 3.823-.158 5.704-.284l.076 1.144c-1.894.127-3.81.222-5.742.286zm9.187-.553l-.1-1.142c1.928-.17 3.823-.372 5.677-.606l.144 1.137c-1.87.236-3.779.44-5.72.611zm9.142-1.084l-.171-1.133c1.936-.293 3.813-.62 5.62-.978l.223 1.124a125.44 125.44 0 0 1-5.672.987zm9.06-1.715l-.259-1.116a84.736 84.736 0 0 0 5.5-1.464l.335 1.096a85.878 85.878 0 0 1-5.575 1.484zm8.87-2.584l-.394-1.076c1.955-.716 3.708-1.482 5.184-2.259l.534 1.014c-1.523.802-3.323 1.589-5.324 2.321zm-10.935-12.29l.22 1.125c-1.84.359-3.732.685-5.671.978l-.171-1.134c1.923-.29 3.8-.613 5.622-.969zm-9.015 1.441l.144 1.137c-1.871.238-3.778.446-5.717.622l-.104-1.141c1.925-.175 3.819-.382 5.677-.618zm-9.104.894l.08 1.144c-1.89.133-3.805.238-5.74.312l-.043-1.145c1.922-.074 3.824-.178 5.703-.31zm-9.13.411l.023 1.146a191.468 191.468 0 0 1-5.752.03l.011-1.147a191.63 191.63 0 0 0 5.718-.029zm-9.145-.036l-.032 1.146a183.04 183.04 0 0 1-5.744-.251l.068-1.144c1.883.112 3.786.195 5.708.25zM49.05 96.9l-.091 1.143a165.25 165.25 0 0 1-5.725-.554l.13-1.139c1.864.214 3.76.397 5.686.55zm-9.084-.977l-.156 1.135c-1.94-.266-3.836-.566-5.684-.897l.202-1.128c1.832.328 3.714.625 5.638.89zm-9.008-1.541l-.233 1.122c-1.938-.403-3.81-.841-5.608-1.314l.29-1.108c1.78.467 3.633.901 5.551 1.3zm-8.846-2.23l-.332 1.097a86.154 86.154 0 0 1-.754-.232l.342-1.094c.246.077.494.153.744.229zm150.506-28.96c2.137 0 3.885 1.763 3.885 3.92 0 2.154-1.748 3.92-3.885 3.92h-2.732c-1.749 13.757-12.532 24.635-26.17 26.398v2.463c0 2.156-1.748 3.92-3.884 3.92-2.137 0-3.885-1.764-3.885-3.92V97.43c-13.638-1.763-24.423-12.641-26.17-26.398h-2.74c-2.137 0-3.886-1.766-3.886-3.92 0-2.157 1.749-3.92 3.886-3.92h2.74c1.747-13.758 12.532-24.637 26.17-26.4v-2.41c0-2.157 1.748-3.921 3.885-3.921 2.136 0 3.885 1.764 3.885 3.92v2.41c13.637 1.764 24.42 12.643 26.17 26.4h2.73zm-28.901 25.6c8.952-1.623 15.999-8.73 17.606-17.76h-2.026c-2.135 0-3.885-1.766-3.885-3.92 0-2.157 1.75-3.92 3.885-3.92h2.026c-1.607-9.03-8.654-16.14-17.606-17.762v2.388c0 2.155-1.749 3.92-3.885 3.92-2.137 0-3.885-1.765-3.885-3.92V45.43c-8.952 1.622-15.999 8.732-17.608 17.761h2.018c2.136 0 3.885 1.764 3.885 3.92 0 2.155-1.749 3.92-3.885 3.92h-2.018c1.61 9.03 8.656 16.138 17.608 17.762v-2.337c0-2.155 1.748-3.919 3.885-3.919 2.136 0 3.885 1.764 3.885 3.92v2.336z"/>
</svg>
