<svg xmlns="http://www.w3.org/2000/svg" width="20" height="20" viewBox="0 0 20 20">
  <g fill="none">
    <rect width="20" height="20"/>
    <path fill="#6F898D" d="M5.85704925,9.39363546 C4.67988652,9.27036123 3.61665293,9.0602594 2.72834029,8.7825119 C2.24092791,8.63011667 1.8072891,8.46379762 1.42761315,8.26195714 L1.42761315,9.68233333 C1.42890402,9.70710222 1.42890402,9.73192159 1.42761315,9.75669048 C1.42761315,9.77659524 1.4545691,9.89535714 1.73978743,10.1062143 C2.025006,10.3170238 2.52008053,10.5533095 3.15943838,10.7531905 C3.73649855,10.933617 4.42899404,11.0875005 5.20284106,11.2020531 C5.09757036,11.6604482 5.03168326,12.1338775 5.00893208,12.6185887 C4.16677516,12.4943184 3.39787283,12.3234078 2.72834029,12.1140714 C2.23033743,11.9583571 1.81273291,11.7716429 1.42761315,11.5637619 L1.42761315,13.0882619 C1.42761315,13.1081429 1.4545691,13.2269286 1.73978743,13.4377619 C2.025006,13.6485714 2.52008053,13.8848571 3.15943838,14.0847381 C3.72212648,14.260671 4.39457154,14.4113665 5.14517347,14.5249687 C5.24563878,15.0455067 5.39656247,15.548069 5.59265282,16.0273637 C4.52049016,15.9013795 3.54965072,15.7024104 2.72834029,15.445619 C1.99035743,15.214881 1.37009195,14.9415476 0.885024098,14.5829762 C0.399955931,14.2244286 0.000529526216,13.7254762 0.000529526216,13.0882619 L0.000529526216,9.75669048 C-0.000102726289,9.73934704 -0.000102726289,9.7219863 0.000529526216,9.70464286 L0.000529526216,6.42514048 C-0.000102899895,6.40779466 -0.000102899895,6.39043153 0.000529526216,6.37308571 L0.000529526216,3.09358571 C-0.00119462535,3.04883219 0.00129388177,3.00401562 0.00796214526,2.95972857 C0.0601751453,2.38641667 0.435141598,1.92397143 0.885024098,1.5914119 C1.37009243,1.23284524 1.99035719,0.959514286 2.72834029,0.728778571 C4.204306,0.267304762 6.16317862,8.12048841e-14 8.32518362,8.12048841e-14 C10.4871879,0 12.4460608,0.267304762 13.9220265,0.728778571 C14.6600093,0.959514286 15.2802741,1.23284524 15.7653427,1.5914119 C16.2249639,1.93116905 16.6035127,2.40616905 16.6424043,2.9969119 C16.6470688,3.02893075 16.6495523,3.06122982 16.6498377,3.09358571 L16.6498377,5.87920886 C16.1974625,5.64687246 15.7200644,5.45637757 15.2227539,5.31283491 L15.2227539,4.93040238 C15.0552915,5.01942747 14.8773312,5.10154315 14.6888893,5.17860139 C14.1444405,5.06159753 13.5794137,5 13,5 C11.4645481,5 10.0301288,5.43257183 8.81195941,6.18249806 C8.65094257,6.18560096 8.48864367,6.18717143 8.32518362,6.18717143 C6.16317862,6.18717143 4.204306,5.91243333 2.72834029,5.45095714 C2.24092791,5.29856667 1.8072891,5.13224286 1.42761315,4.93040238 L1.42761315,6.3582119 C1.42865884,6.38050916 1.42865884,6.40284322 1.42761315,6.42514048 C1.42761315,6.44504286 1.45456862,6.56381905 1.73978743,6.77465714 C2.02500648,6.98549286 2.52008053,7.22172857 3.15943838,7.42163095 C4.09400491,7.71383553 5.33134522,7.93642354 6.72667553,8.03507089 C6.39334544,8.45567393 6.10141759,8.91058121 5.85704925,9.39363546 Z M8.32518362,1.42780952 C6.28368695,1.42780952 4.43815315,1.68985714 3.15943838,2.08965714 C2.52008076,2.28955952 2.02500529,2.5258 1.73978743,2.73663333 C1.45456981,2.94746905 1.42761315,3.07365714 1.42761315,3.09358571 C1.42761315,3.11349286 1.45456957,3.23226667 1.73978743,3.44310238 C2.02500553,3.6539381 2.52008076,3.89017857 3.15943838,4.09007857 C4.43815315,4.48987857 6.28368719,4.75936429 8.32518362,4.75936429 C10.3666798,4.75936429 12.2122134,4.48987857 13.4909286,4.09007857 C14.130286,3.89017857 14.6253617,3.6539381 14.9105796,3.44310238 C15.1957972,3.23226667 15.2227539,3.11351429 15.2227539,3.09358571 C15.2227539,3.07367857 15.1957972,2.94746905 14.9105796,2.73663333 C14.6253617,2.5258 14.130286,2.28955952 13.4909286,2.08965714 C12.2122136,1.68985714 10.3666801,1.42780952 8.32518362,1.42780952 Z"/>
    <path fill="#6F898D" d="M13,17.5 C15.4852814,17.5 17.5,15.4852814 17.5,13 C17.5,10.5147186 15.4852814,8.5 13,8.5 C10.5147186,8.5 8.5,10.5147186 8.5,13 C8.5,15.4852814 10.5147186,17.5 13,17.5 Z M13,19 C9.6862915,19 7,16.3137085 7,13 C7,9.6862915 9.6862915,7 13,7 C16.3137085,7 19,9.6862915 19,13 C19,16.3137085 16.3137085,19 13,19 Z"/>
    <path fill="#6F898D" d="M12.2 7C12.2 6.5581722 12.5581722 6.2 13 6.2 13.4418278 6.2 13.8 6.5581722 13.8 7L13.8 10.5C13.8 10.9418278 13.4418278 11.3 13 11.3 12.5581722 11.3 12.2 10.9418278 12.2 10.5L12.2 7zM12.2 15.5C12.2 15.0581722 12.5581722 14.7 13 14.7 13.4418278 14.7 13.8 15.0581722 13.8 15.5L13.8 19C13.8 19.4418278 13.4418278 19.8 13 19.8 12.5581722 19.8 12.2 19.4418278 12.2 19L12.2 15.5zM7 13.8C6.5581722 13.8 6.2 13.4418278 6.2 13 6.2 12.5581722 6.5581722 12.2 7 12.2L10.5 12.2C10.9418278 12.2 11.3 12.5581722 11.3 13 11.3 13.4418278 10.9418278 13.8 10.5 13.8L7 13.8zM15.5 13.8C15.0581722 13.8 14.7 13.4418278 14.7 13 14.7 12.5581722 15.0581722 12.2 15.5 12.2L19 12.2C19.4418278 12.2 19.8 12.5581722 19.8 13 19.8 13.4418278 19.4418278 13.8 19 13.8L15.5 13.8z"/>
  </g>
</svg>
