<svg width="16px" height="16px" viewBox="0 0 16 16" version="1.1" xmlns="http://www.w3.org/2000/svg" xmlns:xlink="http://www.w3.org/1999/xlink">
    <path d="M8,16 C3.581722,16 0,12.418278 0,8 C0,3.581722 3.581722,0 8,0 C12.418278,0 16,3.581722 16,8 C16,12.418278 12.418278,16 8,16 Z M8,11 C7.44771525,11 7,11.4477153 7,12 C7,12.5522847 7.44771525,13 8,13 C8.55228475,13 9,12.5522847 9,12 C9,11.4477153 8.55228475,11 8,11 Z M8,10 C9.33333333,7.14433221 10,5.39433221 10,4.75 C10,3.78350169 9.1045695,3 8,3 C6.8954305,3 6,3.78350169 6,4.75 C6,5.39433221 6.66666667,7.14433221 8,10 Z" id="ic_exec_status_failed" fill="#F36C4A"></path>
</svg>
