<svg xmlns="http://www.w3.org/2000/svg" width="280" height="124" viewBox="0 0 280 124">
    <path fill="#D1D8DB" fill-rule="nonzero" d="M173.163 77h-66.326C104.463 82.864 98.715 87 92 87c-8.837 0-16-7.163-16-16s7.163-16 16-16c6.715 0 12.463 4.136 14.837 10h66.326c2.374-5.864 8.122-10 14.837-10 8.837 0 16 7.163 16 16s-7.163 16-16 16c-6.715 0-12.463-4.136-14.837-10zm-5.623-26h-1.718c-.767-.773-1.116-1.415-1.115-1.89a5.23 5.23 0 0 0 0-.479v-1.623h1.136v1.596c.008.187.008.373 0 .533 0 .212.474.89 1.697 1.863zm-2.832 40h1.137l-.002 1.184-1.137-.002.002-1.182zm-37.714-40h-1.146v-4.088h1.146V51zm-12.138 0l-.688-.71c.65-.63.893-1.06.893-1.153v-3.825h1.146v3.825c0 .438-.355 1.089-1.127 1.863h-.224zm1.351 40v2.328h-1.146V91h1.146zm37.798 0h1.137v2.103h-1.137V91zm-.002-40v-.304h1.137V51h-1.137zm47.238-4.678a27.915 27.915 0 0 0-.551-.288l.572.052-.021.236zm-20.517-2.367a99.743 99.743 0 0 1-3.176-.835l.305-1.104c1.752.492 3.58.95 5.48 1.371-.885.149-1.755.338-2.609.568zm35.2 29.135c.027-.38.048-.762.06-1.146a190.715 190.715 0 0 0 4.811-.035l.023 1.146a188.484 188.484 0 0 1-4.895.035zm-17.501 23.906a27.85 27.85 0 0 0 2.096-.944c.71.067 1.426.129 2.146.186l-.09 1.143c-1.4-.112-2.784-.24-4.152-.385zM65.785 61.14c-.142.38-.277.763-.404 1.15a175.804 175.804 0 0 1-3.907 0l.013-1.147a174.488 174.488 0 0 0 4.298-.003zm33.858-17.084a27.817 27.817 0 0 0-2.55-.594c1.722-.374 3.388-.777 4.993-1.208l.298 1.107c-.896.24-1.81.472-2.741.695zm-21.152 2.413l-.026-.307.713-.06c-.231.119-.46.241-.687.367zm-9.246 40.85l.048.068-.046.001-.002-.069zm-5.168-14.227a193.21 193.21 0 0 1-2.484-.008l.011-1.146a191.633 191.633 0 0 0 2.412.008c.012.384.033.766.061 1.146zM81.71 97.05c-.573.058-1.148.114-1.727.166l-.087-.96c.593.286 1.198.55 1.814.794zm83.57-59.21l.265-.504c.224.12.45.238.68.355l-.382.762v5.118h-1.137v-5.73h.573zm-153.912 0l.268-.504c.225.12.454.238.686.355l-.385.762v5.118H10.79v-5.73h.577zm9.998-31.21l-.342-1.095a93.362 93.362 0 0 1 5.556-1.543l.273 1.113c-1.914.471-3.746.98-5.487 1.524zm8.825-2.29l-.239-1.12a126.52 126.52 0 0 1 5.657-1.068l.187 1.131c-1.925.32-3.795.672-5.605 1.058zm8.99-1.575l-.16-1.135a155.34 155.34 0 0 1 5.71-.695l.118 1.14c-1.927.2-3.818.43-5.668.69zm9.089-1.007L48.176.615C50.06.459 51.975.333 53.912.236l.057 1.145c-1.925.096-3.826.222-5.7.376zm9.138-.516L57.372.095C59.271.035 61.188.004 63.119 0l.002 1.146c-1.92.004-3.826.035-5.713.095zm9.135-.072L66.56.023c1.933.03 3.849.089 5.744.176l-.053 1.145a189.334 189.334 0 0 0-5.71-.175zm9.135.364l.074-1.144c1.939.126 3.85.281 5.73.466l-.112 1.14a171.103 171.103 0 0 0-5.692-.462zm9.107.835l.137-1.137c1.941.233 3.842.498 5.697.795l-.181 1.132c-1.84-.295-3.726-.558-5.653-.79zm9.025 1.373l.21-1.126c1.941.362 3.822.76 5.634 1.191l-.265 1.115c-1.794-.427-3.656-.82-5.579-1.18zm8.908 2.033l.303-1.106c1.01.278 1.995.567 2.953.866.881.276 1.73.556 2.55.843l-.378 1.082a79.852 79.852 0 0 0-2.514-.83 87.4 87.4 0 0 0-2.914-.855zm8.616 2.893l.437-1.06c1.914.788 3.65 1.627 5.224 2.53l-.57.995c-1.53-.878-3.221-1.695-5.09-2.465zm7.934 4.302l.676-.926.13.097c1.62 1.197 3.014 2.539 4.115 3.998l-.915.69c-1.03-1.366-2.346-2.632-3.88-3.767l-.126-.092zm5.666 6.707l1.056-.445c.527 1.25.846 2.55.939 3.858.042.327.062.593.065.867v1.18h-1.146v-1.175a6.228 6.228 0 0 0-.06-.757 11.057 11.057 0 0 0-.854-3.528zm.914 8.898h1.146v5.731h-1.146v-5.73zm0 9.17h1.146v5.73h-1.146v-5.73zm0 55.013h1.146v5.73h-1.146v-5.73zm-.293 9.017l1.114.267c-.456 1.9-1.381 3.679-2.719 5.33l-.89-.72c1.234-1.526 2.08-3.152 2.495-4.877zm-4.86 7.28l.745.872c-.425.364-.871.718-1.336 1.063a32.033 32.033 0 0 1-3.515 2.249l-.556-1.002a30.888 30.888 0 0 0 3.389-2.168c.443-.33.869-.667 1.273-1.013zm-7.704 4.703l.472 1.044a60.87 60.87 0 0 1-5.388 2.108l-.37-1.084a59.736 59.736 0 0 0 5.286-2.068zm-8.543 3.106l.327 1.098a100.63 100.63 0 0 1-5.571 1.477l-.263-1.116a99.486 99.486 0 0 0 5.507-1.46zm-8.85 2.194l.23 1.123a131.97 131.97 0 0 1-5.665 1.028l-.18-1.132c1.922-.306 3.796-.646 5.615-1.019zm-9.005 1.519l.154 1.135c-1.87.253-3.776.475-5.714.666l-.112-1.14c1.925-.19 3.817-.41 5.672-.661zm-9.092.96l.089 1.143c-1.89.147-3.804.264-5.739.35l-.051-1.144c1.922-.086 3.824-.203 5.701-.348zm-9.142.47l.03 1.146a188.503 188.503 0 0 1-5.74.061l.005-1.146a189.335 189.335 0 0 0 5.705-.06zm-9.132.015l-.026 1.146a182.806 182.806 0 0 1-5.744-.221l.062-1.144c1.884.102 3.788.175 5.708.219zm-9.131-.439l-.085 1.143a166.806 166.806 0 0 1-5.726-.522l.124-1.14c1.866.204 3.763.377 5.687.52zm-9.101-.928l-.15 1.137a144.042 144.042 0 0 1-5.688-.86l.194-1.13c1.837.316 3.72.6 5.644.853zm-9.007-1.478l-.224 1.124a115.031 115.031 0 0 1-5.619-1.264l.28-1.111c1.788.45 3.645.868 5.563 1.251zm-8.867-2.146l-.319 1.101c-.6-.174-1.192-.352-1.773-.534a55.898 55.898 0 0 1-3.714-1.304l.418-1.067c1.175.46 2.382.885 3.638 1.277.574.18 1.157.356 1.75.527zm-8.517-3.147l-.485 1.039a57.864 57.864 0 0 1-3.05-1.54 47.42 47.42 0 0 1-2.023-1.338l.658-.94c.625.439 1.28.872 1.942 1.289a57.41 57.41 0 0 0 2.958 1.49zM7.02 109.04l-.744.872c-1.66-1.417-2.994-2.854-3.996-4.314l.944-.649c.943 1.372 2.208 2.736 3.796 4.09zm-5.323-7.045l-1.082.377a10.66 10.66 0 0 1-.611-3.54v-2.29h1.147v2.291c-.002 1.061.18 2.114.546 3.162zm-.546-8.892H.005v-5.73h1.146v5.73zm0-9.169H.005v-5.73H1.15v5.73zm0-9.171H.003v-.45-5.28H1.15V74.763zm-.001-9.169H.003v-5.731h1.146v5.731zm-.001-9.168H.003v-5.73h1.146v5.73zm.001-9.168H.004v-5.73H1.15v5.73zm0-9.17H.004v-5.73H1.15v5.73zm0-9.168H.004v-4.942a5.972 5.972 0 0 1 .028-.848l1.14.119a4.97 4.97 0 0 0-.022.707v4.964zm.748-8.877l-1.07-.412c.688-1.785 1.791-3.457 3.247-4.99l.831.788c-1.357 1.43-2.377 2.977-3.008 4.614zm5.543-6.86l-.69-.916.168-.124c1.428-1.056 3.023-2.028 4.8-2.933l.52 1.022c-1.723.877-3.264 1.816-4.639 2.832l-.159.12zm7.895-4.38l-.444-1.057a67.525 67.525 0 0 1 5.427-1.988l.352 1.09a66.39 66.39 0 0 0-5.335 1.955zm48.163 1.989v1.146c-1.915 0-3.82.03-5.711.091l-.037-1.145c1.903-.061 3.82-.092 5.748-.092zm-9.195.236l.06 1.145c-1.926.1-3.827.23-5.7.392l-.098-1.141c1.885-.163 3.8-.295 5.738-.396zm-9.18.73l.123 1.14c-1.933.21-3.823.452-5.66.726l-.17-1.134c1.854-.276 3.759-.52 5.706-.731zm-9.115 1.286l.199 1.128c-1.942.343-3.81.72-5.587 1.131l-.258-1.117c1.798-.415 3.684-.796 5.646-1.142zm-9.007 1.984l.3 1.106c-.923.25-1.814.51-2.672.779-.954.298-1.87.608-2.751.93l-.394-1.075a61.662 61.662 0 0 1 2.803-.95 75.042 75.042 0 0 1 2.714-.79zm-8.744 3.045l.469 1.046c-1.928.864-3.521 1.755-4.663 2.6-.07.052-.14.103-.207.155l-.697-.91c.073-.056.147-.111.223-.167 1.214-.898 2.877-1.829 4.875-2.724zm-7.447 6.071l1.123-.23c.08.385.69 1.158 2.126 2.22.516.381 1.122.771 1.812 1.166l-.568.995a19.677 19.677 0 0 1-1.925-1.24c-1.642-1.214-2.422-2.2-2.568-2.91zm7.628 5.718l.463-1.048a53.54 53.54 0 0 0 5.307 1.995l-.35 1.092a54.68 54.68 0 0 1-5.42-2.039zm8.745 3.016l.299-1.107c1.746.472 3.598.911 5.542 1.314l-.233 1.123a97.498 97.498 0 0 1-5.608-1.33zm9.008 1.982l.2-1.13c1.822.323 3.705.614 5.638.87l-.15 1.137c-1.95-.26-3.85-.552-5.688-.877zm9.114 1.291l.125-1.139c1.863.204 3.761.376 5.687.516l-.084 1.143c-1.939-.14-3.85-.315-5.728-.52zm9.184.736l.06-1.145c1.886.098 3.79.165 5.707.201l-.02 1.146c-1.93-.036-3.848-.104-5.747-.202zm9.194.232v-1.146c1.913-.002 3.818-.035 5.71-.1l.039 1.146a174.68 174.68 0 0 1-5.749.1zm9.197-.252l-.062-1.145c1.923-.104 3.824-.24 5.696-.407l.102 1.141c-1.886.169-3.8.306-5.736.41zm9.178-.756l-.127-1.14c1.93-.215 3.82-.464 5.658-.744l.173 1.133a143.93 143.93 0 0 1-5.704.75zm9.11-1.316l-.203-1.128c1.94-.35 3.806-.734 5.584-1.15l.261 1.116c-1.798.42-3.683.81-5.642 1.162zm9.002-2.015l-.304-1.105a75.136 75.136 0 0 0 2.5-.733 60.207 60.207 0 0 0 2.918-.992l.397 1.075c-.949.351-1.94.688-2.972 1.011-.818.256-1.665.504-2.54.744zm8.734-3.073l-.473-1.044c1.857-.841 3.392-1.706 4.502-2.526.12-.089.234-.176.344-.262l.706.903c-.118.092-.241.186-.369.28-1.18.873-2.785 1.777-4.71 2.649zm7.183-6.257l-1.06.435c-.21-.51-.849-1.245-2.086-2.16a18.977 18.977 0 0 0-1.969-1.256l.562-1c.794.447 1.49.892 2.088 1.334 1.393 1.03 2.167 1.921 2.465 2.647zm-7.695-5.53l-.46 1.05a54.225 54.225 0 0 0-5.314-1.978l.347-1.093a55.365 55.365 0 0 1 5.427 2.02zm-8.754-2.988l-.295 1.107c-1.747-.466-3.6-.899-5.546-1.296l.228-1.123c1.969.401 3.844.84 5.613 1.312zm-9.016-1.952l-.196 1.129a133.53 133.53 0 0 0-5.642-.85l.147-1.137c1.952.253 3.852.54 5.69.858zm-9.117-1.26l-.121 1.139a160.192 160.192 0 0 0-5.689-.5l.08-1.143c1.941.136 3.854.304 5.73.503zm-9.186-.71l-.057 1.144a175.37 175.37 0 0 0-5.708-.19l.02-1.146c1.93.033 3.847.097 5.745.191zM10.79 47.007h1.147v1.596c.008.187.008.373 0 .533 0 .234.583 1.04 2.127 2.181l.01.008-.68.922-.011-.008c-1.807-1.336-2.592-2.42-2.592-3.13.007-.15.007-.301 0-.479v-1.623zm5.623 7.07l.525-1.019c1.491.769 3.248 1.524 5.2 2.227l-.39 1.078c-1.995-.72-3.798-1.494-5.335-2.286zm8.636 3.373l.33-1.098c1.717.516 3.557 1 5.504 1.446l-.256 1.118a87.181 87.181 0 0 1-5.578-1.466zm8.963 2.184l.22-1.125c1.81.355 3.687.677 5.623.966l-.169 1.133a126.43 126.43 0 0 1-5.674-.974zm9.096 1.441l.142-1.137c1.855.23 3.75.43 5.678.596l-.099 1.142a154.259 154.259 0 0 1-5.72-.6zm9.17.863l.074-1.144c1.882.123 3.786.214 5.705.275l-.036 1.145c-1.932-.06-3.848-.153-5.743-.276zm62.088-22.82l-.494-1.034a39.005 39.005 0 0 0 1.493-.752l.842-.448v4.988h-1.146V38.78c-.228.114-.46.227-.695.34zm-3.614.319l.421 1.066a75.55 75.55 0 0 1-5.189 1.813l-.275.086-.339-1.095.272-.085a74.42 74.42 0 0 0 5.11-1.785zM75.037 46.41l.072 1.144c-1.893.119-3.809.208-5.742.267l-.036-1.145c1.922-.06 3.825-.148 5.706-.266zm-9.135.34l.015 1.146a192.25 192.25 0 0 1-5.75-.013l.02-1.146a190.656 190.656 0 0 0 5.715.013zm-9.14-.104l-.042 1.145c-1.934-.07-3.849-.168-5.74-.296l.077-1.143c1.88.127 3.782.225 5.704.294zm-9.128-.56l-.1 1.141c-1.938-.17-3.846-.371-5.718-.603l.14-1.138c1.86.23 3.754.43 5.678.6zm-9.073-1.06l-.167 1.135c-1.94-.286-3.834-.605-5.675-.956l.215-1.126c1.825.348 3.703.664 5.627.948zm-8.989-1.637l-.246 1.12a105.44 105.44 0 0 1-5.592-1.389l.307-1.104c1.768.493 3.615.951 5.531 1.373zm-8.81-2.353l-.349 1.092a69.993 69.993 0 0 1-5.433-1.966l.438-1.059a68.866 68.866 0 0 0 5.345 1.933zm.604 25.372l-.342 1.094c-2-.625-3.799-1.256-5.448-1.916l.426-1.064c1.62.648 3.39 1.27 5.364 1.886zm-9.43.923l-1.145-.001.007-5.26.84.448c.405.215.821.426 1.248.633l-.5 1.031c-.15-.072-.298-.145-.445-.219l-.004 3.368zm-1.145 3.438h1.146l-.001 2.958c.01.207.01.414 0 .592 0 .115.295.609 1.077 1.324l-.774.846c-.996-.911-1.448-1.672-1.448-2.2a5.189 5.189 0 0 0 0-.533V70.77zm4.348 7.794l.576-.99c1.399.812 3.13 1.63 5.105 2.4l-.417 1.068c-2.027-.791-3.811-1.633-5.264-2.478zm8.54 3.643l.353-1.09.591.187c1.529.478 3.161.93 4.886 1.352l-.273 1.113a81.966 81.966 0 0 1-5.557-1.562zm8.934 2.327l.234-1.122c1.799.377 3.673.72 5.61 1.03l-.18 1.132c-1.956-.312-3.848-.66-5.664-1.04zm9.08 1.542l.153-1.136c1.85.248 3.743.465 5.671.65l-.109 1.14c-1.943-.185-3.85-.404-5.715-.654zm9.162.946l.084-1.143c1.879.139 3.782.247 5.702.323l-.045 1.145a168.51 168.51 0 0 1-5.741-.325zm9.19.427l.023-1.145a174.211 174.211 0 0 0 5.716.018l.015 1.146a175.755 175.755 0 0 1-5.754-.019zm-1.868-15.575l-.032 1.145a183.04 183.04 0 0 1-5.744-.25l.068-1.145c1.883.112 3.786.196 5.708.25zm-9.128-.487l-.091 1.142a165.25 165.25 0 0 1-5.725-.554l.13-1.138c1.864.213 3.76.397 5.686.55zm-9.084-.978l-.156 1.136c-1.94-.267-3.836-.566-5.684-.897l.202-1.129c1.832.329 3.714.626 5.638.89zm-9.008-1.54l-.233 1.121c-1.938-.402-3.81-.84-5.608-1.313l.29-1.109c1.78.468 3.633.902 5.551 1.3zm-8.846-2.23l-.332 1.096a86.154 86.154 0 0 1-.754-.232l.342-1.094c.246.077.494.154.744.23zm-.745 24.623l-.342 1.094c-2-.626-3.799-1.256-5.448-1.916l.426-1.064c1.62.648 3.39 1.269 5.364 1.886zm-9.43.923l-1.145-.002.007-5.259.84.447c.405.215.821.427 1.248.634l-.5 1.031c-.15-.073-.298-.146-.445-.22l-.004 3.369zm-1.145 3.437h1.146l-.001 2.958c.01.207.01.415 0 .592 0 .115.295.61 1.077 1.325l-.774.846c-.996-.912-1.448-1.672-1.448-2.2a5.189 5.189 0 0 0 0-.533v-2.988zm4.348 7.794l.576-.99c1.399.813 3.13 1.63 5.105 2.401l-.417 1.068c-2.027-.791-3.811-1.634-5.264-2.479zm8.54 3.643l.353-1.09.591.188c1.529.478 3.161.93 4.886 1.352l-.273 1.113a81.967 81.967 0 0 1-5.557-1.563zm8.934 2.328l.234-1.122c1.799.376 3.673.72 5.61 1.03l-.18 1.132c-1.956-.313-3.848-.66-5.664-1.04zm9.08 1.542l.153-1.136c1.85.248 3.743.465 5.671.65l-.109 1.14c-1.943-.185-3.85-.404-5.715-.654zm9.162.946l.084-1.143c1.879.139 3.782.246 5.702.323l-.045 1.145a168.51 168.51 0 0 1-5.741-.325zm9.19.427l.023-1.146a174.21 174.21 0 0 0 5.716.019l.015 1.146a175.762 175.762 0 0 1-5.754-.019zm9.202-.06l-.038-1.146c1.92-.063 3.823-.158 5.704-.284l.076 1.144c-1.894.127-3.81.222-5.742.286zm9.187-.553l-.1-1.141c1.928-.17 3.823-.373 5.677-.607l.144 1.137c-1.87.236-3.779.44-5.72.611zm9.142-1.084l-.171-1.133c1.936-.293 3.813-.62 5.62-.978l.223 1.125a125.44 125.44 0 0 1-5.672.986zm9.06-1.715l-.259-1.116a84.736 84.736 0 0 0 5.5-1.464l.335 1.096a85.877 85.877 0 0 1-5.575 1.484zm8.87-2.584l-.394-1.076c1.955-.715 3.708-1.482 5.184-2.259l.534 1.014c-1.523.802-3.323 1.589-5.324 2.321zm8.325-4.194l-.695-.91c1.395-1.065 1.923-1.813 1.925-2.028v-2.406h1.146v2.412c-.006.653-.728 1.675-2.376 2.932zm-37.379-5.76l.08 1.143c-1.89.133-3.805.238-5.74.312l-.043-1.145c1.922-.074 3.824-.178 5.703-.31zm-9.13.41l.023 1.146a191.467 191.467 0 0 1-5.752.03l.011-1.147a191.63 191.63 0 0 0 5.718-.029zm-9.145-.036l-.032 1.146a183.04 183.04 0 0 1-5.744-.251l.068-1.144c1.883.112 3.786.195 5.708.25zm-9.128-.487l-.091 1.143a165.25 165.25 0 0 1-5.725-.554l.13-1.139c1.864.214 3.76.397 5.686.55zm-9.084-.977l-.156 1.135c-1.94-.266-3.836-.566-5.684-.897l.202-1.128c1.832.328 3.714.625 5.638.89zm-9.008-1.541l-.233 1.122c-1.938-.402-3.81-.841-5.608-1.314l.29-1.108c1.78.467 3.633.901 5.551 1.3zm-8.846-2.23l-.332 1.097a86.154 86.154 0 0 1-.754-.232l.342-1.094c.246.077.494.153.744.229zM175.2 6.628l-.34-1.094a92.063 92.063 0 0 1 5.513-1.543l.271 1.113c-1.9.471-3.717.98-5.444 1.524zm8.755-2.288l-.236-1.121a124.65 124.65 0 0 1 5.612-1.068l.186 1.131c-1.91.32-3.766.672-5.562 1.058zm8.92-1.576l-.158-1.135c1.849-.263 3.74-.494 5.665-.695l.117 1.14c-1.912.2-3.788.43-5.623.69zm9.018-1.007L201.8.615c1.87-.156 3.769-.282 5.691-.379l.057 1.145c-1.91.096-3.796.222-5.655.376zm9.067-.516l-.036-1.146c1.884-.06 3.786-.091 5.702-.095l.002 1.146c-1.905.004-3.796.035-5.668.095zm9.063-.072l.018-1.146c1.918.03 3.819.089 5.7.176l-.053 1.145a186.387 186.387 0 0 0-5.665-.175zm9.064.364l.073-1.144c1.924.126 3.82.281 5.686.466l-.112 1.14a168.463 168.463 0 0 0-5.647-.462zm9.036.835l.135-1.137c1.927.233 3.813.498 5.653.795l-.18 1.132a144.177 144.177 0 0 0-5.608-.79zm8.954 1.373l.209-1.126c1.926.362 3.791.76 5.59 1.191l-.264 1.115c-1.78-.427-3.627-.82-5.535-1.18zm8.838 2.033l.301-1.106a87.33 87.33 0 0 1 2.93.866 79.92 79.92 0 0 1 2.53.843l-.375 1.082a78.792 78.792 0 0 0-2.495-.83 86.2 86.2 0 0 0-2.891-.855zm8.549 2.893l.433-1.06c1.899.788 3.622 1.627 5.184 2.53l-.566.995c-1.518-.878-3.196-1.695-5.051-2.465zm7.871 4.302l.671-.926.13.097c1.607 1.197 2.99 2.539 4.082 3.998l-.908.69c-1.022-1.366-2.327-2.632-3.85-3.767l-.125-.092zm5.623 6.707l1.048-.445c.522 1.25.839 2.55.93 3.858.042.327.063.593.065.867v1.18h-1.137v-1.175a6.277 6.277 0 0 0-.059-.757 11.128 11.128 0 0 0-.847-3.528zm.906 8.898H280v5.731h-1.137v-5.73zm0 9.17H280v5.73h-1.137v-5.73zm0 9.168H280v5.73h-1.137v-5.73zm0 9.17H280v5.73h-1.137v-5.73zm0 9.168H280v5.73h-1.137v-5.73zm0 9.17H280v5.73h-1.137v-5.73zm0 9.168H280v5.73h-1.137v-5.73zm0 9.169H280v5.73h-1.137v-5.73zm-.29 9.017l1.105.267c-.453 1.9-1.37 3.679-2.697 5.33l-.884-.72c1.225-1.526 2.064-3.152 2.475-4.877zm-4.822 7.28l.739.872c-.422.364-.864.718-1.326 1.063a31.752 31.752 0 0 1-3.487 2.249l-.552-1.002a30.617 30.617 0 0 0 3.362-2.168c.44-.33.862-.667 1.264-1.013zm-7.644 4.703l.468 1.044a60.111 60.111 0 0 1-5.345 2.108l-.368-1.084a58.992 58.992 0 0 0 5.245-2.068zm-8.476 3.106l.324 1.098a99.215 99.215 0 0 1-5.527 1.477l-.261-1.116a98.088 98.088 0 0 0 5.464-1.46zm-8.781 2.194l.227 1.123c-1.82.376-3.696.719-5.62 1.028l-.178-1.132c1.907-.306 3.766-.646 5.57-1.019zm-8.935 1.519l.153 1.135c-1.855.253-3.746.475-5.669.666l-.11-1.14c1.908-.19 3.786-.41 5.626-.661zm-9.02.96l.088 1.143c-1.875.147-3.775.264-5.694.35l-.05-1.144c1.906-.086 3.793-.203 5.656-.348zm-9.07.47l.029 1.146a185.565 185.565 0 0 1-5.695.061l.005-1.146a186.384 186.384 0 0 0 5.66-.06zm-9.062.015l-.025 1.146a179.962 179.962 0 0 1-5.7-.221l.062-1.144c1.87.102 3.759.175 5.663.219zm-9.06-.439l-.083 1.143a164.238 164.238 0 0 1-5.682-.522l.123-1.14c1.852.204 3.734.377 5.643.52zm-9.03-.928l-.147 1.137a141.872 141.872 0 0 1-5.644-.86l.193-1.13c1.822.316 3.69.6 5.599.853zm-8.935-1.478l-.223 1.124a113.368 113.368 0 0 1-5.574-1.264l.278-1.111c1.773.45 3.616.868 5.519 1.251zm-8.798-2.146l-.316 1.101a87.868 87.868 0 0 1-1.76-.534 55.171 55.171 0 0 1-3.684-1.304l.415-1.067a54.04 54.04 0 0 0 3.608 1.277c.57.18 1.149.356 1.737.527zm-8.45-3.147l-.482 1.039a57.237 57.237 0 0 1-3.026-1.54c-.704-.445-1.37-.89-2.007-1.338l.653-.94c.62.439 1.27.872 1.926 1.289.98.533 1.953 1.027 2.936 1.49zm-7.525-4.843l-.738.872c-1.648-1.417-2.97-2.854-3.965-4.314l.937-.649c.935 1.372 2.19 2.736 3.766 4.09zm-5.281-7.045l-1.074.377a10.736 10.736 0 0 1-.606-3.54v-2.29h1.138v2.291c-.002 1.061.179 2.114.542 3.162zm-.543-54.737h-1.137v-5.73h1.137v5.73zm0-9.17h-1.137v-5.73h1.137v5.73zm0-9.168h-1.137v-4.942a6.02 6.02 0 0 1 .028-.848l1.13.119c-.023.227-.03.456-.02.707v4.964zm.742-8.877l-1.06-.412c.681-1.785 1.776-3.457 3.22-4.99l.825.788c-1.346 1.43-2.36 2.977-2.985 4.614zm5.5-6.86l-.684-.916.166-.124c1.416-1.056 3-2.028 4.763-2.933l.516 1.022c-1.71.877-3.24 1.816-4.603 2.832l-.158.12zm7.833-4.38l-.44-1.057a66.66 66.66 0 0 1 5.384-1.988l.349 1.09a65.54 65.54 0 0 0-5.293 1.955zm47.786 1.989v1.146c-1.9 0-3.79.03-5.666.091l-.037-1.145c1.888-.061 3.79-.092 5.703-.092zm-9.123.236l.059 1.145c-1.91.1-3.797.23-5.654.392l-.098-1.141c1.87-.163 3.77-.295 5.693-.396zm-9.109.73l.123 1.14c-1.918.21-3.793.452-5.617.726l-.167-1.134c1.839-.276 3.729-.52 5.661-.731zm-9.043 1.286l.198 1.128c-1.928.343-3.78.72-5.544 1.131l-.256-1.117c1.784-.415 3.656-.796 5.602-1.142zm-8.937 1.984l.298 1.106c-.915.25-1.8.51-2.65.779-.947.298-1.857.608-2.73.93l-.391-1.075a60.85 60.85 0 0 1 2.781-.95 74.01 74.01 0 0 1 2.692-.79zm-8.675 3.045l.465 1.046c-1.913.864-3.493 1.755-4.626 2.6-.07.052-.139.103-.205.155l-.692-.91c.072-.056.146-.111.22-.167 1.206-.898 2.856-1.829 4.838-2.724zm-7.388 6.071l1.114-.23c.078.385.684 1.158 2.11 2.22.51.381 1.112.771 1.797 1.166l-.564.995c-.722-.416-1.36-.83-1.91-1.24-1.63-1.214-2.403-2.2-2.547-2.91zm7.567 5.718l.46-1.048a52.862 52.862 0 0 0 5.266 1.995l-.347 1.092a53.987 53.987 0 0 1-5.379-2.039zm8.677 3.016l.297-1.107c1.732.472 3.57.911 5.499 1.314l-.231 1.123a96.1 96.1 0 0 1-5.565-1.33zm8.938 1.982l.198-1.13c1.808.323 3.676.614 5.594.87l-.15 1.137c-1.934-.26-3.818-.552-5.642-.877zm9.043 1.291l.123-1.139c1.849.204 3.732.376 5.643.516l-.083 1.143a156.694 156.694 0 0 1-5.683-.52zm9.112.736l.059-1.145c1.871.098 3.76.165 5.663.201l-.021 1.146a169.818 169.818 0 0 1-5.701-.202zm9.122.232l-.001-1.146a170.83 170.83 0 0 0 5.666-.1l.038 1.146c-1.889.065-3.792.098-5.703.1zm9.125-.252l-.062-1.145c1.908-.104 3.794-.24 5.651-.407l.102 1.141c-1.871.169-3.77.306-5.691.41zm9.106-.756l-.126-1.14c1.915-.215 3.79-.464 5.614-.744l.171 1.133c-1.839.283-3.728.533-5.659.75zm9.038-1.316l-.2-1.128c1.924-.35 3.775-.734 5.54-1.15l.259 1.116c-1.784.42-3.655.81-5.599 1.162zm8.932-2.015l-.301-1.105a74.103 74.103 0 0 0 2.48-.733 59.415 59.415 0 0 0 2.895-.992l.394 1.075c-.941.351-1.925.688-2.949 1.011-.811.256-1.651.504-2.519.744zm8.666-3.073l-.47-1.044c1.843-.841 3.366-1.706 4.467-2.526.119-.089.232-.176.341-.262l.7.903c-.116.092-.238.186-.365.28-1.171.873-2.763 1.777-4.673 2.649zm7.127-6.257l-1.053.435c-.207-.51-.841-1.245-2.069-2.16a18.81 18.81 0 0 0-1.953-1.256l.557-1c.788.447 1.48.892 2.072 1.334 1.382 1.03 2.15 1.921 2.446 2.647zm-7.635-5.53l-.456 1.05a53.535 53.535 0 0 0-5.273-1.978l.344-1.093a54.66 54.66 0 0 1 5.385 2.02zm-8.685-2.988l-.293 1.107a94.31 94.31 0 0 0-5.503-1.296l.227-1.123c1.952.401 3.814.84 5.569 1.312zm-8.947-1.952l-.194 1.129c-1.807-.316-3.677-.6-5.597-.85l.146-1.137c1.936.253 3.822.54 5.645.858zm-9.045-1.26l-.12 1.139a157.724 157.724 0 0 0-5.644-.5l.08-1.143c1.925.136 3.823.304 5.684.503zm-9.114-.71l-.056 1.144a172.64 172.64 0 0 0-5.664-.19l.02-1.146c1.915.033 3.817.097 5.7.191zm-10.761 51.28l.013-1.147a171.768 171.768 0 0 0 5.67-.028l.024 1.146a172.596 172.596 0 0 1-5.707.028zm9.127-.136l-.047-1.145c1.906-.08 3.794-.19 5.657-.332l.086 1.142a165.54 165.54 0 0 1-5.696.335zm9.112-.632l-.11-1.14c1.913-.188 3.792-.408 5.626-.66l.153 1.136c-1.849.253-3.741.475-5.67.664zm9.059-1.173l-.182-1.131c1.922-.314 3.78-.663 5.563-1.043l.236 1.121c-1.8.384-3.677.736-5.617 1.053zm8.973-1.829l-.274-1.112a79.077 79.077 0 0 0 4.582-1.286c.284-.09.566-.18.844-.272l.355 1.089a80.203 80.203 0 0 1-5.506 1.582zm8.748-2.76l-.419-1.066c1.965-.785 3.678-1.615 5.045-2.437l.583.984c-1.423.855-3.19 1.712-5.209 2.519zm8.054-4.647l-.791-.823c.644-.63.886-1.06.886-1.153v-3.825h1.137v3.825c0 .46-.388 1.152-1.232 1.976zm-.595-11.994l-.49-1.034c.51-.245 1.003-.496 1.481-.752l.836-.448v4.988h-1.137V38.78a41.27 41.27 0 0 1-.69.34zm-3.585.319l.417 1.066a74.565 74.565 0 0 1-5.148 1.813l-.274.086-.335-1.095.27-.085a73.45 73.45 0 0 0 5.07-1.785zm-8.598 2.816l.294 1.107c-1.78.482-3.637.93-5.56 1.34l-.235-1.12c1.903-.408 3.74-.85 5.5-1.327zm-8.838 1.99l.205 1.128c-1.83.338-3.711.645-5.636.918l-.158-1.135c1.909-.271 3.774-.575 5.589-.91zm-8.96 1.35l.133 1.139c-1.86.22-3.755.411-5.678.571l-.094-1.142c1.91-.159 3.791-.348 5.639-.568zm-9.04.816l.071 1.144c-1.878.119-3.779.208-5.697.267l-.035-1.145c1.906-.06 3.795-.148 5.661-.266zm-9.063.34l.014 1.146a189.254 189.254 0 0 1-5.705-.013l.02-1.146a187.684 187.684 0 0 0 5.67.013zm-9.07-.104l-.04 1.145c-1.92-.07-3.82-.168-5.696-.296l.077-1.143c1.864.127 3.752.225 5.66.294zm-35.717-5.61l-.346 1.092a69.093 69.093 0 0 1-5.391-1.966l.434-1.059a67.98 67.98 0 0 0 5.303 1.933zm38.976 46.412l.022-1.145a171.496 171.496 0 0 0 5.671.018l.015 1.146a173.015 173.015 0 0 1-5.708-.019zm9.13-.06l-.038-1.145c1.904-.064 3.792-.158 5.658-.284l.076 1.143c-1.879.127-3.78.222-5.697.286zm9.115-.552l-.1-1.142a150.14 150.14 0 0 0 5.633-.606l.142 1.137c-1.854.235-3.749.44-5.675.61zm9.07-1.085l-.17-1.133c1.92-.292 3.783-.619 5.576-.977l.221 1.124c-1.81.362-3.69.691-5.627.986zm8.99-1.714l-.258-1.117a83.547 83.547 0 0 0 5.458-1.464l.331 1.097a84.672 84.672 0 0 1-5.531 1.484zm8.8-2.584l-.391-1.077c1.94-.715 3.678-1.481 5.143-2.258l.53 1.014c-1.512.802-3.297 1.588-5.282 2.32zm8.26-4.194l-.69-.911c1.384-1.065 1.908-1.813 1.91-2.028v-2.406h1.137v2.412c-.007.653-.723 1.676-2.357 2.933zm1.283-14.618l.238-.126.836-.448v6.409h-1.137V63.02h.26l-.197-.38zm-3.046 1.445l.445 1.054a65.695 65.695 0 0 1-5.378 2.008l-.353-1.09a64.582 64.582 0 0 0 5.286-1.972zm-8.538 2.973l.31 1.103c-1.77.507-3.62.98-5.542 1.416l-.25-1.118c1.902-.432 3.732-.9 5.482-1.4zm-8.809 2.104l.218 1.125c-1.825.358-3.702.684-5.626.977l-.17-1.133c1.908-.29 3.77-.614 5.578-.97zm-8.945 1.44l.144 1.137c-1.857.238-3.75.446-5.673.623l-.103-1.142c1.91-.175 3.79-.381 5.632-.618zm-9.032.895l.08 1.143c-1.876.134-3.776.238-5.695.313l-.044-1.146c1.907-.074 3.795-.177 5.659-.31zM164.706 95.62h1.137v2.958c.01.207.01.415 0 .592 0 .115.292.61 1.068 1.325l-.767.846c-.99-.912-1.438-1.672-1.437-2.2a5.23 5.23 0 0 0 0-.533v-2.988zm4.314 7.794l.572-.99c1.388.813 3.106 1.63 5.065 2.401l-.413 1.068c-2.011-.791-3.782-1.634-5.224-2.479zm8.474 3.643l.35-1.09.586.188a79.7 79.7 0 0 0 4.848 1.352l-.27 1.113a80.826 80.826 0 0 1-5.514-1.563zm8.863 2.328l.233-1.122c1.785.376 3.644.72 5.566 1.03l-.18 1.132c-1.94-.313-3.816-.66-5.619-1.04zm9.01 1.542l.151-1.136c1.835.248 3.714.465 5.627.65l-.108 1.14c-1.928-.185-3.82-.404-5.67-.654zm9.09.946l.084-1.143c1.864.139 3.752.246 5.657.323l-.045 1.145c-1.918-.077-3.82-.185-5.696-.325zm9.119.427l.022-1.146a171.495 171.495 0 0 0 5.671.019l.015 1.146a173.022 173.022 0 0 1-5.708-.019zm9.13-.06l-.038-1.146c1.904-.063 3.792-.158 5.658-.284l.076 1.144c-1.879.127-3.78.222-5.697.286zm9.115-.553l-.1-1.141a150.14 150.14 0 0 0 5.633-.607l.142 1.137c-1.854.236-3.749.44-5.675.611zm9.07-1.084l-.17-1.133c1.92-.293 3.783-.62 5.576-.978l.221 1.125c-1.81.361-3.69.691-5.627.986zm8.99-1.715l-.258-1.116a83.547 83.547 0 0 0 5.458-1.464l.331 1.096a84.672 84.672 0 0 1-5.531 1.484zm8.8-2.584l-.391-1.076c1.94-.715 3.678-1.482 5.143-2.259l.53 1.014c-1.512.802-3.297 1.589-5.282 2.321zm8.26-4.194l-.69-.91c1.384-1.065 1.908-1.813 1.91-2.028v-2.406h1.137v2.412c-.007.653-.723 1.675-2.357 2.932zm1.283-14.617l.238-.127.836-.447v6.408h-1.137v-5.455h.26l-.197-.38zm-3.046 1.444l.445 1.055A65.695 65.695 0 0 1 260.245 92l-.353-1.09a64.582 64.582 0 0 0 5.286-1.973zm-8.538 2.974l.31 1.102c-1.77.508-3.62.98-5.542 1.416l-.25-1.118c1.902-.431 3.732-.899 5.482-1.4zm-8.809 2.103l.218 1.125c-1.825.359-3.702.685-5.626.978l-.17-1.133c1.908-.29 3.77-.614 5.578-.97zm-8.945 1.441l.144 1.137c-1.857.238-3.75.446-5.673.622l-.103-1.141c1.91-.175 3.79-.382 5.632-.618zm-9.032.894l.08 1.144c-1.876.133-3.776.238-5.695.312l-.044-1.145c1.907-.074 3.795-.178 5.659-.31zm-9.059.411l.023 1.146a188.483 188.483 0 0 1-5.707.03l.011-1.147a188.643 188.643 0 0 0 5.673-.029zm-9.073-.036l-.032 1.146c-1.919-.055-3.82-.138-5.699-.251l.068-1.144c1.867.112 3.756.195 5.663.25z"/>
</svg>
