<svg xmlns="http://www.w3.org/2000/svg" width="63" height="54" viewBox="0 0 63 54">
  <g fill="#E5E9EB">
    <polygon points="60.248 33 47.524 21.606 14.476 21.606 1.752 33 0 31.063 13.471 19 48.529 19 62 31.063"/>
    <path d="M59.0625,54 L3.9375,54 C1.76596875,54 0,52.2316286 0,50.0571429 L0,31 L21,31 L21,32.3142857 C21,35.5756857 23.6492812,38.2285714 26.90625,38.2285714 L36.09375,38.2285714 C39.3507187,38.2285714 42,35.5756857 42,32.3142857 L42,31 L63,31 L63,50.0571429 C63,52.2316286 61.2340312,54 59.0625,54 Z M2.625,33.6285714 L2.625,50.0571429 C2.625,50.7819714 3.21365625,51.3714286 3.9375,51.3714286 L59.0625,51.3714286 C59.7863438,51.3714286 60.375,50.7819714 60.375,50.0571429 L60.375,33.6285714 L44.5245938,33.6285714 C43.8913125,37.7179714 40.3515,40.8571429 36.09375,40.8571429 L26.90625,40.8571429 C22.6485,40.8571429 19.1086875,37.7179714 18.4754063,33.6285714 L2.625,33.6285714 Z"/>
    <rect width="9" height="3" x="16" y="4" transform="rotate(57.529 20.5 5.5)"/>
    <rect width="3" height="9" x="42" y="1" transform="rotate(32.466 43.5 5.5)"/>
    <rect width="3" height="9" x="30"/>
  </g>
</svg>
